%TF.GenerationSoftware,Altium Limited,Altium Designer,20.0.10 (225)*%
G04 Layer_Color=65535*
%FSLAX26Y26*%
%MOIN*%
%TF.FileFunction,Legend,Top*%
%TF.Part,Single*%
G01*
G75*
%TA.AperFunction,NonConductor*%
%ADD29C,0.005000*%
%ADD38C,0.010000*%
%ADD48C,0.005906*%
%ADD49C,0.007874*%
%ADD50C,0.006000*%
%ADD51C,0.000000*%
%ADD52C,0.010079*%
G36*
X698819Y14567D02*
X221513D01*
Y172047D01*
X698819D01*
Y14567D01*
D02*
G37*
G36*
X900356D02*
X723190D01*
Y172047D01*
X900356D01*
Y14567D01*
D02*
G37*
G36*
X1500906D02*
X1323740D01*
Y172047D01*
X1500906D01*
Y14567D01*
D02*
G37*
G36*
X1865766Y760474D02*
X1866321D01*
X1866876Y760419D01*
X1867542Y760308D01*
X1868319Y760252D01*
X1869096Y760141D01*
X1869984Y760030D01*
X1870927Y759864D01*
X1872925Y759475D01*
X1875145Y758920D01*
X1877532Y758254D01*
X1879974Y757422D01*
X1882527Y756367D01*
X1883859Y755757D01*
X1885135Y755146D01*
X1886467Y754425D01*
X1887744Y753648D01*
X1889076Y752815D01*
X1890352Y751927D01*
X1891629Y750984D01*
X1892905Y749985D01*
X1894126Y748875D01*
X1895347Y747709D01*
X1895403Y747654D01*
X1895514Y747543D01*
X1895680Y747376D01*
X1895902Y747154D01*
X1896180Y746821D01*
X1896513Y746433D01*
X1896901Y745933D01*
X1897345Y745434D01*
X1897845Y744823D01*
X1898344Y744213D01*
X1898844Y743491D01*
X1899399Y742714D01*
X1899954Y741882D01*
X1900564Y740994D01*
X1901175Y740050D01*
X1901785Y739051D01*
X1902951Y736942D01*
X1904116Y734556D01*
X1905171Y732058D01*
X1906170Y729339D01*
X1907002Y726453D01*
X1907335Y724954D01*
X1907613Y723400D01*
X1907835Y721846D01*
X1908001Y720237D01*
X1908112Y718572D01*
X1908168Y716907D01*
Y716851D01*
Y716685D01*
Y716463D01*
Y716130D01*
X1908112Y715686D01*
Y715131D01*
X1908057Y714576D01*
X1907946Y713854D01*
X1907890Y713133D01*
X1907779Y712300D01*
X1907668Y711468D01*
X1907502Y710524D01*
X1907113Y708471D01*
X1906558Y706251D01*
X1905892Y703920D01*
X1905060Y701422D01*
X1904005Y698869D01*
X1903395Y697537D01*
X1902784Y696261D01*
X1902063Y694929D01*
X1901286Y693597D01*
X1900453Y692320D01*
X1899565Y690988D01*
X1898622Y689712D01*
X1897623Y688435D01*
X1896513Y687214D01*
X1895347Y685993D01*
X1895292Y685938D01*
X1895181Y685827D01*
X1895014Y685660D01*
X1894792Y685438D01*
X1894459Y685161D01*
X1894071Y684828D01*
X1893571Y684439D01*
X1893072Y683995D01*
X1892461Y683551D01*
X1891851Y683052D01*
X1891129Y682497D01*
X1890352Y681942D01*
X1889520Y681387D01*
X1888632Y680776D01*
X1887688Y680221D01*
X1886689Y679611D01*
X1884580Y678445D01*
X1882194Y677280D01*
X1879696Y676170D01*
X1876977Y675226D01*
X1874091Y674394D01*
X1872592Y674061D01*
X1871038Y673783D01*
X1869484Y673561D01*
X1867875Y673395D01*
X1866210Y673284D01*
X1864545Y673228D01*
X1863768D01*
X1863324Y673284D01*
X1862769Y673339D01*
X1862214D01*
X1861492Y673450D01*
X1860771Y673506D01*
X1859938Y673617D01*
X1859106Y673728D01*
X1858162Y673894D01*
X1856109Y674283D01*
X1853889Y674838D01*
X1851558Y675504D01*
X1849060Y676336D01*
X1846507Y677391D01*
X1845175Y677946D01*
X1843899Y678612D01*
X1842567Y679333D01*
X1841235Y680055D01*
X1839958Y680887D01*
X1838626Y681775D01*
X1837350Y682719D01*
X1836073Y683773D01*
X1834852Y684828D01*
X1833631Y685993D01*
X1833576Y686049D01*
X1833465Y686160D01*
X1833298Y686326D01*
X1833076Y686604D01*
X1832799Y686881D01*
X1832466Y687270D01*
X1832077Y687769D01*
X1831633Y688269D01*
X1831189Y688879D01*
X1830690Y689545D01*
X1830135Y690211D01*
X1829580Y690988D01*
X1829025Y691821D01*
X1828414Y692709D01*
X1827859Y693652D01*
X1827249Y694651D01*
X1826083Y696816D01*
X1824918Y699202D01*
X1823808Y701700D01*
X1822864Y704419D01*
X1822032Y707361D01*
X1821699Y708859D01*
X1821421Y710413D01*
X1821199Y711967D01*
X1821033Y713577D01*
X1820922Y715242D01*
X1820866Y716907D01*
Y716962D01*
Y717129D01*
Y717351D01*
Y717684D01*
X1820922Y718128D01*
X1820977Y718683D01*
Y719238D01*
X1821088Y719904D01*
X1821144Y720681D01*
X1821255Y721458D01*
X1821366Y722346D01*
X1821532Y723289D01*
X1821921Y725287D01*
X1822476Y727507D01*
X1823142Y729894D01*
X1823974Y732336D01*
X1825029Y734889D01*
X1825584Y736221D01*
X1826250Y737497D01*
X1826971Y738829D01*
X1827693Y740106D01*
X1828525Y741438D01*
X1829413Y742714D01*
X1830357Y743991D01*
X1831411Y745267D01*
X1832466Y746488D01*
X1833631Y747709D01*
X1833687Y747765D01*
X1833798Y747876D01*
X1833964Y748042D01*
X1834242Y748264D01*
X1834519Y748542D01*
X1834908Y748875D01*
X1835407Y749263D01*
X1835907Y749707D01*
X1836517Y750207D01*
X1837183Y750706D01*
X1837849Y751206D01*
X1838626Y751761D01*
X1839459Y752316D01*
X1840347Y752926D01*
X1841290Y753537D01*
X1842289Y754147D01*
X1844454Y755313D01*
X1846840Y756478D01*
X1849338Y757533D01*
X1852057Y758532D01*
X1854999Y759364D01*
X1856497Y759697D01*
X1858051Y759975D01*
X1859605Y760197D01*
X1861215Y760363D01*
X1862880Y760474D01*
X1864545Y760530D01*
X1865322D01*
X1865766Y760474D01*
D02*
G37*
%LPC*%
G36*
X404105Y145838D02*
Y145810D01*
D01*
Y145838D01*
D02*
G37*
G36*
Y144363D02*
Y144281D01*
D01*
Y144363D01*
D02*
G37*
G36*
Y142616D02*
Y142561D01*
D01*
Y142616D01*
D02*
G37*
G36*
X423325Y152362D02*
X404105D01*
X422861D01*
X421878Y152335D01*
X420922Y152280D01*
X419994Y152198D01*
X419148Y152062D01*
X418356Y151925D01*
X417619Y151762D01*
X416909Y151598D01*
X416281Y151434D01*
X415735Y151243D01*
X415244Y151079D01*
X414807Y150915D01*
X414452Y150779D01*
X414179Y150642D01*
X413961Y150560D01*
X413851Y150506D01*
X413797Y150478D01*
X412923Y149987D01*
X412132Y149468D01*
X411367Y148922D01*
X410657Y148349D01*
X410002Y147749D01*
X409429Y147175D01*
X408883Y146602D01*
X408392Y146029D01*
X407982Y145510D01*
X407600Y145018D01*
X407272Y144582D01*
X407026Y144200D01*
X406835Y143872D01*
X406672Y143626D01*
X406590Y143490D01*
X406562Y143435D01*
X406126Y142561D01*
X405743Y141661D01*
X405416Y140760D01*
X405143Y139859D01*
X404897Y138985D01*
X404706Y138112D01*
X404542Y137265D01*
X404406Y136474D01*
X404324Y135737D01*
X404242Y135054D01*
X404187Y134453D01*
X404133Y133935D01*
Y133525D01*
X404105Y133361D01*
Y113296D01*
D01*
Y132952D01*
X404133Y131942D01*
X404215Y130959D01*
X404324Y130004D01*
X404460Y129075D01*
X404624Y128202D01*
X404815Y127383D01*
X405006Y126591D01*
X405225Y125881D01*
X405416Y125226D01*
X405607Y124625D01*
X405798Y124134D01*
X405962Y123697D01*
X406126Y123342D01*
X406235Y123097D01*
X406289Y122933D01*
X406317Y122878D01*
X406753Y122032D01*
X407245Y121240D01*
X407736Y120503D01*
X408282Y119821D01*
X408828Y119193D01*
X409374Y118592D01*
X409920Y118073D01*
X410439Y117609D01*
X410958Y117172D01*
X411422Y116818D01*
X411831Y116490D01*
X412214Y116244D01*
X412514Y116053D01*
X412732Y115889D01*
X412869Y115808D01*
X412923Y115780D01*
X413770Y115343D01*
X414643Y114961D01*
X415517Y114634D01*
X416418Y114333D01*
X417291Y114115D01*
X418138Y113897D01*
X418957Y113733D01*
X419748Y113596D01*
X420485Y113514D01*
X421168Y113432D01*
X421769Y113378D01*
X422287Y113323D01*
X422697D01*
X422861Y113296D01*
X439432D01*
Y134208D01*
X422997D01*
Y127820D01*
X431733D01*
Y123015D01*
X431050Y122523D01*
X430341Y122087D01*
X429658Y121704D01*
X429003Y121377D01*
X428703Y121240D01*
X428430Y121104D01*
X428184Y120995D01*
X427993Y120913D01*
X427829Y120831D01*
X427693Y120803D01*
X427611Y120749D01*
X427583D01*
X426683Y120448D01*
X425809Y120203D01*
X425017Y120039D01*
X424635Y119984D01*
X424280Y119930D01*
X423952Y119903D01*
X423680Y119875D01*
X423406Y119848D01*
X423188D01*
X423024Y119821D01*
X422779D01*
X421905Y119848D01*
X421059Y119957D01*
X420267Y120121D01*
X419530Y120339D01*
X418820Y120612D01*
X418165Y120885D01*
X417592Y121186D01*
X417046Y121513D01*
X416582Y121814D01*
X416145Y122114D01*
X415790Y122414D01*
X415490Y122660D01*
X415244Y122878D01*
X415080Y123042D01*
X414971Y123151D01*
X414943Y123178D01*
X414425Y123834D01*
X413961Y124571D01*
X413551Y125362D01*
X413224Y126181D01*
X412923Y127001D01*
X412705Y127847D01*
X412486Y128666D01*
X412350Y129485D01*
X412214Y130249D01*
X412132Y130959D01*
X412050Y131587D01*
X412022Y132160D01*
X411995Y132406D01*
Y132624D01*
X411968Y132788D01*
Y132952D01*
Y133088D01*
Y133170D01*
Y133225D01*
Y133252D01*
X411995Y134371D01*
X412104Y135436D01*
X412241Y136419D01*
X412432Y137347D01*
X412650Y138194D01*
X412896Y138958D01*
X413169Y139668D01*
X413442Y140296D01*
X413715Y140842D01*
X413988Y141306D01*
X414234Y141715D01*
X414452Y142043D01*
X414643Y142316D01*
X414780Y142507D01*
X414889Y142616D01*
X414916Y142643D01*
X415490Y143217D01*
X416117Y143708D01*
X416745Y144118D01*
X417401Y144500D01*
X418056Y144800D01*
X418738Y145046D01*
X419366Y145264D01*
X419994Y145428D01*
X420595Y145565D01*
X421113Y145674D01*
X421605Y145728D01*
X422041Y145783D01*
X422369Y145810D01*
X422642Y145838D01*
X422861D01*
X423461Y145810D01*
X424034Y145756D01*
X424608Y145674D01*
X425099Y145592D01*
X425591Y145455D01*
X426055Y145319D01*
X426464Y145182D01*
X426846Y145018D01*
X427174Y144855D01*
X427474Y144718D01*
X427747Y144582D01*
X427966Y144445D01*
X428129Y144363D01*
X428239Y144281D01*
X428320Y144227D01*
X428348Y144200D01*
X428757Y143899D01*
X429112Y143544D01*
X429440Y143189D01*
X429767Y142834D01*
X430040Y142480D01*
X430286Y142097D01*
X430505Y141743D01*
X430696Y141415D01*
X430859Y141087D01*
X430996Y140787D01*
X431132Y140514D01*
X431214Y140296D01*
X431296Y140105D01*
X431351Y139941D01*
X431378Y139859D01*
Y139832D01*
X438940Y141251D01*
X438695Y142207D01*
X438394Y143080D01*
X438039Y143927D01*
X437657Y144718D01*
X437248Y145428D01*
X436811Y146111D01*
X436401Y146711D01*
X435964Y147257D01*
X435555Y147749D01*
X435146Y148185D01*
X434791Y148540D01*
X434463Y148840D01*
X434217Y149086D01*
X433999Y149250D01*
X433890Y149359D01*
X433835Y149387D01*
X433071Y149905D01*
X432224Y150369D01*
X431351Y150779D01*
X430450Y151106D01*
X429549Y151407D01*
X428621Y151625D01*
X427720Y151844D01*
X426874Y151980D01*
X426055Y152117D01*
X425290Y152198D01*
X424608Y152280D01*
X424007Y152308D01*
X423761Y152335D01*
X423543D01*
X423325Y152362D01*
D02*
G37*
G36*
X404105Y137347D02*
Y137265D01*
D01*
Y137347D01*
D02*
G37*
G36*
X516226Y127383D02*
Y127301D01*
D01*
Y127383D01*
D02*
G37*
G36*
X476505Y151734D02*
X456345D01*
X469434D01*
Y126427D01*
X453928Y151734D01*
X446530D01*
Y113951D01*
X453600D01*
Y138685D01*
X468861Y113951D01*
X476505D01*
Y151734D01*
D02*
G37*
G36*
X516226Y125936D02*
Y125909D01*
D01*
Y125936D01*
D02*
G37*
G36*
X499246Y151734D02*
X484558D01*
Y113951D01*
X516226Y113951D01*
X499655Y113951D01*
X500392Y113978D01*
X501075Y114033D01*
X501730Y114088D01*
X502331Y114142D01*
X502904Y114197D01*
X503396Y114279D01*
X503860Y114361D01*
X504269Y114415D01*
X504624Y114497D01*
X504952Y114552D01*
X505197Y114634D01*
X505388Y114661D01*
X505552Y114716D01*
X505634Y114743D01*
X505661D01*
X506289Y114961D01*
X506863Y115180D01*
X507409Y115425D01*
X507927Y115671D01*
X508391Y115917D01*
X508828Y116162D01*
X509238Y116408D01*
X509593Y116654D01*
X509920Y116872D01*
X510193Y117091D01*
X510439Y117254D01*
X510657Y117418D01*
X510794Y117555D01*
X510930Y117664D01*
X510985Y117719D01*
X511012Y117746D01*
X511504Y118237D01*
X511940Y118783D01*
X512350Y119329D01*
X512759Y119875D01*
X513114Y120449D01*
X513442Y120995D01*
X513742Y121541D01*
X514015Y122059D01*
X514261Y122551D01*
X514479Y122987D01*
X514643Y123397D01*
X514780Y123752D01*
X514916Y124025D01*
X514998Y124243D01*
X515025Y124380D01*
X515053Y124434D01*
X515271Y125090D01*
X515435Y125745D01*
X515735Y127110D01*
X515953Y128447D01*
X516008Y129103D01*
X516090Y129703D01*
X516117Y130277D01*
X516172Y130795D01*
X516199Y131287D01*
Y131669D01*
X516226Y131996D01*
Y133443D01*
X516172Y134372D01*
X516117Y135273D01*
X516035Y136091D01*
X515926Y136883D01*
X515817Y137620D01*
X515708Y138303D01*
X515599Y138931D01*
X515489Y139477D01*
X515380Y139968D01*
X515271Y140378D01*
X515162Y140732D01*
X515080Y141033D01*
X515025Y141224D01*
X514998Y141360D01*
X514971Y141388D01*
X514725Y142043D01*
X514452Y142698D01*
X514179Y143299D01*
X513879Y143872D01*
X513578Y144418D01*
X513278Y144909D01*
X513005Y145374D01*
X512705Y145810D01*
X512432Y146192D01*
X512186Y146520D01*
X511968Y146820D01*
X511749Y147066D01*
X511586Y147257D01*
X511476Y147394D01*
X511394Y147476D01*
X511367Y147503D01*
X510903Y147967D01*
X510439Y148376D01*
X509947Y148759D01*
X509483Y149114D01*
X508992Y149414D01*
X508528Y149714D01*
X508064Y149960D01*
X507627Y150206D01*
X507217Y150397D01*
X506835Y150560D01*
X506508Y150697D01*
X506207Y150806D01*
X505989Y150888D01*
X505798Y150943D01*
X505689Y150997D01*
X505661D01*
X505170Y151134D01*
X504651Y151243D01*
X504078Y151352D01*
X503505Y151434D01*
X502303Y151543D01*
X501730Y151598D01*
X501157Y151652D01*
X500611Y151680D01*
X500120Y151707D01*
X499655D01*
X499246Y151734D01*
D02*
G37*
%LPD*%
G36*
X439432Y113296D02*
X423270D01*
X424144Y113323D01*
X425017Y113378D01*
X425863Y113460D01*
X426683Y113569D01*
X427474Y113705D01*
X428239Y113842D01*
X428948Y114006D01*
X429631Y114169D01*
X430231Y114333D01*
X430777Y114497D01*
X431269Y114634D01*
X431678Y114770D01*
X432033Y114879D01*
X432279Y114961D01*
X432416Y115016D01*
X432470Y115043D01*
X433289Y115371D01*
X434081Y115726D01*
X434818Y116081D01*
X435473Y116435D01*
X436101Y116790D01*
X436674Y117118D01*
X437193Y117445D01*
X437657Y117746D01*
X438067Y118046D01*
X438421Y118319D01*
X438749Y118537D01*
X438995Y118756D01*
X439186Y118920D01*
X439322Y119029D01*
X439404Y119111D01*
X439432Y119138D01*
Y113296D01*
D02*
G37*
G36*
X497198Y145319D02*
X497908D01*
X498536Y145292D01*
X499109Y145264D01*
X499628Y145237D01*
X500092Y145182D01*
X500474Y145155D01*
X500829Y145128D01*
X501102Y145073D01*
X501348Y145046D01*
X501539Y145018D01*
X501676Y144991D01*
X501785D01*
X501839Y144964D01*
X501867D01*
X502631Y144745D01*
X503341Y144500D01*
X503942Y144200D01*
X504460Y143899D01*
X504870Y143626D01*
X505034Y143517D01*
X505170Y143408D01*
X505279Y143326D01*
X505361Y143244D01*
X505388Y143217D01*
X505416Y143189D01*
X505907Y142643D01*
X506344Y142070D01*
X506699Y141470D01*
X507026Y140869D01*
X507245Y140350D01*
X507354Y140105D01*
X507436Y139913D01*
X507490Y139750D01*
X507545Y139641D01*
X507572Y139559D01*
Y139531D01*
X507709Y139067D01*
X507845Y138576D01*
X507927Y138030D01*
X508036Y137484D01*
X508173Y136364D01*
X508228Y135819D01*
X508255Y135300D01*
X508310Y134781D01*
X508337Y134317D01*
Y133907D01*
X508364Y133525D01*
Y133225D01*
Y133007D01*
Y132870D01*
Y132815D01*
Y132024D01*
X508337Y131259D01*
X508282Y130550D01*
X508255Y129894D01*
X508173Y129267D01*
X508118Y128720D01*
X508036Y128202D01*
X507982Y127738D01*
X507900Y127301D01*
X507818Y126946D01*
X507764Y126618D01*
X507709Y126373D01*
X507654Y126182D01*
X507600Y126018D01*
X507572Y125936D01*
Y125909D01*
X507436Y125444D01*
X507272Y125035D01*
X507108Y124625D01*
X506945Y124270D01*
X506781Y123943D01*
X506617Y123643D01*
X506453Y123370D01*
X506289Y123124D01*
X506153Y122906D01*
X506016Y122742D01*
X505880Y122578D01*
X505798Y122469D01*
X505689Y122359D01*
X505634Y122305D01*
X505607Y122278D01*
X505579Y122250D01*
X505088Y121868D01*
X504569Y121540D01*
X504078Y121267D01*
X503587Y121076D01*
X503150Y120913D01*
X502959Y120831D01*
X502795Y120776D01*
X502686Y120749D01*
X502577Y120722D01*
X502522Y120694D01*
X502495D01*
X502222Y120640D01*
X501894Y120585D01*
X501184Y120503D01*
X500420Y120421D01*
X499655Y120394D01*
X499300Y120367D01*
X498973D01*
X498673Y120339D01*
X492175D01*
Y145346D01*
X496434D01*
X497198Y145319D01*
D02*
G37*
%LPC*%
G36*
X842854Y152362D02*
X834746D01*
X825518Y124407D01*
X815936Y152362D01*
X807692D01*
X821178Y114579D01*
X829395D01*
X842854Y152362D01*
D02*
G37*
G36*
X804415Y151871D02*
X780692D01*
X785278D01*
X781565Y132215D01*
X787408Y131369D01*
X787872Y131860D01*
X788363Y132269D01*
X788855Y132652D01*
X789319Y132952D01*
X789810Y133225D01*
X790274Y133443D01*
X790711Y133634D01*
X791148Y133771D01*
X791530Y133907D01*
X791885Y133989D01*
X792212Y134044D01*
X792485Y134071D01*
X792704Y134099D01*
X792868Y134126D01*
X793004D01*
X793468Y134099D01*
X793905Y134044D01*
X794287Y133962D01*
X794697Y133853D01*
X795379Y133580D01*
X795679Y133416D01*
X795952Y133252D01*
X796198Y133088D01*
X796417Y132925D01*
X796608Y132788D01*
X796771Y132652D01*
X796881Y132542D01*
X796963Y132460D01*
X797017Y132406D01*
X797044Y132379D01*
X797317Y132024D01*
X797563Y131642D01*
X797782Y131259D01*
X797973Y130822D01*
X798109Y130386D01*
X798246Y129949D01*
X798437Y129103D01*
X798491Y128693D01*
X798546Y128338D01*
X798573Y128011D01*
X798601Y127710D01*
X798628Y127465D01*
Y127301D01*
Y127164D01*
Y127137D01*
X798601Y126454D01*
X798573Y125827D01*
X798491Y125226D01*
X798382Y124680D01*
X798273Y124189D01*
X798136Y123725D01*
X797973Y123315D01*
X797836Y122933D01*
X797700Y122605D01*
X797536Y122332D01*
X797399Y122087D01*
X797290Y121895D01*
X797181Y121732D01*
X797126Y121622D01*
X797072Y121568D01*
X797044Y121540D01*
X796744Y121213D01*
X796444Y120940D01*
X796116Y120694D01*
X795789Y120476D01*
X795461Y120312D01*
X795161Y120148D01*
X794560Y119930D01*
X794014Y119821D01*
X793796Y119766D01*
X793605Y119739D01*
X793441Y119711D01*
X793222D01*
X792868Y119739D01*
X792513Y119766D01*
X791830Y119930D01*
X791230Y120148D01*
X790711Y120421D01*
X790301Y120694D01*
X790110Y120803D01*
X789974Y120913D01*
X789865Y120995D01*
X789783Y121076D01*
X789728Y121104D01*
X789701Y121131D01*
X789428Y121404D01*
X789182Y121704D01*
X788800Y122332D01*
X788472Y122987D01*
X788227Y123615D01*
X788063Y124161D01*
X788008Y124407D01*
X787981Y124598D01*
X787926Y124762D01*
Y124898D01*
X787899Y124980D01*
Y125008D01*
X780692Y124243D01*
X780828Y123370D01*
X781047Y122578D01*
X781292Y121786D01*
X781565Y121076D01*
X781893Y120394D01*
X782221Y119793D01*
X782548Y119220D01*
X782903Y118701D01*
X783231Y118237D01*
X783558Y117855D01*
X783831Y117500D01*
X784104Y117227D01*
X784323Y117009D01*
X784486Y116845D01*
X784596Y116736D01*
X784623Y116708D01*
X785251Y116217D01*
X785933Y115780D01*
X786643Y115425D01*
X787353Y115098D01*
X788063Y114825D01*
X788773Y114606D01*
X789455Y114415D01*
X790110Y114279D01*
X790738Y114169D01*
X791312Y114060D01*
X791830Y114006D01*
X792267Y113978D01*
X792649Y113951D01*
X792922Y113924D01*
X806081D01*
Y127246D01*
X806053Y128284D01*
X805944Y129239D01*
X805780Y130167D01*
X805562Y131041D01*
X805316Y131833D01*
X805016Y132597D01*
X804716Y133280D01*
X804415Y133907D01*
X804088Y134453D01*
X803788Y134945D01*
X803515Y135382D01*
X803242Y135737D01*
X803023Y136010D01*
X802859Y136201D01*
X802750Y136337D01*
X802723Y136364D01*
X802068Y136992D01*
X801413Y137538D01*
X800730Y138002D01*
X800020Y138412D01*
X799338Y138739D01*
X798655Y139040D01*
X798000Y139258D01*
X797372Y139449D01*
X796799Y139586D01*
X796253Y139695D01*
X795789Y139777D01*
X795352Y139832D01*
X795024Y139859D01*
X794779Y139886D01*
X794096D01*
X793632Y139832D01*
X792704Y139695D01*
X791885Y139504D01*
X791475Y139395D01*
X791120Y139286D01*
X790793Y139149D01*
X790492Y139040D01*
X790247Y138931D01*
X790001Y138849D01*
X789837Y138767D01*
X789701Y138712D01*
X789619Y138685D01*
X789592Y138658D01*
X790765Y145100D01*
X804415D01*
Y151871D01*
D02*
G37*
%LPD*%
G36*
X806081Y113924D02*
X793141D01*
X793741Y113951D01*
X794342Y113978D01*
X795461Y114142D01*
X796526Y114388D01*
X797509Y114716D01*
X798409Y115070D01*
X799256Y115507D01*
X800020Y115944D01*
X800703Y116435D01*
X801303Y116900D01*
X801849Y117336D01*
X802313Y117773D01*
X802668Y118128D01*
X802969Y118456D01*
X803187Y118701D01*
X803296Y118865D01*
X803351Y118920D01*
X803842Y119629D01*
X804252Y120339D01*
X804607Y121049D01*
X804934Y121759D01*
X805207Y122469D01*
X805426Y123151D01*
X805589Y123834D01*
X805753Y124462D01*
X805862Y125035D01*
X805944Y125581D01*
X805999Y126045D01*
X806026Y126454D01*
X806053Y126782D01*
X806081Y127028D01*
Y113924D01*
D02*
G37*
%LPC*%
G36*
X1430027Y152226D02*
X1421919D01*
X1412691Y124270D01*
X1403109Y152226D01*
X1394865D01*
X1408351Y114442D01*
X1394865D01*
X1430027D01*
D01*
X1416568D01*
X1430027Y152226D01*
D02*
G37*
G36*
X1457136Y152362D02*
X1432047D01*
X1443677D01*
X1443104Y152308D01*
X1442039Y152171D01*
X1441548Y152089D01*
X1441083Y151980D01*
X1440647Y151898D01*
X1440237Y151789D01*
X1439882Y151680D01*
X1439555Y151571D01*
X1439282Y151461D01*
X1439036Y151379D01*
X1438845Y151298D01*
X1438708Y151243D01*
X1438627Y151216D01*
X1438599Y151188D01*
X1437698Y150724D01*
X1437316Y150451D01*
X1436934Y150178D01*
X1436579Y149933D01*
X1436251Y149660D01*
X1435951Y149387D01*
X1435705Y149141D01*
X1435460Y148895D01*
X1435241Y148677D01*
X1435078Y148486D01*
X1434941Y148294D01*
X1434804Y148158D01*
X1434723Y148049D01*
X1434695Y147994D01*
X1434668Y147967D01*
X1434422Y147557D01*
X1434177Y147148D01*
X1433767Y146247D01*
X1433412Y145319D01*
X1433112Y144445D01*
X1432975Y144063D01*
X1432893Y143681D01*
X1432784Y143353D01*
X1432730Y143053D01*
X1432675Y142807D01*
X1432620Y142643D01*
X1432593Y142507D01*
Y142480D01*
X1439254Y141360D01*
X1439309Y141797D01*
X1439391Y142234D01*
X1439500Y142616D01*
X1439609Y142971D01*
X1439746Y143326D01*
X1439882Y143626D01*
X1440019Y143899D01*
X1440155Y144145D01*
X1440292Y144363D01*
X1440401Y144554D01*
X1440537Y144718D01*
X1440619Y144855D01*
X1440729Y144964D01*
X1440783Y145046D01*
X1440811Y145073D01*
X1440838Y145100D01*
X1441083Y145319D01*
X1441357Y145537D01*
X1441902Y145865D01*
X1442448Y146083D01*
X1442940Y146247D01*
X1443377Y146356D01*
X1443568Y146383D01*
X1443732D01*
X1443841Y146411D01*
X1444032D01*
X1444714Y146356D01*
X1445288Y146220D01*
X1445806Y146056D01*
X1446243Y145838D01*
X1446598Y145619D01*
X1446844Y145455D01*
X1447008Y145319D01*
X1447062Y145264D01*
X1447444Y144800D01*
X1447717Y144309D01*
X1447936Y143817D01*
X1448072Y143326D01*
X1448154Y142889D01*
X1448181Y142725D01*
Y142561D01*
X1448209Y142425D01*
Y142316D01*
Y142261D01*
Y142234D01*
X1448181Y141824D01*
X1448154Y141442D01*
X1448072Y141060D01*
X1447963Y140732D01*
X1447717Y140105D01*
X1447444Y139586D01*
X1447281Y139367D01*
X1447144Y139176D01*
X1447008Y139012D01*
X1446898Y138876D01*
X1446789Y138767D01*
X1446707Y138685D01*
X1446680Y138658D01*
X1446653Y138630D01*
X1446352Y138385D01*
X1446025Y138194D01*
X1445670Y138030D01*
X1445288Y137866D01*
X1444551Y137648D01*
X1443813Y137511D01*
X1443486Y137456D01*
X1443158Y137429D01*
X1442885Y137402D01*
X1442640Y137375D01*
X1442148D01*
X1441357Y131478D01*
X1442039Y131669D01*
X1442667Y131805D01*
X1443240Y131887D01*
X1443732Y131969D01*
X1444114Y131996D01*
X1444278D01*
X1444414Y132024D01*
X1444660D01*
X1445042Y131996D01*
X1445424Y131942D01*
X1445779Y131887D01*
X1446107Y131778D01*
X1446707Y131505D01*
X1447226Y131232D01*
X1447663Y130932D01*
X1447827Y130795D01*
X1447963Y130659D01*
X1448100Y130549D01*
X1448181Y130495D01*
X1448209Y130440D01*
X1448236Y130413D01*
X1448509Y130113D01*
X1448727Y129758D01*
X1448919Y129403D01*
X1449082Y129048D01*
X1449355Y128338D01*
X1449519Y127628D01*
X1449601Y127328D01*
X1449628Y127028D01*
X1449656Y126755D01*
X1449683Y126536D01*
X1449710Y126345D01*
Y126181D01*
Y126100D01*
Y126072D01*
X1449683Y125554D01*
X1449656Y125035D01*
X1449574Y124571D01*
X1449465Y124134D01*
X1449355Y123725D01*
X1449219Y123342D01*
X1449082Y123015D01*
X1448946Y122687D01*
X1448782Y122414D01*
X1448646Y122168D01*
X1448509Y121977D01*
X1448400Y121786D01*
X1448291Y121650D01*
X1448209Y121568D01*
X1448181Y121513D01*
X1448154Y121486D01*
X1447854Y121186D01*
X1447554Y120940D01*
X1447253Y120694D01*
X1446926Y120503D01*
X1446598Y120339D01*
X1446298Y120203D01*
X1445697Y120012D01*
X1445178Y119875D01*
X1444960Y119848D01*
X1444769Y119821D01*
X1444605Y119793D01*
X1444387D01*
X1444005Y119821D01*
X1443650Y119848D01*
X1442967Y120012D01*
X1442367Y120230D01*
X1441848Y120503D01*
X1441411Y120749D01*
X1441247Y120858D01*
X1441111Y120967D01*
X1441002Y121049D01*
X1440920Y121131D01*
X1440865Y121158D01*
X1440838Y121186D01*
X1440592Y121459D01*
X1440346Y121759D01*
X1439964Y122441D01*
X1439637Y123124D01*
X1439418Y123779D01*
X1439309Y124079D01*
X1439254Y124380D01*
X1439172Y124625D01*
X1439145Y124871D01*
X1439091Y125062D01*
Y125199D01*
X1439063Y125281D01*
Y125308D01*
X1432047Y124434D01*
X1432184Y123561D01*
X1432375Y122742D01*
X1432593Y121950D01*
X1432866Y121240D01*
X1433194Y120558D01*
X1433521Y119903D01*
X1433849Y119329D01*
X1434204Y118811D01*
X1434532Y118346D01*
X1434859Y117910D01*
X1435159Y117555D01*
X1435405Y117282D01*
X1435623Y117036D01*
X1435815Y116872D01*
X1435924Y116763D01*
X1435951Y116736D01*
X1436606Y116217D01*
X1437289Y115753D01*
X1437999Y115371D01*
X1438708Y115043D01*
X1439418Y114743D01*
X1440128Y114497D01*
X1440811Y114306D01*
X1441466Y114169D01*
X1442094Y114033D01*
X1442640Y113951D01*
X1443158Y113869D01*
X1443595Y113842D01*
X1443950Y113815D01*
X1444223Y113787D01*
X1444441D01*
X1445424Y113815D01*
X1446380Y113951D01*
X1447281Y114115D01*
X1448127Y114333D01*
X1448946Y114606D01*
X1449683Y114907D01*
X1450366Y115207D01*
X1450993Y115534D01*
X1451539Y115862D01*
X1452058Y116190D01*
X1452468Y116463D01*
X1452822Y116736D01*
X1453095Y116954D01*
X1453314Y117145D01*
X1453423Y117254D01*
X1453478Y117282D01*
X1454133Y117964D01*
X1454679Y118647D01*
X1455170Y119356D01*
X1455607Y120094D01*
X1455935Y120803D01*
X1456235Y121513D01*
X1456481Y122196D01*
X1456672Y122851D01*
X1456836Y123451D01*
X1456945Y123998D01*
X1457027Y124516D01*
X1457081Y124926D01*
X1457109Y125281D01*
X1457136Y125554D01*
Y125772D01*
X1457109Y126400D01*
X1457054Y127001D01*
X1456945Y127574D01*
X1456836Y128120D01*
X1456699Y128638D01*
X1456535Y129130D01*
X1456344Y129567D01*
X1456180Y129976D01*
X1455989Y130331D01*
X1455798Y130659D01*
X1455634Y130959D01*
X1455498Y131177D01*
X1455389Y131369D01*
X1455280Y131505D01*
X1455225Y131587D01*
X1455198Y131614D01*
X1454815Y132051D01*
X1454406Y132433D01*
X1453996Y132815D01*
X1453560Y133116D01*
X1453150Y133416D01*
X1452713Y133662D01*
X1452276Y133880D01*
X1451867Y134071D01*
X1451485Y134235D01*
X1451130Y134371D01*
X1450830Y134508D01*
X1450557Y134590D01*
X1450311Y134644D01*
X1450147Y134699D01*
X1450038Y134726D01*
X1450011D01*
X1450502Y134999D01*
X1450966Y135300D01*
X1451403Y135600D01*
X1451812Y135928D01*
X1452195Y136228D01*
X1452550Y136555D01*
X1453177Y137211D01*
X1453696Y137893D01*
X1454133Y138548D01*
X1454488Y139204D01*
X1454788Y139804D01*
X1455006Y140405D01*
X1455170Y140951D01*
X1455307Y141415D01*
X1455389Y141852D01*
X1455443Y142207D01*
X1455471Y142452D01*
Y142616D01*
Y142671D01*
X1455443Y143326D01*
X1455361Y143954D01*
X1455225Y144554D01*
X1455061Y145128D01*
X1454843Y145674D01*
X1454624Y146192D01*
X1454379Y146684D01*
X1454133Y147121D01*
X1453887Y147530D01*
X1453641Y147885D01*
X1453423Y148185D01*
X1453205Y148458D01*
X1453041Y148677D01*
X1452904Y148813D01*
X1452822Y148922D01*
X1452795Y148950D01*
X1452167Y149550D01*
X1451512Y150069D01*
X1450802Y150533D01*
X1450092Y150915D01*
X1449383Y151243D01*
X1448673Y151543D01*
X1447990Y151762D01*
X1447308Y151925D01*
X1446680Y152089D01*
X1446107Y152171D01*
X1445588Y152253D01*
X1445124Y152308D01*
X1444769Y152335D01*
X1444496Y152362D01*
X1457136D01*
D02*
G37*
G36*
X1392599D02*
X1367510D01*
X1379140D01*
X1378566Y152308D01*
X1377502Y152171D01*
X1377010Y152089D01*
X1376546Y151980D01*
X1376110Y151898D01*
X1375700Y151789D01*
X1375345Y151680D01*
X1375017Y151571D01*
X1374745Y151461D01*
X1374499Y151379D01*
X1374308Y151298D01*
X1374171Y151243D01*
X1374089Y151216D01*
X1374062Y151188D01*
X1373161Y150724D01*
X1372779Y150451D01*
X1372397Y150178D01*
X1372042Y149933D01*
X1371714Y149660D01*
X1371414Y149387D01*
X1371168Y149141D01*
X1370922Y148895D01*
X1370704Y148677D01*
X1370540Y148486D01*
X1370404Y148294D01*
X1370267Y148158D01*
X1370185Y148049D01*
X1370158Y147994D01*
X1370131Y147967D01*
X1369885Y147557D01*
X1369639Y147148D01*
X1369230Y146247D01*
X1368875Y145319D01*
X1368575Y144445D01*
X1368438Y144063D01*
X1368356Y143681D01*
X1368247Y143353D01*
X1368193Y143053D01*
X1368138Y142807D01*
X1368083Y142643D01*
X1368056Y142507D01*
Y142480D01*
X1374717Y141360D01*
X1374772Y141797D01*
X1374854Y142234D01*
X1374963Y142616D01*
X1375072Y142971D01*
X1375209Y143326D01*
X1375345Y143626D01*
X1375482Y143899D01*
X1375618Y144145D01*
X1375755Y144363D01*
X1375864Y144554D01*
X1376000Y144718D01*
X1376082Y144855D01*
X1376191Y144964D01*
X1376246Y145046D01*
X1376273Y145073D01*
X1376301Y145100D01*
X1376546Y145319D01*
X1376819Y145537D01*
X1377365Y145865D01*
X1377911Y146083D01*
X1378403Y146247D01*
X1378840Y146356D01*
X1379031Y146383D01*
X1379194D01*
X1379304Y146411D01*
X1379495D01*
X1380177Y146356D01*
X1380751Y146220D01*
X1381269Y146056D01*
X1381706Y145838D01*
X1382061Y145619D01*
X1382307Y145455D01*
X1382470Y145319D01*
X1382525Y145264D01*
X1382907Y144800D01*
X1383180Y144309D01*
X1383399Y143817D01*
X1383535Y143326D01*
X1383617Y142889D01*
X1383644Y142725D01*
Y142561D01*
X1383672Y142425D01*
Y142316D01*
Y142261D01*
Y142234D01*
X1383644Y141824D01*
X1383617Y141442D01*
X1383535Y141060D01*
X1383426Y140732D01*
X1383180Y140105D01*
X1382907Y139586D01*
X1382743Y139367D01*
X1382607Y139176D01*
X1382470Y139012D01*
X1382361Y138876D01*
X1382252Y138767D01*
X1382170Y138685D01*
X1382143Y138658D01*
X1382116Y138630D01*
X1381815Y138385D01*
X1381488Y138194D01*
X1381133Y138030D01*
X1380751Y137866D01*
X1380013Y137648D01*
X1379276Y137511D01*
X1378949Y137456D01*
X1378621Y137429D01*
X1378348Y137402D01*
X1378102Y137375D01*
X1377611D01*
X1376819Y131478D01*
X1377502Y131669D01*
X1378130Y131805D01*
X1378703Y131887D01*
X1379194Y131969D01*
X1379577Y131996D01*
X1379740D01*
X1379877Y132024D01*
X1380123D01*
X1380505Y131996D01*
X1380887Y131942D01*
X1381242Y131887D01*
X1381570Y131778D01*
X1382170Y131505D01*
X1382689Y131232D01*
X1383126Y130932D01*
X1383289Y130795D01*
X1383426Y130659D01*
X1383562Y130549D01*
X1383644Y130495D01*
X1383672Y130440D01*
X1383699Y130413D01*
X1383972Y130113D01*
X1384190Y129758D01*
X1384381Y129403D01*
X1384545Y129048D01*
X1384818Y128338D01*
X1384982Y127628D01*
X1385064Y127328D01*
X1385091Y127028D01*
X1385119Y126755D01*
X1385146Y126536D01*
X1385173Y126345D01*
Y126181D01*
Y126100D01*
Y126072D01*
X1385146Y125554D01*
X1385119Y125035D01*
X1385037Y124571D01*
X1384927Y124134D01*
X1384818Y123725D01*
X1384682Y123342D01*
X1384545Y123015D01*
X1384409Y122687D01*
X1384245Y122414D01*
X1384108Y122168D01*
X1383972Y121977D01*
X1383863Y121786D01*
X1383754Y121650D01*
X1383672Y121568D01*
X1383644Y121513D01*
X1383617Y121486D01*
X1383317Y121186D01*
X1383016Y120940D01*
X1382716Y120694D01*
X1382389Y120503D01*
X1382061Y120339D01*
X1381761Y120203D01*
X1381160Y120012D01*
X1380641Y119875D01*
X1380423Y119848D01*
X1380232Y119821D01*
X1380068Y119793D01*
X1379850D01*
X1379467Y119821D01*
X1379112Y119848D01*
X1378430Y120012D01*
X1377829Y120230D01*
X1377311Y120503D01*
X1376874Y120749D01*
X1376710Y120858D01*
X1376574Y120967D01*
X1376464Y121049D01*
X1376382Y121131D01*
X1376328Y121158D01*
X1376301Y121186D01*
X1376055Y121459D01*
X1375809Y121759D01*
X1375427Y122441D01*
X1375099Y123124D01*
X1374881Y123779D01*
X1374772Y124079D01*
X1374717Y124380D01*
X1374635Y124625D01*
X1374608Y124871D01*
X1374553Y125062D01*
Y125199D01*
X1374526Y125281D01*
Y125308D01*
X1367510Y124434D01*
X1367647Y123561D01*
X1367838Y122742D01*
X1368056Y121950D01*
X1368329Y121240D01*
X1368657Y120558D01*
X1368984Y119903D01*
X1369312Y119329D01*
X1369667Y118811D01*
X1369994Y118346D01*
X1370322Y117910D01*
X1370622Y117555D01*
X1370868Y117282D01*
X1371086Y117036D01*
X1371277Y116872D01*
X1371387Y116763D01*
X1371414Y116736D01*
X1372069Y116217D01*
X1372752Y115753D01*
X1373461Y115371D01*
X1374171Y115043D01*
X1374881Y114743D01*
X1375591Y114497D01*
X1376273Y114306D01*
X1376928Y114169D01*
X1377556Y114033D01*
X1378102Y113951D01*
X1378621Y113869D01*
X1379058Y113842D01*
X1379413Y113815D01*
X1379686Y113787D01*
X1379904D01*
X1380887Y113815D01*
X1381842Y113951D01*
X1382743Y114115D01*
X1383590Y114333D01*
X1384409Y114606D01*
X1385146Y114907D01*
X1385828Y115207D01*
X1386456Y115534D01*
X1387002Y115862D01*
X1387521Y116190D01*
X1387930Y116463D01*
X1388285Y116736D01*
X1388558Y116954D01*
X1388777Y117145D01*
X1388886Y117254D01*
X1388940Y117282D01*
X1389596Y117964D01*
X1390142Y118647D01*
X1390633Y119356D01*
X1391070Y120094D01*
X1391398Y120803D01*
X1391698Y121513D01*
X1391944Y122196D01*
X1392135Y122851D01*
X1392298Y123451D01*
X1392408Y123998D01*
X1392489Y124516D01*
X1392544Y124926D01*
X1392571Y125281D01*
X1392599Y125554D01*
Y125772D01*
X1392571Y126400D01*
X1392517Y127001D01*
X1392408Y127574D01*
X1392298Y128120D01*
X1392162Y128638D01*
X1391998Y129130D01*
X1391807Y129567D01*
X1391643Y129976D01*
X1391452Y130331D01*
X1391261Y130659D01*
X1391097Y130959D01*
X1390961Y131177D01*
X1390851Y131369D01*
X1390742Y131505D01*
X1390688Y131587D01*
X1390660Y131614D01*
X1390278Y132051D01*
X1389869Y132433D01*
X1389459Y132815D01*
X1389022Y133116D01*
X1388613Y133416D01*
X1388176Y133662D01*
X1387739Y133880D01*
X1387330Y134071D01*
X1386948Y134235D01*
X1386593Y134371D01*
X1386292Y134508D01*
X1386019Y134590D01*
X1385774Y134644D01*
X1385610Y134699D01*
X1385501Y134726D01*
X1385473D01*
X1385965Y134999D01*
X1386429Y135300D01*
X1386866Y135600D01*
X1387275Y135928D01*
X1387657Y136228D01*
X1388012Y136555D01*
X1388640Y137211D01*
X1389159Y137893D01*
X1389596Y138548D01*
X1389951Y139204D01*
X1390251Y139804D01*
X1390469Y140405D01*
X1390633Y140951D01*
X1390770Y141415D01*
X1390851Y141852D01*
X1390906Y142207D01*
X1390933Y142452D01*
Y142616D01*
Y142671D01*
X1390906Y143326D01*
X1390824Y143954D01*
X1390688Y144554D01*
X1390524Y145128D01*
X1390305Y145674D01*
X1390087Y146192D01*
X1389841Y146684D01*
X1389596Y147121D01*
X1389350Y147530D01*
X1389104Y147885D01*
X1388886Y148185D01*
X1388668Y148458D01*
X1388504Y148677D01*
X1388367Y148813D01*
X1388285Y148922D01*
X1388258Y148950D01*
X1387630Y149550D01*
X1386975Y150069D01*
X1386265Y150533D01*
X1385555Y150915D01*
X1384845Y151243D01*
X1384136Y151543D01*
X1383453Y151762D01*
X1382771Y151925D01*
X1382143Y152089D01*
X1381570Y152171D01*
X1381051Y152253D01*
X1380587Y152308D01*
X1380232Y152335D01*
X1379959Y152362D01*
X1392599D01*
D02*
G37*
G36*
X1864545Y756811D02*
X1863823D01*
X1863435Y756756D01*
X1862935D01*
X1862380Y756700D01*
X1861770Y756645D01*
X1861104Y756534D01*
X1860327Y756478D01*
X1859550Y756312D01*
X1858662Y756201D01*
X1856830Y755812D01*
X1854777Y755368D01*
X1852612Y754702D01*
X1850337Y753981D01*
X1848006Y752982D01*
X1845619Y751872D01*
X1844398Y751206D01*
X1843177Y750540D01*
X1842012Y749763D01*
X1840846Y748986D01*
X1839625Y748098D01*
X1838515Y747154D01*
X1837350Y746155D01*
X1836240Y745101D01*
X1836184Y745045D01*
X1836129Y744990D01*
X1835962Y744823D01*
X1835740Y744546D01*
X1835463Y744268D01*
X1835185Y743935D01*
X1834797Y743491D01*
X1834408Y742992D01*
X1834020Y742492D01*
X1833520Y741882D01*
X1833076Y741216D01*
X1832577Y740550D01*
X1831522Y738940D01*
X1830412Y737164D01*
X1829302Y735222D01*
X1828248Y733057D01*
X1827304Y730726D01*
X1826416Y728284D01*
X1825639Y725620D01*
X1825084Y722845D01*
X1824862Y721402D01*
X1824696Y719959D01*
X1824640Y718461D01*
X1824585Y716907D01*
Y716851D01*
Y716740D01*
Y716463D01*
Y716185D01*
X1824640Y715797D01*
Y715297D01*
X1824696Y714742D01*
X1824751Y714132D01*
X1824862Y713466D01*
X1824918Y712689D01*
X1825084Y711912D01*
X1825195Y711024D01*
X1825584Y709192D01*
X1826028Y707139D01*
X1826638Y704974D01*
X1827415Y702699D01*
X1828359Y700368D01*
X1829524Y697981D01*
X1830135Y696760D01*
X1830856Y695539D01*
X1831578Y694374D01*
X1832410Y693208D01*
X1833243Y691987D01*
X1834186Y690877D01*
X1835185Y689712D01*
X1836240Y688602D01*
X1836295Y688546D01*
X1836351Y688491D01*
X1836517Y688324D01*
X1836795Y688102D01*
X1837072Y687825D01*
X1837405Y687547D01*
X1837849Y687159D01*
X1838349Y686770D01*
X1838848Y686382D01*
X1839459Y685882D01*
X1840125Y685438D01*
X1840846Y684939D01*
X1842400Y683884D01*
X1844176Y682774D01*
X1846119Y681664D01*
X1848283Y680610D01*
X1850614Y679666D01*
X1853112Y678778D01*
X1855776Y678001D01*
X1858551Y677446D01*
X1859994Y677224D01*
X1861492Y677058D01*
X1862991Y677002D01*
X1864545Y676947D01*
X1865266D01*
X1865655Y677002D01*
X1866154D01*
X1866709Y677058D01*
X1867320Y677113D01*
X1867986Y677224D01*
X1868707Y677280D01*
X1869540Y677446D01*
X1870372Y677557D01*
X1872259Y677946D01*
X1874257Y678390D01*
X1876422Y679000D01*
X1878697Y679777D01*
X1881028Y680721D01*
X1883415Y681886D01*
X1884580Y682497D01*
X1885801Y683218D01*
X1886967Y683940D01*
X1888188Y684772D01*
X1889353Y685605D01*
X1890519Y686548D01*
X1891629Y687547D01*
X1892739Y688602D01*
X1892794Y688657D01*
X1892850Y688713D01*
X1893016Y688879D01*
X1893238Y689157D01*
X1893516Y689434D01*
X1893849Y689767D01*
X1894182Y690211D01*
X1894570Y690711D01*
X1895014Y691210D01*
X1895458Y691821D01*
X1895958Y692487D01*
X1896457Y693208D01*
X1897512Y694762D01*
X1898622Y696538D01*
X1899676Y698481D01*
X1900731Y700645D01*
X1901730Y702976D01*
X1902618Y705474D01*
X1903395Y708138D01*
X1903950Y710913D01*
X1904172Y712356D01*
X1904338Y713854D01*
X1904394Y715353D01*
X1904449Y716907D01*
Y716962D01*
Y717073D01*
Y717351D01*
Y717628D01*
X1904394Y718017D01*
Y718516D01*
X1904338Y719071D01*
X1904283Y719682D01*
X1904172Y720348D01*
X1904116Y721069D01*
X1903950Y721902D01*
X1903839Y722734D01*
X1903450Y724621D01*
X1903006Y726619D01*
X1902340Y728784D01*
X1901619Y731059D01*
X1900620Y733390D01*
X1899510Y735777D01*
X1898844Y736942D01*
X1898178Y738163D01*
X1897401Y739329D01*
X1896624Y740550D01*
X1895736Y741715D01*
X1894792Y742881D01*
X1893793Y743991D01*
X1892739Y745101D01*
X1892683Y745156D01*
X1892628Y745212D01*
X1892461Y745378D01*
X1892184Y745600D01*
X1891906Y745878D01*
X1891573Y746211D01*
X1891129Y746544D01*
X1890630Y746932D01*
X1890130Y747376D01*
X1889520Y747820D01*
X1888854Y748320D01*
X1888188Y748819D01*
X1886578Y749874D01*
X1884802Y750984D01*
X1882860Y752038D01*
X1880695Y753093D01*
X1878364Y754092D01*
X1875922Y754980D01*
X1873258Y755757D01*
X1870483Y756312D01*
X1869040Y756534D01*
X1867597Y756700D01*
X1866099Y756756D01*
X1864545Y756811D01*
D02*
G37*
%LPD*%
G36*
X1866376Y712578D02*
X1893904D01*
Y708804D01*
X1835130D01*
Y712578D01*
X1862658D01*
Y747820D01*
X1866376D01*
Y712578D01*
D02*
G37*
G36*
X1886190Y698314D02*
X1842844D01*
Y702033D01*
X1886190D01*
Y698314D01*
D02*
G37*
G36*
X1876089Y687492D02*
X1852945D01*
Y691210D01*
X1876089D01*
Y687492D01*
D02*
G37*
D29*
X11323Y14567D02*
Y914567D01*
Y14567D02*
X2011323D01*
Y914567D01*
X11323D02*
X2011323D01*
X1546457Y404844D02*
Y419583D01*
X1531718Y404844D02*
X1546457D01*
X1347244D02*
X1361983D01*
X1347244D02*
Y419583D01*
Y589317D02*
Y604056D01*
X1361983D01*
X1531718D02*
X1546457D01*
Y589317D02*
Y604056D01*
X1366487Y787891D02*
X1373556Y787891D01*
X1380625Y794960D01*
Y802029D01*
X1366487Y816166D01*
X1359418D01*
X1352350Y809097D01*
X1352350Y802029D01*
X1359418Y794960D01*
X1366487Y802029D01*
X1341746Y798494D02*
X1362953Y777288D01*
X1352350Y766685D01*
X1345281Y766685D01*
X1338212Y773754D01*
Y780822D01*
X1348815Y791426D01*
X1341746Y756082D02*
X1334678Y749013D01*
X1338212Y752547D01*
X1317006Y773754D01*
X1320540Y777288D01*
X1313471Y770219D01*
Y727806D02*
X1320540Y734875D01*
Y741944D01*
X1306403Y756082D01*
X1299334D01*
X1292265Y749013D01*
Y741944D01*
X1306403Y727807D01*
X1313471Y727806D01*
X1267524Y724272D02*
X1281662Y738410D01*
Y710135D01*
X1285196Y706600D01*
X1292265D01*
X1299334Y713669D01*
Y720738D01*
X669857Y777757D02*
X676926Y777757D01*
X683995Y784826D01*
Y791895D01*
X669857Y806033D01*
X662788D01*
X655720Y798964D01*
X655720Y791895D01*
X662788Y784826D01*
X669857Y791895D01*
X645116Y788361D02*
X666323Y767154D01*
X630979Y774223D01*
X652185Y753017D01*
X645116Y745948D02*
X623910Y767154D01*
X613307Y756551D01*
X613307Y749482D01*
X627444Y735345D01*
X634513D01*
X645116Y745948D01*
X787529Y788361D02*
X766323Y809567D01*
X752185Y795429D01*
Y753017D02*
X766323Y767154D01*
X745116Y788361D01*
X730979Y774223D01*
X755720Y777757D02*
X748651Y770688D01*
X745116Y745948D02*
X723910Y767154D01*
X713307Y756551D01*
X713307Y749482D01*
X727444Y735345D01*
X734513D01*
X745116Y745948D01*
X873392Y774223D02*
X887529Y788361D01*
X876926Y798964D01*
X873391Y788361D01*
X869857Y784826D01*
X862788D01*
X855720Y791895D01*
X855720Y798964D01*
X862788Y806033D01*
X869857D01*
X866323Y767154D02*
X852185Y781292D01*
X838048D01*
Y767154D01*
X852185Y753017D01*
X969857Y777757D02*
X976926Y777757D01*
X983995Y784826D01*
Y791895D01*
X969857Y806033D01*
X962788D01*
X955720Y798964D01*
X955720Y791895D01*
X962788Y784826D01*
X969857Y791895D01*
X945116Y788361D02*
X966323Y767154D01*
X930979Y774223D01*
X952185Y753017D01*
X945116Y745948D02*
X923910Y767154D01*
X913307Y756551D01*
X913307Y749482D01*
X927444Y735345D01*
X934513D01*
X945116Y745948D01*
X1069857Y782757D02*
X1076926Y782757D01*
X1083995Y789826D01*
Y796895D01*
X1069857Y811033D01*
X1062788D01*
X1055720Y803964D01*
X1055720Y796895D01*
X1062789Y789826D01*
X1069857Y796895D01*
X1045117Y793361D02*
X1066323Y772154D01*
X1030979Y779223D01*
X1052185Y758017D01*
X1045117Y750948D02*
X1023910Y772154D01*
X1013307Y761551D01*
X1013307Y754482D01*
X1027445Y740345D01*
X1034513D01*
X1045117Y750948D01*
X1169857Y777757D02*
X1176926Y777757D01*
X1183995Y784826D01*
Y791895D01*
X1169857Y806033D01*
X1162788D01*
X1155720Y798964D01*
X1155720Y791895D01*
X1162789Y784826D01*
X1169857Y791895D01*
X1145117Y788361D02*
X1166323Y767154D01*
X1130979Y774223D01*
X1152185Y753017D01*
X1145117Y745948D02*
X1123910Y767154D01*
X1113307Y756551D01*
X1113307Y749482D01*
X1127445Y735345D01*
X1134513D01*
X1145117Y745948D01*
X1269857Y777757D02*
X1276926Y777757D01*
X1283995Y784826D01*
Y791895D01*
X1269857Y806033D01*
X1262788D01*
X1255720Y798964D01*
X1255720Y791895D01*
X1262789Y784826D01*
X1269857Y791895D01*
X1245117Y788361D02*
X1266323Y767154D01*
X1230979Y774223D01*
X1252185Y753017D01*
X1245117Y745948D02*
X1223910Y767154D01*
X1213307Y756551D01*
X1213307Y749482D01*
X1227445Y735345D01*
X1234513D01*
X1245117Y745948D01*
X1466201Y779214D02*
X1473270Y779214D01*
X1480339Y786283D01*
Y793352D01*
X1466201Y807489D01*
X1459133D01*
X1452064Y800420D01*
X1452064Y793352D01*
X1459133Y786283D01*
X1466201Y793352D01*
X1441461Y789817D02*
X1462667Y768611D01*
X1452064Y758008D01*
X1444995Y758008D01*
X1437926Y765077D01*
Y772145D01*
X1448530Y782749D01*
X1441461Y747405D02*
X1434392Y740336D01*
X1437926Y743870D01*
X1416720Y765077D01*
X1420254Y768611D01*
X1413186Y761542D01*
Y719129D02*
X1420254Y726198D01*
Y733267D01*
X1406117Y747405D01*
X1399048D01*
X1391979Y740336D01*
Y733267D01*
X1406117Y719130D01*
X1413186Y719129D01*
X1381376Y729733D02*
X1374307Y722664D01*
X1377842Y726198D01*
X1399048Y704992D01*
Y712061D01*
X1370773Y676717D02*
X1384910Y690854D01*
X1374307Y701457D01*
X1370773Y690854D01*
X1367238Y687320D01*
X1360170D01*
X1353101Y694389D01*
Y701457D01*
X1360170Y708526D01*
X1367238D01*
X1661229Y772340D02*
X1668298Y772340D01*
X1675367Y779409D01*
Y786478D01*
X1661229Y800615D01*
X1654161D01*
X1647092Y793547D01*
X1647092Y786478D01*
X1654161Y779409D01*
X1661229Y786478D01*
X1636489Y782943D02*
X1657695Y761737D01*
X1622351Y768806D01*
X1643558Y747600D01*
X1636489Y740531D02*
X1615282Y761737D01*
X1604679Y751134D01*
X1604679Y744065D01*
X1618817Y729928D01*
X1625886D01*
X1636489Y740531D01*
X1564857Y782757D02*
X1571926Y782757D01*
X1578995Y789826D01*
Y796895D01*
X1564857Y811033D01*
X1557788D01*
X1550720Y803964D01*
X1550720Y796895D01*
X1557789Y789826D01*
X1564857Y796895D01*
X1540117Y793361D02*
X1561323Y772154D01*
X1525979Y779223D01*
X1547185Y758017D01*
X1540117Y750948D02*
X1518910Y772154D01*
X1508307Y761551D01*
X1508307Y754482D01*
X1522445Y740345D01*
X1529513D01*
X1540117Y750948D01*
X1764857Y777757D02*
X1771926Y777757D01*
X1778995Y784826D01*
Y791895D01*
X1764857Y806033D01*
X1757788D01*
X1750720Y798964D01*
X1750720Y791895D01*
X1757789Y784826D01*
X1764857Y791895D01*
X1740117Y788361D02*
X1761323Y767154D01*
X1725979Y774223D01*
X1747185Y753017D01*
X1740117Y745948D02*
X1718910Y767154D01*
X1708307Y756551D01*
X1708307Y749482D01*
X1722445Y735345D01*
X1729513D01*
X1740117Y745948D01*
X261323Y114567D02*
X240117Y135773D01*
X250720Y146376D01*
X257788Y146376D01*
X264857Y139308D01*
X264857Y132239D01*
X254254Y121636D01*
X261323Y128704D02*
X275460Y128704D01*
X282529Y135773D02*
X293132Y146376D01*
X293132Y153445D01*
X286063Y153445D01*
X278995Y146376D01*
X271926D01*
X271926Y153445D01*
X282529Y164048D01*
X289598Y178186D02*
X293132Y174651D01*
X289598Y171117D01*
X296667Y178186D01*
X293132Y174651D01*
X303736Y164048D01*
X310804D01*
X354254Y143612D02*
X340116Y129474D01*
X350720Y118871D01*
X354254Y129474D01*
X357788Y133008D01*
X364857D01*
X371926Y125940D01*
X371926Y118871D01*
X364857Y111802D01*
X357788D01*
X361323Y150680D02*
X375460Y136543D01*
X389598D01*
Y150680D01*
X375460Y164818D01*
X354254Y143612D02*
X340116Y129474D01*
X350720Y118871D01*
X354254Y129474D01*
X357788Y133008D01*
X364857D01*
X371926Y125940D01*
X371926Y118871D01*
X364857Y111802D01*
X357788D01*
X361323Y150680D02*
X375460Y136543D01*
X389598D01*
Y150680D01*
X375460Y164818D01*
X961323Y119567D02*
X940116Y140773D01*
X950720Y151376D01*
X957788Y151376D01*
X964857Y144308D01*
X964857Y137239D01*
X954254Y126636D01*
X961323Y133704D02*
X975460Y133704D01*
X978995Y172583D02*
X971926Y172583D01*
X964857Y165514D01*
Y158445D01*
X968392Y154911D01*
X975460Y154911D01*
X982529Y161980D01*
X989598Y161980D01*
X993132Y158445D01*
X993132Y151376D01*
X986063Y144308D01*
X978995D01*
X982529Y183186D02*
X996667Y197323D01*
X989598Y190255D01*
X1010804Y169048D01*
X1057788Y151376D02*
X1050720Y151376D01*
X1043651Y144308D01*
Y137239D01*
X1057788Y123101D01*
X1064857D01*
X1071926Y130170D01*
X1071926Y137239D01*
X1064857Y144308D01*
X1057788Y137239D01*
X1082529Y140773D02*
X1061323Y161980D01*
X1071926Y172583D01*
X1078995Y172583D01*
X1086063Y165514D01*
Y158445D01*
X1075460Y147842D01*
X1082529Y183186D02*
X1089598Y190255D01*
X1086063Y186720D01*
X1107270Y165514D01*
X1103736Y161980D01*
X1110804Y169048D01*
Y211461D02*
X1103736Y204392D01*
Y197323D01*
X1117873Y183186D01*
X1124942D01*
X1132011Y190255D01*
Y197323D01*
X1117873Y211461D01*
X1110804Y211461D01*
X1124942Y218530D02*
Y225599D01*
X1132011Y232667D01*
X1139079D01*
X1153217Y218530D01*
X1153217Y211461D01*
X1146148Y204392D01*
X1139079D01*
X1124942Y218530D01*
X1161323Y119567D02*
X1140117Y140773D01*
X1150720Y151376D01*
X1157788Y151376D01*
X1164857Y144308D01*
X1164857Y137239D01*
X1154254Y126636D01*
X1161323Y133704D02*
X1175460Y133704D01*
X1161323Y161980D02*
X1196667Y154911D01*
X1175460Y176117D02*
X1182529Y140773D01*
X1240117D02*
X1254254Y154911D01*
X1247185Y147842D01*
X1268392Y126636D01*
X1261323Y161980D02*
X1296667Y154911D01*
X1275460Y176117D02*
X1282529Y140773D01*
X1557788Y151376D02*
X1550720Y151376D01*
X1543651Y144308D01*
Y137239D01*
X1557788Y123101D01*
X1564857D01*
X1571926Y130170D01*
X1571926Y137239D01*
X1564857Y144308D01*
X1557788Y137239D01*
X1582529Y140773D02*
X1561323Y161980D01*
X1596667Y154911D01*
X1575460Y176117D01*
X1582529Y183186D02*
X1603736Y161980D01*
X1614339Y172583D01*
X1614339Y179651D01*
X1600201Y193789D01*
X1593132D01*
X1582529Y183186D01*
X1657788Y151376D02*
X1650720Y151376D01*
X1643651Y144308D01*
Y137239D01*
X1657788Y123101D01*
X1664857D01*
X1671926Y130170D01*
X1671926Y137239D01*
X1664857Y144308D01*
X1657788Y137239D01*
X1682529Y140773D02*
X1661323Y161980D01*
X1696667Y154911D01*
X1675460Y176117D01*
X1682529Y183186D02*
X1703736Y161980D01*
X1714339Y172583D01*
X1714339Y179651D01*
X1700201Y193789D01*
X1693132D01*
X1682529Y183186D01*
X1757788Y151376D02*
X1750720Y151376D01*
X1743651Y144308D01*
Y137239D01*
X1757788Y123101D01*
X1764857D01*
X1771926Y130170D01*
X1771926Y137239D01*
X1764857Y144308D01*
X1757788Y137239D01*
X1782529Y140773D02*
X1761323Y161980D01*
X1796667Y154911D01*
X1775460Y176117D01*
X1782529Y183186D02*
X1803736Y161980D01*
X1814339Y172583D01*
X1814339Y179651D01*
X1800201Y193789D01*
X1793132D01*
X1782529Y183186D01*
D38*
X1907354Y14567D02*
G03*
X2009766Y114951I2008J100384D01*
G01*
X10939Y116575D02*
G03*
X111323Y14163I100384J-2008D01*
G01*
X113331Y914951D02*
G03*
X10918Y814567I-2008J-100384D01*
G01*
X2011323Y811024D02*
G03*
X1910939Y913436I-100384J2008D01*
G01*
X1947835Y454253D02*
G03*
X1947835Y454253I-28543J0D01*
G01*
X102322Y14567D02*
X1911371D01*
X11323Y105566D02*
Y823568D01*
X114846Y913436D02*
X1910939D01*
X2009766Y114951D02*
Y813484D01*
X1009916Y257445D02*
Y287435D01*
X1024911D01*
X1029910Y282437D01*
Y272440D01*
X1024911Y267441D01*
X1009916D01*
X1019913D02*
X1029910Y257445D01*
X1039906D02*
X1049903D01*
X1044905D01*
Y287435D01*
X1039906Y282437D01*
X1079893Y257445D02*
Y287435D01*
X1064898Y272440D01*
X1084892D01*
X1077677Y600907D02*
Y630897D01*
X1092672D01*
X1097671Y625899D01*
Y615902D01*
X1092672Y610903D01*
X1077677D01*
X1087674D02*
X1097671Y600907D01*
X1107668D02*
X1117664D01*
X1112666D01*
Y630897D01*
X1107668Y625899D01*
X1132659D02*
X1137658Y630897D01*
X1147655D01*
X1152653Y625899D01*
Y605905D01*
X1147655Y600907D01*
X1137658D01*
X1132659Y605905D01*
Y625899D01*
X1437008Y376447D02*
X1457001Y346457D01*
Y376447D02*
X1437008Y346457D01*
X1466998D02*
X1476995D01*
X1471997D01*
Y376447D01*
X1466998Y371449D01*
X846748Y515649D02*
X821756D01*
X816758Y510651D01*
Y500654D01*
X821756Y495656D01*
X846748D01*
X841750Y485659D02*
X846748Y480661D01*
Y470664D01*
X841750Y465666D01*
X836751D01*
X831753Y470664D01*
Y475662D01*
Y470664D01*
X826755Y465666D01*
X821756D01*
X816758Y470664D01*
Y480661D01*
X821756Y485659D01*
X1547244Y656487D02*
Y631495D01*
X1552243Y626497D01*
X1562239D01*
X1567238Y631495D01*
Y656487D01*
X1577235Y626497D02*
X1587231D01*
X1582233D01*
Y656487D01*
X1577235Y651489D01*
X541339Y541339D02*
Y571329D01*
X556334D01*
X561332Y566331D01*
Y556334D01*
X556334Y551335D01*
X541339D01*
X551335D02*
X561332Y541339D01*
X571329D02*
X581326D01*
X576327D01*
Y571329D01*
X571329Y566331D01*
X596321D02*
X601319Y571329D01*
X611316D01*
X616314Y566331D01*
Y561332D01*
X611316Y556334D01*
X606318D01*
X611316D01*
X616314Y551335D01*
Y546337D01*
X611316Y541339D01*
X601319D01*
X596321Y546337D01*
X1077677Y702087D02*
Y732077D01*
X1092672D01*
X1097671Y727078D01*
Y717082D01*
X1092672Y712083D01*
X1077677D01*
X1087674D02*
X1097671Y702087D01*
X1107668D02*
X1117664D01*
X1112666D01*
Y732077D01*
X1107668Y727078D01*
X1152653Y702087D02*
X1132659D01*
X1152653Y722080D01*
Y727078D01*
X1147655Y732077D01*
X1137658D01*
X1132659Y727078D01*
X541339Y492126D02*
Y522116D01*
X556334D01*
X561332Y517118D01*
Y507121D01*
X556334Y502123D01*
X541339D01*
X551335D02*
X561332Y492126D01*
X571329D02*
X581326D01*
X576327D01*
Y522116D01*
X571329Y517118D01*
X596321Y492126D02*
X606318D01*
X601319D01*
Y522116D01*
X596321Y517118D01*
X541339Y442530D02*
Y472520D01*
X556334D01*
X561332Y467522D01*
Y457525D01*
X556334Y452527D01*
X541339D01*
X551335D02*
X561332Y442530D01*
X571329Y447528D02*
X576327Y442530D01*
X586324D01*
X591322Y447528D01*
Y467522D01*
X586324Y472520D01*
X576327D01*
X571329Y467522D01*
Y462523D01*
X576327Y457525D01*
X591322D01*
X1102362Y651236D02*
Y681227D01*
X1117357D01*
X1122356Y676228D01*
Y666232D01*
X1117357Y661233D01*
X1102362D01*
X1112359D02*
X1122356Y651236D01*
X1132352Y676228D02*
X1137351Y681227D01*
X1147348D01*
X1152346Y676228D01*
Y671230D01*
X1147348Y666232D01*
X1152346Y661233D01*
Y656235D01*
X1147348Y651236D01*
X1137351D01*
X1132352Y656235D01*
Y661233D01*
X1137351Y666232D01*
X1132352Y671230D01*
Y676228D01*
X1137351Y666232D02*
X1147348D01*
X541339Y395001D02*
Y424991D01*
X556334D01*
X561332Y419993D01*
Y409996D01*
X556334Y404998D01*
X541339D01*
X551335D02*
X561332Y395001D01*
X571329Y424991D02*
X591322D01*
Y419993D01*
X571329Y400000D01*
Y395001D01*
X541339Y346457D02*
Y376447D01*
X556334D01*
X561332Y371449D01*
Y361452D01*
X556334Y356454D01*
X541339D01*
X551335D02*
X561332Y346457D01*
X591322Y376447D02*
X581326Y371449D01*
X571329Y361452D01*
Y351455D01*
X576327Y346457D01*
X586324D01*
X591322Y351455D01*
Y356454D01*
X586324Y361452D01*
X571329D01*
X959665Y663287D02*
X989655D01*
Y648292D01*
X984657Y643294D01*
X974660D01*
X969662Y648292D01*
Y663287D01*
Y653290D02*
X959665Y643294D01*
X989655Y613303D02*
Y633297D01*
X974660D01*
X979658Y623300D01*
Y618302D01*
X974660Y613303D01*
X964663D01*
X959665Y618302D01*
Y628298D01*
X964663Y633297D01*
X1010570Y610138D02*
X1040561D01*
Y595142D01*
X1035562Y590144D01*
X1025565D01*
X1020567Y595142D01*
Y610138D01*
Y600141D02*
X1010570Y590144D01*
Y565152D02*
X1040561D01*
X1025565Y580147D01*
Y560154D01*
X1622047Y336406D02*
Y366397D01*
X1637042D01*
X1642041Y361398D01*
Y351402D01*
X1637042Y346403D01*
X1622047D01*
X1632044D02*
X1642041Y336406D01*
X1652037Y361398D02*
X1657036Y366397D01*
X1667033D01*
X1672031Y361398D01*
Y356400D01*
X1667033Y351402D01*
X1662034D01*
X1667033D01*
X1672031Y346403D01*
Y341405D01*
X1667033Y336406D01*
X1657036D01*
X1652037Y341405D01*
X1791339Y232527D02*
Y262517D01*
X1806334D01*
X1811332Y257519D01*
Y247522D01*
X1806334Y242524D01*
X1791339D01*
X1801335D02*
X1811332Y232527D01*
X1841322D02*
X1821329D01*
X1841322Y252520D01*
Y257519D01*
X1836324Y262517D01*
X1826327D01*
X1821329Y257519D01*
X1735435Y663386D02*
Y693376D01*
X1750430D01*
X1755429Y688378D01*
Y678381D01*
X1750430Y673383D01*
X1735435D01*
X1745432D02*
X1755429Y663386D01*
X1765426D02*
X1775422D01*
X1770424D01*
Y693376D01*
X1765426Y688378D01*
X993441Y424012D02*
X963450D01*
Y404018D01*
X988442Y394021D02*
X993441Y389023D01*
Y379026D01*
X988442Y374028D01*
X983444D01*
X978445Y379026D01*
Y384024D01*
Y379026D01*
X973447Y374028D01*
X968449D01*
X963450Y379026D01*
Y389023D01*
X968449Y394021D01*
X1625984Y529990D02*
Y500000D01*
X1645978D01*
X1655975D02*
X1665971D01*
X1660973D01*
Y529990D01*
X1655975Y524992D01*
X79049Y709124D02*
X69052D01*
X74050D01*
Y684132D01*
X69052Y679134D01*
X64053D01*
X59055Y684132D01*
X89045Y679134D02*
X99042D01*
X94044D01*
Y709124D01*
X89045Y704126D01*
X1043616Y414833D02*
X1023622D01*
Y399838D01*
X1033619D01*
X1023622D01*
Y384843D01*
X1053612Y414833D02*
Y384843D01*
X1068608D01*
X1073606Y389841D01*
Y394839D01*
X1068608Y399838D01*
X1053612D01*
X1068608D01*
X1073606Y404836D01*
Y409834D01*
X1068608Y414833D01*
X1053612D01*
X1083603Y384843D02*
X1093599D01*
X1088601D01*
Y414833D01*
X1083603Y409834D01*
X438466Y637590D02*
X433467Y642589D01*
X423471D01*
X418472Y637590D01*
Y617597D01*
X423471Y612598D01*
X433467D01*
X438466Y617597D01*
X448463Y612598D02*
X458459D01*
X453461D01*
Y642589D01*
X448463Y637590D01*
X493448Y612598D02*
X473454D01*
X493448Y632592D01*
Y637590D01*
X488450Y642589D01*
X478453D01*
X473454Y637590D01*
X812393Y601955D02*
X817392Y606953D01*
Y616950D01*
X812393Y621949D01*
X792400D01*
X787402Y616950D01*
Y606953D01*
X792400Y601955D01*
X787402Y591958D02*
Y581962D01*
Y586960D01*
X817392D01*
X812393Y591958D01*
X787402Y566966D02*
Y556970D01*
Y561968D01*
X817392D01*
X812393Y566966D01*
X832062Y365553D02*
X837060Y370552D01*
Y380549D01*
X832062Y385547D01*
X812068D01*
X807070Y380549D01*
Y370552D01*
X812068Y365553D01*
X807070Y355557D02*
Y345560D01*
Y350558D01*
X837060D01*
X832062Y355557D01*
Y330565D02*
X837060Y325566D01*
Y315570D01*
X832062Y310571D01*
X812068D01*
X807070Y315570D01*
Y325566D01*
X812068Y330565D01*
X832062D01*
X1801490Y522631D02*
X1796491Y527629D01*
X1786495D01*
X1781496Y522631D01*
Y502637D01*
X1786495Y497639D01*
X1796491D01*
X1801490Y502637D01*
X1811486D02*
X1816485Y497639D01*
X1826482D01*
X1831480Y502637D01*
Y522631D01*
X1826482Y527629D01*
X1816485D01*
X1811486Y522631D01*
Y517632D01*
X1816485Y512634D01*
X1831480D01*
X1374324Y371449D02*
X1369326Y376447D01*
X1359329D01*
X1354331Y371449D01*
Y351455D01*
X1359329Y346457D01*
X1369326D01*
X1374324Y351455D01*
X1384321Y371449D02*
X1389319Y376447D01*
X1399316D01*
X1404314Y371449D01*
Y366450D01*
X1399316Y361452D01*
X1404314Y356454D01*
Y351455D01*
X1399316Y346457D01*
X1389319D01*
X1384321Y351455D01*
Y356454D01*
X1389319Y361452D01*
X1384321Y366450D01*
Y371449D01*
X1389319Y361452D02*
X1399316D01*
X1715860Y523143D02*
X1710861Y528141D01*
X1700864D01*
X1695866Y523143D01*
Y503149D01*
X1700864Y498151D01*
X1710861D01*
X1715860Y503149D01*
X1725856Y528141D02*
X1745850D01*
Y523143D01*
X1725856Y503149D01*
Y498151D01*
X1531804Y371449D02*
X1526806Y376447D01*
X1516809D01*
X1511811Y371449D01*
Y351455D01*
X1516809Y346457D01*
X1526806D01*
X1531804Y351455D01*
X1561795Y376447D02*
X1551798Y371449D01*
X1541801Y361452D01*
Y351455D01*
X1546800Y346457D01*
X1556796D01*
X1561795Y351455D01*
Y356454D01*
X1556796Y361452D01*
X1541801D01*
X1111181Y513625D02*
X1106183Y518623D01*
X1096186D01*
X1091187Y513625D01*
Y493631D01*
X1096186Y488633D01*
X1106183D01*
X1111181Y493631D01*
X1141171Y518623D02*
X1121178D01*
Y503628D01*
X1131175Y508626D01*
X1136173D01*
X1141171Y503628D01*
Y493631D01*
X1136173Y488633D01*
X1126176D01*
X1121178Y493631D01*
X1252277Y513625D02*
X1247279Y518623D01*
X1237282D01*
X1232284Y513625D01*
Y493631D01*
X1237282Y488633D01*
X1247279D01*
X1252277Y493631D01*
X1277269Y488633D02*
Y518623D01*
X1262274Y503628D01*
X1282267D01*
X1181316Y513625D02*
X1176318Y518623D01*
X1166321D01*
X1161323Y513625D01*
Y493631D01*
X1166321Y488633D01*
X1176318D01*
X1181316Y493631D01*
X1191313Y513625D02*
X1196312Y518623D01*
X1206308D01*
X1211307Y513625D01*
Y508626D01*
X1206308Y503628D01*
X1201310D01*
X1206308D01*
X1211307Y498630D01*
Y493631D01*
X1206308Y488633D01*
X1196312D01*
X1191313Y493631D01*
X1811330Y303304D02*
X1806332Y308303D01*
X1796335D01*
X1791337Y303304D01*
Y283311D01*
X1796335Y278312D01*
X1806332D01*
X1811330Y283311D01*
X1841321Y278312D02*
X1821327D01*
X1841321Y298306D01*
Y303304D01*
X1836322Y308303D01*
X1826325D01*
X1821327Y303304D01*
X1755429Y638284D02*
X1750430Y643283D01*
X1740434D01*
X1735435Y638284D01*
Y618291D01*
X1740434Y613292D01*
X1750430D01*
X1755429Y618291D01*
X1765426Y613292D02*
X1775422D01*
X1770424D01*
Y643283D01*
X1765426Y638284D01*
X1938976Y555844D02*
Y575838D01*
X1948973Y585835D01*
X1958970Y575838D01*
Y555844D01*
Y570840D01*
X1938976D01*
X1988960Y555844D02*
X1968967D01*
X1988960Y575838D01*
Y580836D01*
X1983962Y585835D01*
X1973965D01*
X1968967Y580836D01*
D48*
X1574311Y435971D02*
G03*
X1574311Y435971I-2953J0D01*
G01*
D49*
X362205Y588976D02*
Y596850D01*
X385827Y588976D02*
Y596850D01*
X1122047Y420058D02*
Y427932D01*
X1145669Y420058D02*
Y427932D01*
X1171260Y420058D02*
Y427932D01*
X1194882Y420058D02*
Y427932D01*
X1220472Y420058D02*
Y427932D01*
X1244094Y420058D02*
Y427932D01*
X1718504Y308983D02*
X1726378D01*
X1718504Y285361D02*
X1726378D01*
X1663601Y641599D02*
X1671475D01*
X1663601Y617977D02*
X1671475D01*
X1547244Y277559D02*
Y285433D01*
X1523622Y277559D02*
Y285433D01*
X1366142Y277557D02*
Y285431D01*
X1389764Y277557D02*
Y285431D01*
X1631890Y427165D02*
Y435039D01*
X1655512Y427165D02*
Y435039D01*
X1718504Y466929D02*
X1726378D01*
X1718504Y443307D02*
X1726378D01*
X942913Y471374D02*
Y526492D01*
X868110Y471374D02*
Y510744D01*
X1789370Y423225D02*
Y431099D01*
X1812992Y423225D02*
Y431099D01*
X1057386Y337795D02*
X1065260D01*
X1057386Y361417D02*
X1065260D01*
X894233Y336515D02*
X902107D01*
X894233Y360138D02*
X902107D01*
X895669Y409169D02*
X903543D01*
X895669Y385547D02*
X903543D01*
X881890Y602264D02*
X889764D01*
X881890Y578641D02*
X889764D01*
D50*
X354331Y546654D02*
Y583071D01*
Y602756D02*
Y639173D01*
X393701Y546654D02*
Y583071D01*
Y602756D02*
Y639173D01*
X354331D02*
X393701D01*
X354331Y546654D02*
X393701D01*
X1970472Y404056D02*
Y506418D01*
X1868110Y404056D02*
Y425710D01*
Y482796D02*
Y504450D01*
X1114173Y377735D02*
Y414153D01*
Y433838D02*
Y470255D01*
X1153543Y377735D02*
Y414153D01*
Y433838D02*
Y470255D01*
X1114173D02*
X1153543D01*
X1114173Y377735D02*
X1153543D01*
X1163386D02*
Y414153D01*
Y433838D02*
Y470255D01*
X1202756Y377735D02*
Y414153D01*
Y433838D02*
Y470255D01*
X1163386D02*
X1202756D01*
X1163386Y377735D02*
X1202756D01*
X1212598D02*
Y414153D01*
Y433838D02*
Y470255D01*
X1251968Y377735D02*
Y414153D01*
Y433838D02*
Y470255D01*
X1212598D02*
X1251968D01*
X1212598Y377735D02*
X1251968D01*
X1676181Y316857D02*
X1712598D01*
X1732283D02*
X1768701D01*
X1676181Y277487D02*
X1712598D01*
X1732283D02*
X1768701D01*
Y316857D01*
X1676181Y277487D02*
Y316857D01*
X1621278Y649473D02*
X1657695D01*
X1677380D02*
X1713797D01*
X1621278Y610103D02*
X1657695D01*
X1677380D02*
X1713797D01*
Y649473D01*
X1621278Y610103D02*
Y649473D01*
X1555118Y291339D02*
Y327756D01*
Y235236D02*
Y271654D01*
X1515748Y291339D02*
Y327756D01*
Y235236D02*
Y271654D01*
Y235236D02*
X1555118D01*
X1515748Y327756D02*
X1555118D01*
X1358268Y235235D02*
Y271652D01*
Y291337D02*
Y327754D01*
X1397638Y235235D02*
Y271652D01*
Y291337D02*
Y327754D01*
X1358268D02*
X1397638D01*
X1358268Y235235D02*
X1397638D01*
X1450394Y253532D02*
X1462992D01*
X1499213Y285816D02*
Y290540D01*
X1450394Y322824D02*
X1462992D01*
X1414173Y285816D02*
Y290540D01*
X1624016Y384843D02*
X1663386D01*
X1624016Y477362D02*
X1663386D01*
X1624016Y384843D02*
Y421260D01*
Y440945D02*
Y477362D01*
X1663386Y384843D02*
Y421260D01*
Y440945D02*
Y477362D01*
X1768701Y435433D02*
Y474803D01*
X1676181Y435433D02*
Y474803D01*
X1712598D01*
X1732283D02*
X1768701D01*
X1676181Y435433D02*
X1712598D01*
X1732283D02*
X1768701D01*
X1781496Y473422D02*
X1820866D01*
X1781496Y380903D02*
X1820866D01*
X1781496D02*
Y417320D01*
Y437005D02*
Y473422D01*
X1820866Y380903D02*
Y417320D01*
Y437005D02*
Y473422D01*
X1107583Y329921D02*
Y369291D01*
X1015063Y329921D02*
Y369291D01*
X1071165Y329921D02*
X1107583D01*
X1015063D02*
X1051480D01*
X1071165Y369291D02*
X1107583D01*
X1015063D02*
X1051480D01*
X908012Y328642D02*
X944429D01*
X851910D02*
X888327D01*
X908012Y368012D02*
X944429D01*
X851910D02*
X888327D01*
X851910Y328642D02*
Y368012D01*
X944429Y328642D02*
Y368012D01*
X853346Y377673D02*
Y417043D01*
X945866Y377673D02*
Y417043D01*
X853346D02*
X889764D01*
X909449D02*
X945866D01*
X853346Y377673D02*
X889764D01*
X909449D02*
X945866D01*
X839567Y610138D02*
X875984D01*
X895669D02*
X932087D01*
X839567Y570768D02*
X875984D01*
X895669D02*
X932087D01*
Y610138D01*
X839567Y570768D02*
Y610138D01*
D51*
X1970472Y404056D02*
Y425710D01*
D52*
X305118Y787389D02*
Y780829D01*
X318237Y767710D01*
X331356Y780829D01*
Y787389D01*
X318237Y767710D02*
Y748032D01*
X364154D02*
X351035D01*
X344476Y754591D01*
Y767710D01*
X351035Y774270D01*
X364154D01*
X370714Y767710D01*
Y761151D01*
X344476D01*
X403512Y748032D02*
X390392D01*
X383833Y754591D01*
Y767710D01*
X390392Y774270D01*
X403512D01*
X410071Y767710D01*
Y761151D01*
X383833D01*
X429750Y780829D02*
Y774270D01*
X423190D01*
X436309D01*
X429750D01*
Y754591D01*
X436309Y748032D01*
%TF.MD5,961282245c14c429bb9128557ab582b1*%
M02*
