%TF.GenerationSoftware,Altium Limited,Altium Designer,18.1.7 (191)*%
G04 Layer_Color=255*
%FSLAX26Y26*%
%MOIN*%
%TF.FileFunction,Pads,Top*%
%TF.Part,Single*%
G01*
G75*
%TA.AperFunction,SMDPad,CuDef*%
%ADD10R,0.031496X0.035433*%
%ADD11R,0.031496X0.029528*%
%ADD12R,0.035433X0.031496*%
%ADD13R,0.041339X0.039370*%
%ADD14R,0.086614X0.041339*%
%TA.AperFunction,ConnectorPad*%
%ADD15R,0.057087X0.023622*%
%ADD16R,0.057087X0.011811*%
%TA.AperFunction,SMDPad,CuDef*%
%ADD17R,0.029528X0.031496*%
%ADD18R,0.031496X0.010630*%
%ADD19R,0.010630X0.031496*%
%ADD20R,0.145669X0.145669*%
%ADD21R,0.037402X0.033465*%
%ADD22R,0.011811X0.026378*%
%TA.AperFunction,ComponentPad*%
%ADD30C,0.059370*%
%ADD31R,0.059370X0.059370*%
%ADD32C,0.140000*%
%ADD33C,0.090000*%
%ADD34O,0.062992X0.039370*%
%ADD35O,0.082677X0.039370*%
%ADD36C,0.025591*%
D10*
X1122047Y272297D02*
D03*
X1173228D02*
D03*
X1204724Y666985D02*
D03*
X1255906D02*
D03*
X1696850Y247172D02*
D03*
X1748032D02*
D03*
X1641947Y678253D02*
D03*
X1693128D02*
D03*
X1204724Y619488D02*
D03*
X1255906D02*
D03*
X456110Y550484D02*
D03*
X507291D02*
D03*
X456110Y504381D02*
D03*
X507291D02*
D03*
X456110Y458278D02*
D03*
X507291D02*
D03*
X456110Y412175D02*
D03*
X507291D02*
D03*
X456110Y366072D02*
D03*
X507291D02*
D03*
X1204724Y712087D02*
D03*
X1255906D02*
D03*
D11*
X374016Y619488D02*
D03*
Y566339D02*
D03*
X1133858Y450570D02*
D03*
Y397420D02*
D03*
X1183071Y450570D02*
D03*
Y397420D02*
D03*
X1232284Y450570D02*
D03*
Y397420D02*
D03*
X1535433Y254921D02*
D03*
Y308071D02*
D03*
X1377953Y308069D02*
D03*
Y254920D02*
D03*
X1643701Y404528D02*
D03*
Y457677D02*
D03*
X1801181Y453737D02*
D03*
Y400588D02*
D03*
D12*
X1641732Y249792D02*
D03*
Y300973D02*
D03*
X1018720Y527949D02*
D03*
Y476767D02*
D03*
X971869Y580610D02*
D03*
Y529429D02*
D03*
D13*
X1859252Y454253D02*
D03*
D14*
X1919291Y396182D02*
D03*
Y512324D02*
D03*
D15*
X305120Y337008D02*
D03*
Y368504D02*
D03*
Y561417D02*
D03*
Y592913D02*
D03*
D16*
Y474803D02*
D03*
Y494488D02*
D03*
Y514173D02*
D03*
Y533858D02*
D03*
Y396063D02*
D03*
Y415748D02*
D03*
Y435433D02*
D03*
Y455118D02*
D03*
D17*
X1749016Y297172D02*
D03*
X1695866D02*
D03*
X1694112Y629788D02*
D03*
X1640963D02*
D03*
X1749016Y455118D02*
D03*
X1695866D02*
D03*
X1087898Y349606D02*
D03*
X1034748D02*
D03*
X871595Y348327D02*
D03*
X924744D02*
D03*
X873031Y397358D02*
D03*
X926181D02*
D03*
X912402Y590452D02*
D03*
X859252D02*
D03*
D18*
X1543307Y435552D02*
D03*
Y455237D02*
D03*
Y474922D02*
D03*
Y494607D02*
D03*
Y514292D02*
D03*
Y533977D02*
D03*
Y553663D02*
D03*
Y573347D02*
D03*
X1350394D02*
D03*
Y553663D02*
D03*
Y533977D02*
D03*
Y514292D02*
D03*
Y494607D02*
D03*
Y474922D02*
D03*
Y455237D02*
D03*
Y435552D02*
D03*
D19*
X1515748Y600907D02*
D03*
X1496063D02*
D03*
X1476378D02*
D03*
X1456693D02*
D03*
X1437008D02*
D03*
X1417323D02*
D03*
X1397638D02*
D03*
X1377953D02*
D03*
Y407993D02*
D03*
X1397638D02*
D03*
X1417323D02*
D03*
X1437008D02*
D03*
X1456693D02*
D03*
X1476378D02*
D03*
X1496063D02*
D03*
X1515748D02*
D03*
D20*
X1446850Y504450D02*
D03*
D21*
X1485236Y310816D02*
D03*
Y265540D02*
D03*
X1428150D02*
D03*
Y310816D02*
D03*
D22*
X925197Y461925D02*
D03*
X905512D02*
D03*
X885827D02*
D03*
Y520193D02*
D03*
X905512D02*
D03*
X925197D02*
D03*
D30*
X1761323Y864567D02*
D03*
X1661323D02*
D03*
X1561323D02*
D03*
X1461323D02*
D03*
X1361323D02*
D03*
X1261323D02*
D03*
X1161323D02*
D03*
X1061323D02*
D03*
X961323D02*
D03*
X861323D02*
D03*
X761323D02*
D03*
X661323D02*
D03*
X1761323Y64567D02*
D03*
X1661323D02*
D03*
X1561323D02*
D03*
X1461323D02*
D03*
X1361323D02*
D03*
X1261323D02*
D03*
X1161323D02*
D03*
X1061323D02*
D03*
X961323D02*
D03*
X861323D02*
D03*
X761323D02*
D03*
X661323D02*
D03*
X561323D02*
D03*
X461323D02*
D03*
X361323D02*
D03*
D31*
X261323D02*
D03*
D32*
X111323Y114567D02*
D03*
Y814567D02*
D03*
D33*
X1911323Y839567D02*
D03*
Y89567D02*
D03*
D34*
X104529Y294882D02*
D03*
Y635039D02*
D03*
D35*
X269096Y294882D02*
D03*
Y635039D02*
D03*
D36*
X248230Y351181D02*
D03*
Y578740D02*
D03*
%TF.MD5,212548ebbdfe899ba2f2d36764e5aa16*%
M02*
