%TF.GenerationSoftware,Altium Limited,Altium Designer,18.1.7 (191)*%
G04 Layer_Physical_Order=1*
G04 Layer_Color=16711833*
%FSLAX26Y26*%
%MOIN*%
%TF.FileFunction,Copper,L1,Top,Signal*%
%TF.Part,Single*%
G01*
G75*
%TA.AperFunction,SMDPad,CuDef*%
%ADD10R,0.031496X0.035433*%
%ADD11R,0.031496X0.029528*%
%ADD12R,0.035433X0.031496*%
%ADD13R,0.041339X0.039370*%
%ADD14R,0.086614X0.041339*%
%TA.AperFunction,ConnectorPad*%
%ADD15R,0.057087X0.023622*%
%ADD16R,0.057087X0.011811*%
%TA.AperFunction,SMDPad,CuDef*%
%ADD17R,0.029528X0.031496*%
%ADD18R,0.031496X0.010630*%
%ADD19R,0.010630X0.031496*%
%ADD20R,0.145669X0.145669*%
%ADD21R,0.037402X0.033465*%
%ADD22R,0.011811X0.026378*%
%TA.AperFunction,Conductor*%
%ADD23C,0.008000*%
%ADD24C,0.006000*%
%ADD25C,0.020000*%
%ADD26C,0.019685*%
%ADD27C,0.011811*%
%ADD28C,0.039370*%
%TA.AperFunction,NonConductor*%
%ADD29C,0.005000*%
%TA.AperFunction,ComponentPad*%
%ADD30C,0.059370*%
%ADD31R,0.059370X0.059370*%
%ADD32C,0.140000*%
%ADD33C,0.090000*%
%ADD34O,0.062992X0.039370*%
%ADD35O,0.082677X0.039370*%
%ADD36C,0.025591*%
%TA.AperFunction,ViaPad*%
%ADD37C,0.023622*%
G36*
X2027559Y917720D02*
X2027559Y0D01*
X0D01*
Y916803D01*
X2024019Y921252D01*
X2027559Y917720D01*
D02*
G37*
%LPC*%
G36*
X1766323Y903936D02*
Y869567D01*
X1800692D01*
X1799986Y874927D01*
X1795987Y884581D01*
X1789626Y892870D01*
X1781336Y899232D01*
X1771683Y903230D01*
X1766323Y903936D01*
D02*
G37*
G36*
X1666323D02*
Y869567D01*
X1700692D01*
X1699986Y874927D01*
X1695987Y884581D01*
X1689626Y892870D01*
X1681336Y899232D01*
X1671683Y903230D01*
X1666323Y903936D01*
D02*
G37*
G36*
X1566323D02*
Y869567D01*
X1600692D01*
X1599986Y874927D01*
X1595987Y884581D01*
X1589626Y892870D01*
X1581336Y899232D01*
X1571683Y903230D01*
X1566323Y903936D01*
D02*
G37*
G36*
X1266323D02*
Y869567D01*
X1300692D01*
X1299986Y874927D01*
X1295987Y884581D01*
X1289626Y892870D01*
X1281336Y899232D01*
X1271683Y903230D01*
X1266323Y903936D01*
D02*
G37*
G36*
X1166323D02*
Y869567D01*
X1200692D01*
X1199986Y874927D01*
X1195987Y884581D01*
X1189626Y892870D01*
X1181336Y899232D01*
X1171683Y903230D01*
X1166323Y903936D01*
D02*
G37*
G36*
X1066323D02*
Y869567D01*
X1100692D01*
X1099986Y874927D01*
X1095987Y884581D01*
X1089626Y892870D01*
X1081336Y899232D01*
X1071683Y903230D01*
X1066323Y903936D01*
D02*
G37*
G36*
X966323D02*
Y869567D01*
X1000692D01*
X999986Y874927D01*
X995987Y884581D01*
X989626Y892870D01*
X981337Y899232D01*
X971683Y903230D01*
X966323Y903936D01*
D02*
G37*
G36*
X666323D02*
Y869567D01*
X700692D01*
X699986Y874927D01*
X695987Y884581D01*
X689626Y892870D01*
X681337Y899232D01*
X671683Y903230D01*
X666323Y903936D01*
D02*
G37*
G36*
X1756323D02*
X1750963Y903230D01*
X1741309Y899232D01*
X1733019Y892870D01*
X1726658Y884581D01*
X1722659Y874927D01*
X1721954Y869567D01*
X1756323D01*
Y903936D01*
D02*
G37*
G36*
X656323D02*
X650963Y903230D01*
X641309Y899232D01*
X633019Y892870D01*
X626658Y884581D01*
X622659Y874927D01*
X621954Y869567D01*
X656323D01*
Y903936D01*
D02*
G37*
G36*
X1656323D02*
X1650963Y903230D01*
X1641309Y899232D01*
X1633019Y892870D01*
X1626658Y884581D01*
X1622659Y874927D01*
X1621954Y869567D01*
X1656323D01*
Y903936D01*
D02*
G37*
G36*
X1556323D02*
X1550963Y903230D01*
X1541309Y899232D01*
X1533019Y892870D01*
X1526658Y884581D01*
X1522659Y874927D01*
X1521954Y869567D01*
X1556323D01*
Y903936D01*
D02*
G37*
G36*
X1256323D02*
X1250963Y903230D01*
X1241309Y899232D01*
X1233019Y892870D01*
X1226658Y884581D01*
X1222659Y874927D01*
X1221954Y869567D01*
X1256323D01*
Y903936D01*
D02*
G37*
G36*
X1156323D02*
X1150963Y903230D01*
X1141309Y899232D01*
X1133019Y892870D01*
X1126658Y884581D01*
X1122659Y874927D01*
X1121954Y869567D01*
X1156323D01*
Y903936D01*
D02*
G37*
G36*
X1056323D02*
X1050963Y903230D01*
X1041309Y899232D01*
X1033019Y892870D01*
X1026658Y884581D01*
X1022659Y874927D01*
X1021954Y869567D01*
X1056323D01*
Y903936D01*
D02*
G37*
G36*
X956323D02*
X950963Y903230D01*
X941309Y899232D01*
X933019Y892870D01*
X926658Y884581D01*
X922659Y874927D01*
X921954Y869567D01*
X956323D01*
Y903936D01*
D02*
G37*
G36*
X1461323Y898038D02*
X1452660Y896898D01*
X1444587Y893554D01*
X1437655Y888235D01*
X1432336Y881303D01*
X1428992Y873230D01*
X1427851Y864567D01*
X1428992Y855904D01*
X1432336Y847831D01*
X1433586Y846202D01*
X1403578Y816194D01*
X1353386D01*
X1350850Y815690D01*
X1348700Y814253D01*
X1267750Y733303D01*
X1236942D01*
Y741349D01*
X1336563Y840971D01*
X1337655Y840899D01*
X1344587Y835580D01*
X1352660Y832236D01*
X1361323Y831096D01*
X1369986Y832236D01*
X1378059Y835580D01*
X1384991Y840899D01*
X1390310Y847831D01*
X1393654Y855904D01*
X1394794Y864567D01*
X1393654Y873230D01*
X1390310Y881303D01*
X1384991Y888235D01*
X1378059Y893554D01*
X1369986Y896898D01*
X1361323Y898038D01*
X1352660Y896898D01*
X1344587Y893554D01*
X1337655Y888235D01*
X1332336Y881303D01*
X1328992Y873230D01*
X1327851Y864567D01*
X1328992Y855904D01*
X1330093Y853245D01*
X1225629Y748781D01*
X1224192Y746631D01*
X1223688Y744095D01*
Y739803D01*
X1209724D01*
Y712087D01*
X1204724D01*
Y707087D01*
X1178976D01*
Y684370D01*
X1185476D01*
Y645768D01*
X1197078D01*
Y640705D01*
X1185476D01*
Y620817D01*
X1180476Y617852D01*
X1176102Y618722D01*
X1170128Y617533D01*
X1165064Y614149D01*
X1161680Y609085D01*
X1160491Y603111D01*
X1161680Y597137D01*
X1165064Y592072D01*
X1170128Y588688D01*
X1176102Y587500D01*
X1182076Y588688D01*
X1187141Y592072D01*
X1189570Y595707D01*
X1191273Y596046D01*
X1193754Y597703D01*
X1194322Y598272D01*
X1223972D01*
Y640705D01*
X1212371D01*
Y645768D01*
X1223972D01*
Y684370D01*
X1229148D01*
X1236658Y676860D01*
Y645768D01*
X1275153D01*
Y645768D01*
X1275206Y645761D01*
Y645683D01*
X1270209Y640705D01*
X1236658D01*
Y598272D01*
X1267750D01*
X1296522Y569499D01*
Y474808D01*
X1291522Y472135D01*
X1288038Y474463D01*
X1284528Y475162D01*
Y453918D01*
Y432674D01*
X1288038Y433372D01*
X1291522Y435701D01*
X1296522Y433028D01*
Y375065D01*
X1233203Y311745D01*
X1154730D01*
X1152194Y311241D01*
X1150044Y309804D01*
X1142937Y302697D01*
X1141500Y300547D01*
X1140995Y298011D01*
Y293513D01*
X1129694D01*
Y303091D01*
X1139265Y312662D01*
X1139265Y312662D01*
X1140923Y315143D01*
X1141505Y318069D01*
X1141505Y318070D01*
Y335842D01*
X1171786D01*
X1175128Y333609D01*
X1181102Y332421D01*
X1187076Y333609D01*
X1188062Y334267D01*
X1225324D01*
X1226309Y333609D01*
X1232284Y332421D01*
X1238258Y333609D01*
X1243322Y336993D01*
X1246706Y342057D01*
X1247895Y348031D01*
X1246706Y354006D01*
X1246048Y354991D01*
Y379156D01*
X1251532D01*
Y415684D01*
X1213035D01*
Y379156D01*
X1218519D01*
Y361796D01*
X1196835D01*
Y379156D01*
X1202319D01*
Y415684D01*
X1163823D01*
Y379156D01*
X1169306D01*
Y363371D01*
X1147623D01*
Y379156D01*
X1153106D01*
Y415684D01*
X1114610D01*
Y379156D01*
X1120094D01*
Y363371D01*
X1106161D01*
Y368854D01*
X1069634D01*
Y330358D01*
X1106161D01*
Y335842D01*
X1126211D01*
Y321237D01*
X1116640Y311665D01*
X1114982Y309184D01*
X1114400Y306258D01*
Y293513D01*
X1102799D01*
Y251080D01*
X1140995D01*
Y153612D01*
X1079688Y92304D01*
X1078059Y93554D01*
X1069986Y96898D01*
X1061323Y98038D01*
X1052660Y96898D01*
X1044587Y93554D01*
X1037655Y88235D01*
X1032336Y81303D01*
X1028992Y73230D01*
X1027851Y64567D01*
X1028992Y55904D01*
X1032336Y47831D01*
X1037655Y40899D01*
X1044587Y35580D01*
X1045385Y35249D01*
X1044390Y30249D01*
X1005013D01*
X989060Y46202D01*
X990310Y47831D01*
X993654Y55904D01*
X994794Y64567D01*
X993654Y73230D01*
X990310Y81303D01*
X984991Y88235D01*
X978058Y93554D01*
X969986Y96898D01*
X961323Y98038D01*
X952660Y96898D01*
X944587Y93554D01*
X937655Y88235D01*
X932336Y81303D01*
X928992Y73230D01*
X927851Y64567D01*
X928992Y55904D01*
X932336Y47831D01*
X937655Y40899D01*
X944587Y35580D01*
X952660Y32236D01*
X961323Y31096D01*
X969986Y32236D01*
X978058Y35580D01*
X979688Y36830D01*
X997582Y18936D01*
X999731Y17499D01*
X1002268Y16995D01*
X1695474D01*
X1698011Y17499D01*
X1700161Y18936D01*
X1713348Y32123D01*
X1714784Y34273D01*
X1715289Y36809D01*
Y78740D01*
X1714784Y81276D01*
X1713348Y83426D01*
X1703478Y93296D01*
Y225955D01*
X1716098D01*
Y268388D01*
X1702493D01*
Y277924D01*
X1714130D01*
Y316420D01*
X1687280D01*
X1628555Y375144D01*
X1630468Y379764D01*
X1638701D01*
Y404528D01*
X1643701D01*
Y409528D01*
X1669449D01*
Y429291D01*
X1673543Y431479D01*
X1695866D01*
X1704912Y433278D01*
X1708791Y435870D01*
X1714130D01*
Y440720D01*
X1717706Y446072D01*
X1719505Y455118D01*
X1717706Y464164D01*
X1714130Y469516D01*
Y474366D01*
X1708791D01*
X1704912Y476958D01*
X1695866Y478757D01*
X1584647D01*
X1580576Y477947D01*
X1576536Y482242D01*
X1576544Y482284D01*
Y490652D01*
X1582888Y496996D01*
X1586889Y496200D01*
X1592863Y497388D01*
X1597928Y500772D01*
X1601312Y505837D01*
X1602500Y511811D01*
X1601312Y517785D01*
X1597928Y522850D01*
X1592863Y526234D01*
X1586889Y527422D01*
X1580915Y526234D01*
X1575850Y522850D01*
X1572466Y517785D01*
X1571278Y511811D01*
X1572074Y507810D01*
X1567555Y503292D01*
X1564964Y503359D01*
X1562555Y505478D01*
Y523107D01*
X1562555D01*
Y525163D01*
X1562555D01*
Y542792D01*
X1562555Y542792D01*
X1564383Y547035D01*
X1574384D01*
X1576920Y547540D01*
X1579070Y548976D01*
X1640634Y610540D01*
X1659227D01*
Y649036D01*
X1647590D01*
Y657036D01*
X1661195D01*
Y699469D01*
X1661195D01*
X1661267Y704440D01*
X1673808D01*
X1673880Y699469D01*
X1673880D01*
X1673880Y657037D01*
X1669502Y655536D01*
X1669349D01*
Y634788D01*
X1694112D01*
X1718876D01*
Y655536D01*
X1716755D01*
X1712376Y657037D01*
X1712376Y660536D01*
Y699469D01*
X1700211D01*
X1700193Y699562D01*
X1698535Y702043D01*
X1698535Y702043D01*
X1683084Y717494D01*
X1680603Y719151D01*
X1677677Y719734D01*
X1556575D01*
X1553648Y719151D01*
X1551168Y717494D01*
X1503213Y669540D01*
X1499213Y670335D01*
X1493238Y669147D01*
X1488174Y665763D01*
X1484790Y660698D01*
X1483602Y654724D01*
X1484790Y648750D01*
X1485735Y647336D01*
X1470971Y632572D01*
X1469313Y630092D01*
X1468986Y628445D01*
X1466019Y626036D01*
X1464215Y625285D01*
X1463320Y625640D01*
Y634045D01*
X1467732Y636993D01*
X1471116Y642057D01*
X1472304Y648032D01*
X1471116Y654006D01*
X1467732Y659070D01*
X1462667Y662454D01*
X1456693Y663643D01*
X1450719Y662454D01*
X1445654Y659070D01*
X1442270Y654006D01*
X1441762Y651453D01*
X1436337Y649807D01*
X1358375Y727769D01*
X1356225Y729206D01*
X1353689Y729710D01*
X1293949D01*
X1291413Y729206D01*
X1289263Y727769D01*
X1283164Y721670D01*
X1282137Y721874D01*
X1280491Y727300D01*
X1356131Y802940D01*
X1406323D01*
X1408859Y803444D01*
X1411009Y804881D01*
X1442958Y836830D01*
X1444587Y835580D01*
X1452660Y832236D01*
X1461323Y831096D01*
X1469986Y832236D01*
X1478059Y835580D01*
X1484991Y840899D01*
X1490310Y847831D01*
X1493654Y855904D01*
X1494794Y864567D01*
X1493654Y873230D01*
X1490310Y881303D01*
X1484991Y888235D01*
X1478059Y893554D01*
X1469986Y896898D01*
X1461323Y898038D01*
D02*
G37*
G36*
X761323D02*
X752660Y896898D01*
X744587Y893554D01*
X737655Y888235D01*
X732336Y881303D01*
X728992Y873230D01*
X727851Y864567D01*
X728992Y855904D01*
X732336Y847831D01*
X737655Y840899D01*
X744587Y835580D01*
X752660Y832236D01*
X761323Y831096D01*
X769986Y832236D01*
X778058Y835580D01*
X784991Y840899D01*
X790310Y847831D01*
X793654Y855904D01*
X794794Y864567D01*
X793654Y873230D01*
X790310Y881303D01*
X784991Y888235D01*
X778058Y893554D01*
X769986Y896898D01*
X761323Y898038D01*
D02*
G37*
G36*
X1700692Y859567D02*
X1666323D01*
Y825198D01*
X1671683Y825903D01*
X1681336Y829902D01*
X1689626Y836263D01*
X1695987Y844553D01*
X1699986Y854207D01*
X1700692Y859567D01*
D02*
G37*
G36*
X1600692D02*
X1566323D01*
Y825198D01*
X1571683Y825903D01*
X1581336Y829902D01*
X1589626Y836263D01*
X1595987Y844553D01*
X1599986Y854207D01*
X1600692Y859567D01*
D02*
G37*
G36*
X1200692D02*
X1166323D01*
Y825198D01*
X1171683Y825903D01*
X1181336Y829902D01*
X1189626Y836263D01*
X1195987Y844553D01*
X1199986Y854207D01*
X1200692Y859567D01*
D02*
G37*
G36*
X1100692D02*
X1066323D01*
Y825198D01*
X1071683Y825903D01*
X1081336Y829902D01*
X1089626Y836263D01*
X1095987Y844553D01*
X1099986Y854207D01*
X1100692Y859567D01*
D02*
G37*
G36*
X1000692D02*
X966323D01*
Y825198D01*
X971683Y825903D01*
X981337Y829902D01*
X989626Y836263D01*
X995987Y844553D01*
X999986Y854207D01*
X1000692Y859567D01*
D02*
G37*
G36*
X700692D02*
X666323D01*
Y825198D01*
X671683Y825903D01*
X681337Y829902D01*
X689626Y836263D01*
X695987Y844553D01*
X699986Y854207D01*
X700692Y859567D01*
D02*
G37*
G36*
X1800692D02*
X1766323D01*
Y825198D01*
X1771683Y825903D01*
X1781336Y829902D01*
X1789626Y836263D01*
X1795987Y844553D01*
X1799986Y854207D01*
X1800692Y859567D01*
D02*
G37*
G36*
X1300692D02*
X1266323D01*
Y825198D01*
X1271683Y825903D01*
X1281336Y829902D01*
X1289626Y836263D01*
X1295987Y844553D01*
X1299986Y854207D01*
X1300692Y859567D01*
D02*
G37*
G36*
X1756323D02*
X1721954D01*
X1722659Y854207D01*
X1726658Y844553D01*
X1733019Y836263D01*
X1741309Y829902D01*
X1750963Y825903D01*
X1756323Y825198D01*
Y859567D01*
D02*
G37*
G36*
X1656323D02*
X1621954D01*
X1622659Y854207D01*
X1626658Y844553D01*
X1633019Y836263D01*
X1641309Y829902D01*
X1650963Y825903D01*
X1656323Y825198D01*
Y859567D01*
D02*
G37*
G36*
X1556323D02*
X1521954D01*
X1522659Y854207D01*
X1526658Y844553D01*
X1533019Y836263D01*
X1541309Y829902D01*
X1550963Y825903D01*
X1556323Y825198D01*
Y859567D01*
D02*
G37*
G36*
X1256323D02*
X1221954D01*
X1222659Y854207D01*
X1226658Y844553D01*
X1233019Y836263D01*
X1241309Y829902D01*
X1250963Y825903D01*
X1256323Y825198D01*
Y859567D01*
D02*
G37*
G36*
X1156323D02*
X1121954D01*
X1122659Y854207D01*
X1126658Y844553D01*
X1133019Y836263D01*
X1141309Y829902D01*
X1150963Y825903D01*
X1156323Y825198D01*
Y859567D01*
D02*
G37*
G36*
X1056323D02*
X1021954D01*
X1022659Y854207D01*
X1026658Y844553D01*
X1033019Y836263D01*
X1041309Y829902D01*
X1050963Y825903D01*
X1056323Y825198D01*
Y859567D01*
D02*
G37*
G36*
X956323D02*
X921954D01*
X922659Y854207D01*
X926658Y844553D01*
X933019Y836263D01*
X941309Y829902D01*
X950963Y825903D01*
X956323Y825198D01*
Y859567D01*
D02*
G37*
G36*
X656323D02*
X621954D01*
X622659Y854207D01*
X626658Y844553D01*
X633019Y836263D01*
X641309Y829902D01*
X650963Y825903D01*
X656323Y825198D01*
Y859567D01*
D02*
G37*
G36*
X1911323Y888485D02*
X1898662Y886818D01*
X1886864Y881932D01*
X1876732Y874158D01*
X1868958Y864026D01*
X1864071Y852228D01*
X1862404Y839567D01*
X1864071Y826906D01*
X1868958Y815108D01*
X1876732Y804976D01*
X1886864Y797202D01*
X1898662Y792315D01*
X1911323Y790648D01*
X1923984Y792315D01*
X1935782Y797202D01*
X1945913Y804976D01*
X1953688Y815108D01*
X1958574Y826906D01*
X1960241Y839567D01*
X1958574Y852228D01*
X1953688Y864026D01*
X1945913Y874158D01*
X1935782Y881932D01*
X1923984Y886818D01*
X1911323Y888485D01*
D02*
G37*
G36*
X1983347Y777543D02*
Y761299D01*
X1999590D01*
X1998892Y764809D01*
X1994071Y772024D01*
X1986857Y776845D01*
X1983347Y777543D01*
D02*
G37*
G36*
X1973347D02*
X1969836Y776845D01*
X1962622Y772024D01*
X1957801Y764809D01*
X1957103Y761299D01*
X1973347D01*
Y777543D01*
D02*
G37*
G36*
X111323Y888423D02*
X96914Y887003D01*
X83059Y882801D01*
X70291Y875976D01*
X59099Y866791D01*
X49914Y855599D01*
X43089Y842830D01*
X38886Y828975D01*
X37467Y814567D01*
X38886Y800158D01*
X43089Y786304D01*
X49914Y773535D01*
X59099Y762343D01*
X70291Y753158D01*
X83059Y746333D01*
X96914Y742130D01*
X111323Y740711D01*
X125731Y742130D01*
X139586Y746333D01*
X152355Y753158D01*
X163547Y762343D01*
X172732Y773535D01*
X179556Y786304D01*
X183759Y800158D01*
X185178Y814567D01*
X183759Y828975D01*
X179556Y842830D01*
X172732Y855599D01*
X163547Y866791D01*
X152355Y875976D01*
X139586Y882801D01*
X125731Y887003D01*
X111323Y888423D01*
D02*
G37*
G36*
X1999590Y751299D02*
X1983347D01*
Y735056D01*
X1986857Y735754D01*
X1994071Y740574D01*
X1998892Y747789D01*
X1999590Y751299D01*
D02*
G37*
G36*
X1973347D02*
X1957103D01*
X1957801Y747789D01*
X1962622Y740574D01*
X1969836Y735754D01*
X1973347Y735056D01*
Y751299D01*
D02*
G37*
G36*
X1199724Y739803D02*
X1178976D01*
Y717087D01*
X1199724D01*
Y739803D01*
D02*
G37*
G36*
X1983347Y726755D02*
Y710512D01*
X1999590D01*
X1998892Y714022D01*
X1994072Y721237D01*
X1986857Y726057D01*
X1983347Y726755D01*
D02*
G37*
G36*
X1973347D02*
X1969836Y726057D01*
X1962622Y721237D01*
X1957801Y714022D01*
X1957103Y710512D01*
X1973347D01*
Y726755D01*
D02*
G37*
G36*
X379016Y689942D02*
Y673698D01*
X395259D01*
X394561Y677208D01*
X389741Y684423D01*
X382526Y689243D01*
X379016Y689942D01*
D02*
G37*
G36*
X369016D02*
X365505Y689243D01*
X358291Y684423D01*
X353470Y677208D01*
X352772Y673698D01*
X369016D01*
Y689942D01*
D02*
G37*
G36*
X1999590Y700512D02*
X1957103D01*
X1957801Y697002D01*
X1962622Y689787D01*
X1969836Y684966D01*
X1974430Y684053D01*
Y678955D01*
X1969836Y678041D01*
X1962622Y673220D01*
X1957801Y666005D01*
X1957103Y662495D01*
X1999590D01*
X1998892Y666005D01*
X1994072Y673220D01*
X1986857Y678041D01*
X1982263Y678955D01*
Y684053D01*
X1986857Y684966D01*
X1994072Y689787D01*
X1998892Y697002D01*
X1999590Y700512D01*
D02*
G37*
G36*
X290750Y664981D02*
X274096D01*
Y640039D01*
X320033D01*
X319671Y642789D01*
X316680Y650010D01*
X311922Y656211D01*
X305721Y660969D01*
X298499Y663960D01*
X290750Y664981D01*
D02*
G37*
G36*
X116340D02*
X109529D01*
Y640039D01*
X145623D01*
X145261Y642789D01*
X142270Y650010D01*
X137512Y656211D01*
X131311Y660969D01*
X124090Y663960D01*
X116340Y664981D01*
D02*
G37*
G36*
X99529D02*
X92718D01*
X84969Y663960D01*
X77748Y660969D01*
X71547Y656211D01*
X66789Y650010D01*
X63797Y642789D01*
X63435Y640039D01*
X99529D01*
Y664981D01*
D02*
G37*
G36*
X264096D02*
X247443D01*
X239693Y663960D01*
X232472Y660969D01*
X226271Y656211D01*
X221513Y650010D01*
X218522Y642789D01*
X218160Y640039D01*
X264096D01*
Y664981D01*
D02*
G37*
G36*
X1999590Y652495D02*
X1957103D01*
X1957801Y648985D01*
X1962622Y641770D01*
X1969836Y636950D01*
X1974744Y635974D01*
Y630876D01*
X1969836Y629899D01*
X1962622Y625079D01*
X1957801Y617864D01*
X1957103Y614354D01*
X1999590D01*
X1998892Y617864D01*
X1994072Y625079D01*
X1986857Y629899D01*
X1981949Y630876D01*
Y635974D01*
X1986857Y636950D01*
X1994072Y641770D01*
X1998892Y648985D01*
X1999590Y652495D01*
D02*
G37*
G36*
X861323Y898038D02*
X852660Y896898D01*
X844587Y893554D01*
X837655Y888235D01*
X832336Y881303D01*
X828992Y873230D01*
X827851Y864567D01*
X828992Y855904D01*
X832336Y847831D01*
X837655Y840899D01*
X844587Y835580D01*
X845648Y835140D01*
Y609701D01*
X840988D01*
Y606519D01*
X761323D01*
X758614Y605980D01*
X755905Y606519D01*
X435435D01*
X430229Y605483D01*
X425815Y602534D01*
X403223Y579942D01*
X393264D01*
Y584602D01*
X354768D01*
Y575021D01*
X343663D01*
Y593769D01*
X348268Y594724D01*
Y594724D01*
X369016D01*
Y619488D01*
X374016D01*
Y624488D01*
X399764D01*
Y644252D01*
X385688D01*
X384172Y649252D01*
X389741Y652973D01*
X394561Y660188D01*
X395259Y663698D01*
X352772D01*
X353470Y660188D01*
X358291Y652973D01*
X363860Y649252D01*
X362343Y644252D01*
X348268D01*
Y633092D01*
X344488D01*
X339282Y632057D01*
X334869Y629108D01*
X322710Y616948D01*
X320699Y617219D01*
X320274Y617520D01*
X317753Y622659D01*
X319671Y627290D01*
X320033Y630039D01*
X269096D01*
X218160D01*
X218522Y627290D01*
X221221Y620774D01*
X197073Y596627D01*
X194125Y592214D01*
X193089Y587008D01*
Y334646D01*
X194125Y329440D01*
X197073Y325026D01*
X218799Y303301D01*
X218522Y302631D01*
X218160Y299882D01*
X269096D01*
X320033D01*
X319671Y302631D01*
X316680Y309853D01*
X316020Y310712D01*
X318231Y315197D01*
X343663D01*
Y332008D01*
X305120D01*
Y342008D01*
X343663D01*
Y358819D01*
X337163D01*
Y381658D01*
X337163Y383815D01*
X337163D01*
Y384436D01*
X341013Y389436D01*
X392924D01*
X420974Y361386D01*
X423124Y359949D01*
X425660Y359445D01*
X436862D01*
Y344856D01*
X475358D01*
Y387288D01*
X475358D01*
Y390959D01*
X475358D01*
Y433391D01*
X475358D01*
Y437062D01*
X475358D01*
Y479494D01*
X475358D01*
Y483164D01*
X475358D01*
Y525597D01*
X475358D01*
Y529267D01*
X475358D01*
Y571700D01*
X442444D01*
X440255Y576587D01*
X442381Y579311D01*
X747719D01*
Y94851D01*
X744587Y93554D01*
X737655Y88235D01*
X732336Y81303D01*
X728992Y73230D01*
X727851Y64567D01*
X728992Y55904D01*
X732336Y47831D01*
X737655Y40899D01*
X744587Y35580D01*
X752660Y32236D01*
X761323Y31096D01*
X769986Y32236D01*
X778058Y35580D01*
X784991Y40899D01*
X790310Y47831D01*
X791607Y50963D01*
X831038D01*
X832336Y47831D01*
X837655Y40899D01*
X844587Y35580D01*
X852660Y32236D01*
X861323Y31096D01*
X869986Y32236D01*
X878058Y35580D01*
X884991Y40899D01*
X890310Y47831D01*
X893654Y55904D01*
X894794Y64567D01*
X893654Y73230D01*
X890310Y81303D01*
X884991Y88235D01*
X878058Y93554D01*
X869986Y96898D01*
X861323Y98038D01*
X852660Y96898D01*
X844587Y93554D01*
X837655Y88235D01*
X832336Y81303D01*
X831038Y78171D01*
X791607D01*
X790310Y81303D01*
X784991Y88235D01*
X778058Y93554D01*
X774927Y94851D01*
Y579311D01*
X840988D01*
Y571205D01*
X845648D01*
Y546768D01*
X846683Y541562D01*
X849633Y537148D01*
X869253Y517528D01*
X869758Y514987D01*
X872707Y510573D01*
X876237Y508215D01*
Y502766D01*
X876967Y499096D01*
X879046Y495985D01*
X891417Y483614D01*
X889345Y478614D01*
X876421D01*
Y462851D01*
X876237Y461925D01*
Y435287D01*
X866250Y425300D01*
X864172Y422189D01*
X863442Y418519D01*
Y416606D01*
X854768D01*
Y379075D01*
X854768Y378110D01*
X852439Y374075D01*
X846831D01*
Y353327D01*
X871595D01*
X896359D01*
Y374075D01*
X893624D01*
X891295Y378110D01*
X891295Y379075D01*
Y416606D01*
X891213D01*
X889299Y421226D01*
X892608Y424534D01*
X894687Y427645D01*
X895417Y431315D01*
Y440522D01*
X896106Y445236D01*
X900417Y445236D01*
X914917Y445236D01*
X919917Y445236D01*
X934602D01*
Y478614D01*
X916731Y478614D01*
X915102Y483081D01*
X915056Y483309D01*
X914372Y486750D01*
X912293Y489862D01*
X909770Y492384D01*
X911684Y497004D01*
X921417D01*
Y503504D01*
X934602D01*
Y522802D01*
X950653D01*
Y510181D01*
X993086D01*
Y510181D01*
X997503Y508774D01*
Y508701D01*
X1039936D01*
Y547197D01*
X997503D01*
Y547197D01*
X993086Y548603D01*
Y548677D01*
X950653D01*
Y536056D01*
X934602D01*
Y536882D01*
X921417D01*
Y543382D01*
X919116D01*
Y564705D01*
X937165D01*
Y585452D01*
X912402D01*
X887638D01*
Y564705D01*
X891908D01*
Y543382D01*
X889606D01*
Y542723D01*
X884606Y540652D01*
X872856Y552402D01*
Y571205D01*
X877516D01*
Y609701D01*
X872856D01*
Y833425D01*
X878058Y835580D01*
X884991Y840899D01*
X890310Y847831D01*
X893654Y855904D01*
X894794Y864567D01*
X893654Y873230D01*
X890310Y881303D01*
X884991Y888235D01*
X878058Y893554D01*
X869986Y896898D01*
X861323Y898038D01*
D02*
G37*
G36*
X145623Y630039D02*
X109529D01*
Y605098D01*
X116340D01*
X124090Y606118D01*
X131311Y609110D01*
X137512Y613868D01*
X142270Y620069D01*
X145261Y627290D01*
X145623Y630039D01*
D02*
G37*
G36*
X99529D02*
X63435D01*
X63797Y627290D01*
X66789Y620069D01*
X71547Y613868D01*
X77748Y609110D01*
X84969Y606118D01*
X92718Y605098D01*
X99529D01*
Y630039D01*
D02*
G37*
G36*
X1718876Y624788D02*
X1699112D01*
Y604040D01*
X1718876D01*
Y624788D01*
D02*
G37*
G36*
X1689112D02*
X1669349D01*
Y604040D01*
X1689112D01*
Y624788D01*
D02*
G37*
G36*
X937165Y616201D02*
X917402D01*
Y595452D01*
X937165D01*
Y616201D01*
D02*
G37*
G36*
X907402D02*
X887638D01*
Y595452D01*
X907402D01*
Y616201D01*
D02*
G37*
G36*
X399764Y614488D02*
X379016D01*
Y594724D01*
X399764D01*
Y614488D01*
D02*
G37*
G36*
X1999590Y604354D02*
X1983347D01*
Y588110D01*
X1986857Y588808D01*
X1994072Y593629D01*
X1998892Y600844D01*
X1999590Y604354D01*
D02*
G37*
G36*
X1973347D02*
X1957103D01*
X1957801Y600844D01*
X1962622Y593629D01*
X1969836Y588808D01*
X1973347Y588110D01*
Y604354D01*
D02*
G37*
G36*
X999586Y606358D02*
X976869D01*
Y585610D01*
X999586D01*
Y606358D01*
D02*
G37*
G36*
X966869D02*
X944153D01*
Y585610D01*
X966869D01*
Y606358D01*
D02*
G37*
G36*
X1914449Y593021D02*
Y576777D01*
X1930693D01*
X1929994Y580287D01*
X1925174Y587502D01*
X1917959Y592323D01*
X1914449Y593021D01*
D02*
G37*
G36*
X1904449D02*
X1900939Y592323D01*
X1893724Y587502D01*
X1888903Y580287D01*
X1888205Y576777D01*
X1904449D01*
Y593021D01*
D02*
G37*
G36*
X1865236Y593016D02*
Y576773D01*
X1881480D01*
X1880782Y580283D01*
X1875961Y587497D01*
X1868746Y592318D01*
X1865236Y593016D01*
D02*
G37*
G36*
X1855236D02*
X1851726Y592318D01*
X1844511Y587497D01*
X1839691Y580283D01*
X1838993Y576773D01*
X1855236D01*
Y593016D01*
D02*
G37*
G36*
X1645963Y575513D02*
Y559269D01*
X1662207D01*
X1661508Y562780D01*
X1656688Y569994D01*
X1649473Y574815D01*
X1645963Y575513D01*
D02*
G37*
G36*
X1635963D02*
X1632453Y574815D01*
X1625238Y569994D01*
X1620417Y562780D01*
X1619719Y559269D01*
X1635963D01*
Y575513D01*
D02*
G37*
G36*
X1816024Y573938D02*
Y557695D01*
X1832267D01*
X1831569Y561205D01*
X1826748Y568420D01*
X1819534Y573240D01*
X1816024Y573938D01*
D02*
G37*
G36*
X1806024D02*
X1802513Y573240D01*
X1795299Y568420D01*
X1790478Y561205D01*
X1789780Y557695D01*
X1806024D01*
Y573938D01*
D02*
G37*
G36*
X1754016D02*
Y557695D01*
X1770259D01*
X1769561Y561205D01*
X1764741Y568420D01*
X1757526Y573240D01*
X1754016Y573938D01*
D02*
G37*
G36*
X1744016D02*
X1740505Y573240D01*
X1733291Y568420D01*
X1728470Y561205D01*
X1727772Y557695D01*
X1744016D01*
Y573938D01*
D02*
G37*
G36*
X1695943D02*
Y557695D01*
X1712187D01*
X1711489Y561205D01*
X1706668Y568420D01*
X1699454Y573240D01*
X1695943Y573938D01*
D02*
G37*
G36*
X1685943D02*
X1682433Y573240D01*
X1675218Y568420D01*
X1670398Y561205D01*
X1669700Y557695D01*
X1685943D01*
Y573938D01*
D02*
G37*
G36*
X999586Y575610D02*
X976869D01*
Y554862D01*
X999586D01*
Y575610D01*
D02*
G37*
G36*
X966869D02*
X944153D01*
Y554862D01*
X966869D01*
Y575610D01*
D02*
G37*
G36*
X1930693Y566777D02*
X1914449D01*
Y550534D01*
X1917959Y551232D01*
X1925174Y556052D01*
X1929994Y563267D01*
X1930693Y566777D01*
D02*
G37*
G36*
X1904449D02*
X1888205D01*
X1888903Y563267D01*
X1893724Y556052D01*
X1900939Y551232D01*
X1904449Y550534D01*
Y566777D01*
D02*
G37*
G36*
X1881480Y566773D02*
X1865236D01*
Y550529D01*
X1868746Y551227D01*
X1875961Y556048D01*
X1880782Y563262D01*
X1881480Y566773D01*
D02*
G37*
G36*
X1855236D02*
X1838993D01*
X1839691Y563262D01*
X1844511Y556048D01*
X1851726Y551227D01*
X1855236Y550529D01*
Y566773D01*
D02*
G37*
G36*
X1662207Y549269D02*
X1645963D01*
Y533026D01*
X1649473Y533724D01*
X1656688Y538545D01*
X1661508Y545759D01*
X1662207Y549269D01*
D02*
G37*
G36*
X1635963D02*
X1619719D01*
X1620417Y545759D01*
X1625238Y538545D01*
X1632453Y533724D01*
X1635963Y533026D01*
Y549269D01*
D02*
G37*
G36*
X1832267Y547695D02*
X1816024D01*
Y531451D01*
X1819534Y532149D01*
X1826748Y536970D01*
X1831569Y544184D01*
X1832267Y547695D01*
D02*
G37*
G36*
X1806024D02*
X1789780D01*
X1790478Y544184D01*
X1795299Y536970D01*
X1802513Y532149D01*
X1806024Y531451D01*
Y547695D01*
D02*
G37*
G36*
X1770259D02*
X1754016D01*
Y531451D01*
X1757526Y532149D01*
X1764741Y536970D01*
X1769561Y544184D01*
X1770259Y547695D01*
D02*
G37*
G36*
X1744016D02*
X1727772D01*
X1728470Y544184D01*
X1733291Y536970D01*
X1740505Y532149D01*
X1744016Y531451D01*
Y547695D01*
D02*
G37*
G36*
X1712187D02*
X1695943D01*
Y531451D01*
X1699454Y532149D01*
X1706668Y536970D01*
X1711489Y544184D01*
X1712187Y547695D01*
D02*
G37*
G36*
X1685943D02*
X1669700D01*
X1670398Y544184D01*
X1675218Y536970D01*
X1682433Y532149D01*
X1685943Y531451D01*
Y547695D01*
D02*
G37*
G36*
X1972598Y542993D02*
X1924291D01*
Y517324D01*
X1972598D01*
Y542993D01*
D02*
G37*
G36*
X1914291D02*
X1865984D01*
Y517324D01*
X1914291D01*
Y542993D01*
D02*
G37*
G36*
X644764Y523416D02*
Y507172D01*
X661008D01*
X660309Y510682D01*
X655489Y517897D01*
X648274Y522718D01*
X644764Y523416D01*
D02*
G37*
G36*
X634764D02*
X631254Y522718D01*
X624039Y517897D01*
X619218Y510682D01*
X618520Y507172D01*
X634764D01*
Y523416D01*
D02*
G37*
G36*
X1972598Y507324D02*
X1919291D01*
X1865984D01*
Y487718D01*
X1859252D01*
Y482403D01*
X1856302Y477892D01*
X1753365D01*
X1749016Y478757D01*
X1739969Y476958D01*
X1736091Y474366D01*
X1730752D01*
Y469516D01*
X1727176Y464164D01*
X1725377Y455118D01*
X1727176Y446072D01*
X1730752Y440720D01*
Y435870D01*
X1735661D01*
X1740834Y432413D01*
X1749881Y430614D01*
X1856302D01*
X1859252Y426103D01*
Y420788D01*
X1865984D01*
Y401182D01*
X1919291D01*
X1972598D01*
Y426851D01*
X1970472D01*
Y481655D01*
X1972598D01*
Y507324D01*
D02*
G37*
G36*
X661008Y497172D02*
X644764D01*
Y480928D01*
X648274Y481627D01*
X655489Y486447D01*
X660309Y493662D01*
X661008Y497172D01*
D02*
G37*
G36*
X634764D02*
X618520D01*
X619218Y493662D01*
X624039Y486447D01*
X631254Y481627D01*
X634764Y480928D01*
Y497172D01*
D02*
G37*
G36*
X1128858Y475334D02*
X1108110D01*
Y461673D01*
X1103569Y460743D01*
X1103110Y460841D01*
X1098402Y467887D01*
X1091187Y472708D01*
X1087677Y473406D01*
Y452162D01*
Y430919D01*
X1091187Y431617D01*
X1098402Y436438D01*
X1103110Y443484D01*
X1103569Y443581D01*
X1108110Y442652D01*
Y425806D01*
X1128858D01*
Y450570D01*
Y475334D01*
D02*
G37*
G36*
X1077677Y473406D02*
X1074167Y472708D01*
X1066952Y467887D01*
X1062132Y460673D01*
X1061434Y457162D01*
X1077677D01*
Y473406D01*
D02*
G37*
G36*
X1258032Y475334D02*
X1237284D01*
Y450570D01*
Y425806D01*
X1258032D01*
Y437830D01*
X1263032Y439347D01*
X1263803Y438193D01*
X1271017Y433372D01*
X1274528Y432674D01*
Y453918D01*
Y475162D01*
X1271017Y474463D01*
X1263803Y469643D01*
X1263032Y468489D01*
X1258032Y470005D01*
Y475334D01*
D02*
G37*
G36*
X1077677Y447162D02*
X1061434D01*
X1062132Y443652D01*
X1066952Y436438D01*
X1074167Y431617D01*
X1077677Y430919D01*
Y447162D01*
D02*
G37*
G36*
X1227284Y475334D02*
X1188071D01*
Y450570D01*
Y425806D01*
X1227284D01*
Y450570D01*
Y475334D01*
D02*
G37*
G36*
X1178071D02*
X1138858D01*
Y450570D01*
Y425806D01*
X1178071D01*
Y450570D01*
Y475334D01*
D02*
G37*
G36*
X1826929Y425351D02*
X1806181D01*
Y405588D01*
X1826929D01*
Y425351D01*
D02*
G37*
G36*
X1796181D02*
X1775433D01*
Y405588D01*
X1796181D01*
Y425351D01*
D02*
G37*
G36*
X1039936Y496015D02*
X997503D01*
Y457519D01*
X1002641D01*
X1004555Y452900D01*
X955640Y403985D01*
X944445D01*
Y416606D01*
X907917D01*
Y378110D01*
X912577D01*
Y367575D01*
X906481D01*
Y329079D01*
X943008D01*
Y335757D01*
X1016484D01*
Y330358D01*
X1053012D01*
Y368854D01*
X1016484D01*
Y362965D01*
X943008D01*
Y367575D01*
X939785D01*
Y378110D01*
X944445D01*
Y390731D01*
X958385D01*
X960922Y391235D01*
X963072Y392672D01*
X1023406Y453006D01*
X1024843Y455156D01*
X1025313Y457519D01*
X1039936D01*
Y496015D01*
D02*
G37*
G36*
X1669449Y399528D02*
X1648701D01*
Y379764D01*
X1669449D01*
Y399528D01*
D02*
G37*
G36*
X617978Y382068D02*
X614468Y381369D01*
X607253Y376549D01*
X602433Y369334D01*
X601735Y365824D01*
X617978D01*
Y382068D01*
D02*
G37*
G36*
X1972598Y391182D02*
X1924291D01*
Y365513D01*
X1972598D01*
Y391182D01*
D02*
G37*
G36*
X1914291D02*
X1865984D01*
Y365513D01*
X1914291D01*
Y391182D01*
D02*
G37*
G36*
X1826929Y395588D02*
X1801181D01*
X1775433D01*
Y375824D01*
X1787446D01*
X1788963Y370824D01*
X1785456Y368481D01*
X1780636Y361266D01*
X1779937Y357756D01*
X1822425D01*
X1821727Y361266D01*
X1816906Y368481D01*
X1813399Y370824D01*
X1814916Y375824D01*
X1826929D01*
Y395588D01*
D02*
G37*
G36*
X1754016Y372425D02*
Y356181D01*
X1770259D01*
X1769561Y359691D01*
X1764741Y366906D01*
X1757526Y371727D01*
X1754016Y372425D01*
D02*
G37*
G36*
X1744016D02*
X1740505Y371727D01*
X1733291Y366906D01*
X1728470Y359691D01*
X1727772Y356181D01*
X1744016D01*
Y372425D01*
D02*
G37*
G36*
X1704034D02*
Y356181D01*
X1720277D01*
X1719579Y359691D01*
X1714759Y366906D01*
X1707544Y371727D01*
X1704034Y372425D01*
D02*
G37*
G36*
X1694034D02*
X1690524Y371727D01*
X1683309Y366906D01*
X1678488Y359691D01*
X1677790Y356181D01*
X1694034D01*
Y372425D01*
D02*
G37*
G36*
X617978Y355824D02*
X601735D01*
X602433Y352314D01*
X607253Y345099D01*
X614468Y340278D01*
X617978Y339580D01*
Y355824D01*
D02*
G37*
G36*
X533039Y361072D02*
X512291D01*
Y338356D01*
X533039D01*
Y361072D01*
D02*
G37*
G36*
X502291D02*
X481543D01*
Y338356D01*
X502291D01*
Y361072D01*
D02*
G37*
G36*
X1983347Y352346D02*
Y336102D01*
X1999590D01*
X1998892Y339613D01*
X1994072Y346827D01*
X1986857Y351648D01*
X1983347Y352346D01*
D02*
G37*
G36*
X1973347D02*
X1969836Y351648D01*
X1962622Y346827D01*
X1957801Y339613D01*
X1957103Y336102D01*
X1973347D01*
Y352346D01*
D02*
G37*
G36*
X1924291Y350771D02*
Y334527D01*
X1940535D01*
X1939837Y338038D01*
X1935016Y345252D01*
X1927802Y350073D01*
X1924291Y350771D01*
D02*
G37*
G36*
X1914291D02*
X1910781Y350073D01*
X1903566Y345252D01*
X1898746Y338038D01*
X1898048Y334527D01*
X1914291D01*
Y350771D01*
D02*
G37*
G36*
X1864252Y349196D02*
Y332953D01*
X1880496D01*
X1879797Y336463D01*
X1874977Y343678D01*
X1867762Y348498D01*
X1864252Y349196D01*
D02*
G37*
G36*
X1854252D02*
X1850742Y348498D01*
X1843527Y343678D01*
X1838706Y336463D01*
X1838008Y332953D01*
X1854252D01*
Y349196D01*
D02*
G37*
G36*
X1822425Y347756D02*
X1806181D01*
Y331512D01*
X1809691Y332210D01*
X1816906Y337031D01*
X1821727Y344246D01*
X1822425Y347756D01*
D02*
G37*
G36*
X1796181D02*
X1779937D01*
X1780636Y344246D01*
X1785456Y337031D01*
X1792671Y332210D01*
X1796181Y331512D01*
Y347756D01*
D02*
G37*
G36*
X1770259Y346181D02*
X1754016D01*
Y329937D01*
X1757526Y330636D01*
X1764741Y335456D01*
X1769561Y342671D01*
X1770259Y346181D01*
D02*
G37*
G36*
X1744016D02*
X1727772D01*
X1728470Y342671D01*
X1733291Y335456D01*
X1740505Y330636D01*
X1744016Y329937D01*
Y346181D01*
D02*
G37*
G36*
X1720277D02*
X1704034D01*
Y329937D01*
X1707544Y330636D01*
X1714759Y335456D01*
X1719579Y342671D01*
X1720277Y346181D01*
D02*
G37*
G36*
X1694034D02*
X1677790D01*
X1678488Y342671D01*
X1683309Y335456D01*
X1690524Y330636D01*
X1694034Y329937D01*
Y346181D01*
D02*
G37*
G36*
X896359Y343327D02*
X876595D01*
Y322579D01*
X896359D01*
Y343327D01*
D02*
G37*
G36*
X866595D02*
X846831D01*
Y322579D01*
X866595D01*
Y343327D01*
D02*
G37*
G36*
X1999590Y326102D02*
X1983347D01*
Y309859D01*
X1986857Y310557D01*
X1994072Y315377D01*
X1998892Y322592D01*
X1999590Y326102D01*
D02*
G37*
G36*
X1973347D02*
X1957103D01*
X1957801Y322592D01*
X1962622Y315377D01*
X1969836Y310557D01*
X1973347Y309859D01*
Y326102D01*
D02*
G37*
G36*
X1940535Y324527D02*
X1924291D01*
Y308284D01*
X1927802Y308982D01*
X1935016Y313803D01*
X1939837Y321017D01*
X1940535Y324527D01*
D02*
G37*
G36*
X1914291D02*
X1898048D01*
X1898746Y321017D01*
X1903566Y313803D01*
X1910781Y308982D01*
X1914291Y308284D01*
Y324527D01*
D02*
G37*
G36*
X1880496Y322953D02*
X1864252D01*
Y306709D01*
X1867762Y307407D01*
X1874977Y312228D01*
X1879797Y319442D01*
X1880496Y322953D01*
D02*
G37*
G36*
X1854252D02*
X1838008D01*
X1838706Y319442D01*
X1843527Y312228D01*
X1850742Y307407D01*
X1854252Y306709D01*
Y322953D01*
D02*
G37*
G36*
X1773780Y322920D02*
X1754016D01*
Y302171D01*
X1773780D01*
Y322920D01*
D02*
G37*
G36*
X1744016D02*
X1724252D01*
Y302171D01*
X1744016D01*
Y322920D01*
D02*
G37*
G36*
X116340Y324823D02*
X109529D01*
Y299882D01*
X145623D01*
X145261Y302631D01*
X142270Y309853D01*
X137512Y316053D01*
X131311Y320812D01*
X124090Y323803D01*
X116340Y324823D01*
D02*
G37*
G36*
X99529D02*
X92718D01*
X84969Y323803D01*
X77748Y320812D01*
X71547Y316053D01*
X66789Y309853D01*
X63797Y302631D01*
X63435Y299882D01*
X99529D01*
Y324823D01*
D02*
G37*
G36*
X1983347Y285417D02*
Y269173D01*
X1999590D01*
X1998892Y272683D01*
X1994072Y279898D01*
X1986857Y284719D01*
X1983347Y285417D01*
D02*
G37*
G36*
X1973347D02*
X1969836Y284719D01*
X1962622Y279898D01*
X1957801Y272683D01*
X1957103Y269173D01*
X1973347D01*
Y285417D01*
D02*
G37*
G36*
X320033Y289882D02*
X274096D01*
Y264941D01*
X290750D01*
X298499Y265961D01*
X305721Y268952D01*
X311922Y273710D01*
X316680Y279911D01*
X319671Y287132D01*
X320033Y289882D01*
D02*
G37*
G36*
X264096D02*
X218160D01*
X218522Y287132D01*
X221513Y279911D01*
X226271Y273710D01*
X232472Y268952D01*
X239693Y265961D01*
X247443Y264941D01*
X264096D01*
Y289882D01*
D02*
G37*
G36*
X145623D02*
X109529D01*
Y264941D01*
X116340D01*
X124090Y265961D01*
X131311Y268952D01*
X137512Y273710D01*
X142270Y279911D01*
X145261Y287132D01*
X145623Y289882D01*
D02*
G37*
G36*
X99529D02*
X63435D01*
X63797Y287132D01*
X66789Y279911D01*
X71547Y273710D01*
X77748Y268952D01*
X84969Y265961D01*
X92718Y264941D01*
X99529D01*
Y289882D01*
D02*
G37*
G36*
X1999590Y259173D02*
X1983347D01*
Y242929D01*
X1986857Y243628D01*
X1994072Y248448D01*
X1998892Y255663D01*
X1999590Y259173D01*
D02*
G37*
G36*
X1973347D02*
X1957103D01*
X1957801Y255663D01*
X1962622Y248448D01*
X1969836Y243628D01*
X1973347Y242929D01*
Y259173D01*
D02*
G37*
G36*
X533039Y499381D02*
X481543D01*
Y476664D01*
X488043D01*
Y438392D01*
X488043Y437061D01*
Y433392D01*
X488043Y432061D01*
Y393789D01*
X481543D01*
Y371072D01*
X533039D01*
Y393789D01*
X526539D01*
Y405548D01*
X620233D01*
X642627Y383154D01*
X642144Y379115D01*
X637465Y377376D01*
X631489Y381369D01*
X627978Y382068D01*
Y360824D01*
Y339580D01*
X631489Y340278D01*
X637979Y344615D01*
X642979Y343183D01*
Y305325D01*
X638568Y302377D01*
X635184Y297313D01*
X633995Y291339D01*
X635184Y285365D01*
X638568Y280300D01*
X643632Y276916D01*
X649606Y275728D01*
X655580Y276916D01*
X660645Y280300D01*
X664029Y285365D01*
X665217Y291339D01*
X664029Y297313D01*
X660645Y302377D01*
X656234Y305325D01*
Y385547D01*
X655729Y388083D01*
X654293Y390233D01*
X627664Y416861D01*
X625514Y418298D01*
X622978Y418802D01*
X526539D01*
Y432061D01*
X526539Y433392D01*
Y437061D01*
X526539Y438392D01*
Y451651D01*
X625311D01*
X672507Y404455D01*
Y271860D01*
X668095Y268913D01*
X664711Y263848D01*
X663523Y257874D01*
X664711Y251900D01*
X668095Y246835D01*
X673160Y243451D01*
X679134Y242263D01*
X685108Y243451D01*
X690173Y246835D01*
X693557Y251900D01*
X694745Y257874D01*
X693557Y263848D01*
X690173Y268913D01*
X685761Y271860D01*
Y407200D01*
X685257Y409737D01*
X683820Y411887D01*
X632743Y462964D01*
X630593Y464401D01*
X628057Y464905D01*
X526539D01*
Y476664D01*
X533039D01*
Y499381D01*
D02*
G37*
G36*
X232625Y254871D02*
X148980D01*
Y217878D01*
X232625D01*
Y254871D01*
D02*
G37*
G36*
X526539Y571700D02*
X488043D01*
Y532097D01*
X481543D01*
Y509381D01*
X533039D01*
Y532097D01*
X526539D01*
Y543856D01*
X636649D01*
X711877Y468629D01*
Y232490D01*
X707465Y229542D01*
X704081Y224478D01*
X702893Y218504D01*
X704081Y212530D01*
X707465Y207465D01*
X712530Y204081D01*
X718504Y202893D01*
X724478Y204081D01*
X729543Y207465D01*
X732927Y212530D01*
X734115Y218504D01*
X732927Y224478D01*
X729543Y229542D01*
X725131Y232490D01*
Y471374D01*
X724627Y473910D01*
X723190Y476060D01*
X644080Y555170D01*
X641930Y556606D01*
X639394Y557111D01*
X526539D01*
Y571700D01*
D02*
G37*
G36*
X1983347Y216519D02*
Y200276D01*
X1999590D01*
X1998892Y203786D01*
X1994071Y211000D01*
X1986857Y215821D01*
X1983347Y216519D01*
D02*
G37*
G36*
X1973347D02*
X1969836Y215821D01*
X1962622Y211000D01*
X1957801Y203786D01*
X1957103Y200276D01*
X1973347D01*
Y216519D01*
D02*
G37*
G36*
X1773780Y292171D02*
X1749016D01*
X1724252D01*
Y271424D01*
X1725041D01*
X1728783Y268388D01*
X1728784Y266423D01*
Y225955D01*
X1740385D01*
Y218029D01*
X1736993Y215763D01*
X1733609Y210698D01*
X1732420Y204724D01*
X1733609Y198750D01*
X1736993Y193686D01*
X1742057Y190302D01*
X1748032Y189113D01*
X1754006Y190302D01*
X1759070Y193686D01*
X1762454Y198750D01*
X1763642Y204724D01*
X1762454Y210698D01*
X1759070Y215763D01*
X1755678Y218029D01*
Y225955D01*
X1767280D01*
Y266423D01*
X1767280Y268388D01*
X1771022Y271424D01*
X1773780D01*
Y292171D01*
D02*
G37*
G36*
X1999590Y190276D02*
X1983347D01*
Y174032D01*
X1986857Y174730D01*
X1994071Y179551D01*
X1998892Y186765D01*
X1999590Y190276D01*
D02*
G37*
G36*
X1973347D02*
X1957103D01*
X1957801Y186765D01*
X1962622Y179551D01*
X1969836Y174730D01*
X1973347Y174032D01*
Y190276D01*
D02*
G37*
G36*
X1983347Y157464D02*
Y141220D01*
X1999590D01*
X1998892Y144731D01*
X1994071Y151945D01*
X1986857Y156766D01*
X1983347Y157464D01*
D02*
G37*
G36*
X1973347D02*
X1969836Y156766D01*
X1962622Y151945D01*
X1957801Y144731D01*
X1957103Y141220D01*
X1973347D01*
Y157464D01*
D02*
G37*
G36*
X1999590Y131220D02*
X1983347D01*
Y114977D01*
X1986857Y115675D01*
X1994071Y120496D01*
X1998892Y127710D01*
X1999590Y131220D01*
D02*
G37*
G36*
X1973347D02*
X1957103D01*
X1957801Y127710D01*
X1962622Y120496D01*
X1969836Y115675D01*
X1973347Y114977D01*
Y131220D01*
D02*
G37*
G36*
X1766323Y103936D02*
Y69567D01*
X1800692D01*
X1799986Y74927D01*
X1795987Y84581D01*
X1789626Y92871D01*
X1781336Y99232D01*
X1771683Y103230D01*
X1766323Y103936D01*
D02*
G37*
G36*
X1756323D02*
X1750963Y103230D01*
X1741309Y99232D01*
X1733019Y92871D01*
X1726658Y84581D01*
X1722659Y74927D01*
X1721954Y69567D01*
X1756323D01*
Y103936D01*
D02*
G37*
G36*
X666323D02*
Y69567D01*
X700692D01*
X699986Y74927D01*
X695987Y84581D01*
X689626Y92871D01*
X681337Y99232D01*
X671683Y103230D01*
X666323Y103936D01*
D02*
G37*
G36*
X656323D02*
X650963Y103230D01*
X641309Y99232D01*
X633019Y92871D01*
X626658Y84581D01*
X622659Y74927D01*
X621954Y69567D01*
X656323D01*
Y103936D01*
D02*
G37*
G36*
X566323D02*
Y69567D01*
X600692D01*
X599986Y74927D01*
X595987Y84581D01*
X589626Y92871D01*
X581337Y99232D01*
X571683Y103230D01*
X566323Y103936D01*
D02*
G37*
G36*
X556323D02*
X550963Y103230D01*
X541309Y99232D01*
X533019Y92871D01*
X526658Y84581D01*
X522659Y74927D01*
X521954Y69567D01*
X556323D01*
Y103936D01*
D02*
G37*
G36*
X466323D02*
Y69567D01*
X500692D01*
X499986Y74927D01*
X495988Y84581D01*
X489626Y92871D01*
X481337Y99232D01*
X471683Y103230D01*
X466323Y103936D01*
D02*
G37*
G36*
X456323D02*
X450963Y103230D01*
X441309Y99232D01*
X433019Y92871D01*
X426658Y84581D01*
X422659Y74927D01*
X421954Y69567D01*
X456323D01*
Y103936D01*
D02*
G37*
G36*
X366323D02*
Y69567D01*
X400692D01*
X399986Y74927D01*
X395988Y84581D01*
X389626Y92871D01*
X381337Y99232D01*
X371683Y103230D01*
X366323Y103936D01*
D02*
G37*
G36*
X356323D02*
X350963Y103230D01*
X341309Y99232D01*
X333019Y92871D01*
X326658Y84581D01*
X322659Y74927D01*
X321954Y69567D01*
X356323D01*
Y103936D01*
D02*
G37*
G36*
X301008Y104252D02*
X266323D01*
Y69567D01*
X301008D01*
Y104252D01*
D02*
G37*
G36*
X256323D02*
X221638D01*
Y69567D01*
X256323D01*
Y104252D01*
D02*
G37*
G36*
X111323Y188423D02*
X96914Y187003D01*
X83059Y182801D01*
X70291Y175976D01*
X59099Y166791D01*
X49914Y155599D01*
X43089Y142830D01*
X38886Y128975D01*
X37467Y114567D01*
X38886Y100158D01*
X43089Y86304D01*
X49914Y73535D01*
X59099Y62343D01*
X70291Y53158D01*
X83059Y46333D01*
X96914Y42130D01*
X111323Y40711D01*
X125731Y42130D01*
X139586Y46333D01*
X152355Y53158D01*
X163547Y62343D01*
X172732Y73535D01*
X179556Y86304D01*
X183759Y100158D01*
X185178Y114567D01*
X183759Y128975D01*
X179556Y142830D01*
X172732Y155599D01*
X163547Y166791D01*
X152355Y175976D01*
X139586Y182801D01*
X125731Y187003D01*
X111323Y188423D01*
D02*
G37*
G36*
X1911323Y138485D02*
X1898662Y136819D01*
X1886864Y131932D01*
X1876732Y124157D01*
X1868958Y114026D01*
X1864071Y102228D01*
X1862404Y89567D01*
X1864071Y76906D01*
X1868958Y65108D01*
X1876732Y54976D01*
X1886864Y47202D01*
X1898662Y42315D01*
X1911323Y40648D01*
X1923984Y42315D01*
X1935782Y47202D01*
X1945913Y54976D01*
X1953688Y65108D01*
X1958574Y76906D01*
X1960241Y89567D01*
X1958574Y102228D01*
X1953688Y114026D01*
X1945913Y124157D01*
X1935782Y131932D01*
X1923984Y136819D01*
X1911323Y138485D01*
D02*
G37*
G36*
X1800692Y59567D02*
X1766323D01*
Y25198D01*
X1771683Y25903D01*
X1781336Y29902D01*
X1789626Y36263D01*
X1795987Y44553D01*
X1799986Y54207D01*
X1800692Y59567D01*
D02*
G37*
G36*
X1756323D02*
X1721954D01*
X1722659Y54207D01*
X1726658Y44553D01*
X1733019Y36263D01*
X1741309Y29902D01*
X1750963Y25903D01*
X1756323Y25198D01*
Y59567D01*
D02*
G37*
G36*
X700692D02*
X666323D01*
Y25198D01*
X671683Y25903D01*
X681337Y29902D01*
X689626Y36263D01*
X695987Y44553D01*
X699986Y54207D01*
X700692Y59567D01*
D02*
G37*
G36*
X656323D02*
X621954D01*
X622659Y54207D01*
X626658Y44553D01*
X633019Y36263D01*
X641309Y29902D01*
X650963Y25903D01*
X656323Y25198D01*
Y59567D01*
D02*
G37*
G36*
X600692D02*
X566323D01*
Y25198D01*
X571683Y25903D01*
X581337Y29902D01*
X589626Y36263D01*
X595987Y44553D01*
X599986Y54207D01*
X600692Y59567D01*
D02*
G37*
G36*
X556323D02*
X521954D01*
X522659Y54207D01*
X526658Y44553D01*
X533019Y36263D01*
X541309Y29902D01*
X550963Y25903D01*
X556323Y25198D01*
Y59567D01*
D02*
G37*
G36*
X500692D02*
X466323D01*
Y25198D01*
X471683Y25903D01*
X481337Y29902D01*
X489626Y36263D01*
X495988Y44553D01*
X499986Y54207D01*
X500692Y59567D01*
D02*
G37*
G36*
X456323D02*
X421954D01*
X422659Y54207D01*
X426658Y44553D01*
X433019Y36263D01*
X441309Y29902D01*
X450963Y25903D01*
X456323Y25198D01*
Y59567D01*
D02*
G37*
G36*
X400692D02*
X366323D01*
Y25198D01*
X371683Y25903D01*
X381337Y29902D01*
X389626Y36263D01*
X395988Y44553D01*
X399986Y54207D01*
X400692Y59567D01*
D02*
G37*
G36*
X356323D02*
X321954D01*
X322659Y54207D01*
X326658Y44553D01*
X333019Y36263D01*
X341309Y29902D01*
X350963Y25903D01*
X356323Y25198D01*
Y59567D01*
D02*
G37*
G36*
X301008D02*
X266323D01*
Y24882D01*
X301008D01*
Y59567D01*
D02*
G37*
G36*
X256323D02*
X221638D01*
Y24882D01*
X256323D01*
Y59567D01*
D02*
G37*
%LPD*%
G36*
X1622699Y699469D02*
X1622699D01*
Y657036D01*
X1634335D01*
Y649036D01*
X1622699D01*
Y611350D01*
X1571639Y560290D01*
X1564383D01*
X1562555Y564533D01*
X1562555Y564533D01*
X1562555D01*
X1562555Y564533D01*
Y582162D01*
X1529685D01*
Y587284D01*
X1524563D01*
Y620155D01*
X1506933D01*
Y620155D01*
X1504878D01*
Y620155D01*
X1487248D01*
X1485188Y622497D01*
X1485182Y625155D01*
X1499152Y639125D01*
X1499213Y639113D01*
X1505187Y640302D01*
X1510251Y643686D01*
X1513635Y648750D01*
X1514824Y654724D01*
X1514028Y658725D01*
X1559742Y704440D01*
X1622627D01*
X1622699Y699469D01*
D02*
G37*
G36*
X1307577Y690749D02*
X1308759Y685526D01*
X1306875Y684267D01*
X1303491Y679202D01*
X1302302Y673228D01*
X1303491Y667254D01*
X1306875Y662190D01*
X1311939Y658806D01*
X1317913Y657617D01*
X1323888Y658806D01*
X1328952Y662190D01*
X1329820Y663489D01*
X1336099Y664033D01*
X1371325Y628806D01*
Y620155D01*
X1369138D01*
Y587284D01*
X1364016D01*
Y582162D01*
X1358026D01*
X1357458Y585013D01*
X1355801Y587494D01*
X1343555Y599739D01*
X1344351Y603740D01*
X1343163Y609714D01*
X1339779Y614779D01*
X1334714Y618163D01*
X1328740Y619351D01*
X1322766Y618163D01*
X1317702Y614779D01*
X1314318Y609714D01*
X1313129Y603740D01*
X1314318Y597766D01*
X1317702Y592702D01*
X1322766Y589317D01*
X1328740Y588129D01*
X1330146Y588409D01*
X1331175Y587162D01*
X1331146Y582162D01*
X1331146D01*
Y564533D01*
X1331146D01*
Y562477D01*
X1331146D01*
Y544848D01*
X1331146D01*
Y542792D01*
X1331146D01*
Y525163D01*
X1331146D01*
Y523107D01*
X1331146D01*
Y505478D01*
X1331146D01*
Y503422D01*
X1331146D01*
Y485793D01*
X1331146D01*
Y483737D01*
X1331146D01*
Y466108D01*
X1331146D01*
Y464052D01*
X1331146D01*
Y446423D01*
X1331146D01*
Y444367D01*
X1331146D01*
Y426737D01*
X1364016D01*
Y421615D01*
X1369138D01*
Y388745D01*
X1371325D01*
Y381918D01*
X1360208Y370800D01*
X1323841D01*
X1321304Y370296D01*
X1319154Y368859D01*
X1201930Y251635D01*
X1192476Y261089D01*
Y293513D01*
X1192476D01*
X1192530Y298491D01*
X1235948D01*
X1238484Y298995D01*
X1240634Y300432D01*
X1307836Y367633D01*
X1309273Y369784D01*
X1309777Y372320D01*
Y572244D01*
X1309272Y574780D01*
X1307836Y576930D01*
X1275154Y609613D01*
Y617784D01*
X1275863D01*
X1278399Y618288D01*
X1280549Y619725D01*
X1291194Y630370D01*
X1292631Y632520D01*
X1293135Y635056D01*
Y678448D01*
X1305707Y691020D01*
X1307577Y690749D01*
D02*
G37*
G36*
X1410696Y383430D02*
Y378830D01*
X1411200Y376294D01*
X1412637Y374144D01*
X1444613Y342168D01*
X1442699Y337548D01*
X1433150D01*
Y310816D01*
X1423150D01*
Y337548D01*
X1399449D01*
Y332833D01*
X1382953D01*
Y308069D01*
Y283305D01*
X1403701D01*
X1405949Y279236D01*
Y272168D01*
X1397201D01*
Y273183D01*
X1358705D01*
Y236656D01*
X1397201D01*
Y258913D01*
X1405949D01*
Y245308D01*
X1450350D01*
Y274632D01*
X1451535Y275424D01*
X1456535Y272752D01*
Y270540D01*
X1485236D01*
Y265540D01*
X1490236D01*
Y238808D01*
X1509685D01*
Y230157D01*
X1530433D01*
Y254921D01*
Y279685D01*
X1513937D01*
Y285738D01*
X1516185Y289807D01*
X1517916Y289807D01*
X1554681D01*
Y326335D01*
X1516185D01*
Y317443D01*
X1507437D01*
Y331048D01*
X1494992D01*
X1493778Y332857D01*
X1493407Y334551D01*
X1496751Y338857D01*
X1502037Y339908D01*
X1507102Y343292D01*
X1510486Y348357D01*
X1511674Y354331D01*
X1510486Y360305D01*
X1509093Y362388D01*
X1511766Y367388D01*
X1578751D01*
X1622098Y324041D01*
X1620516Y320221D01*
X1620516D01*
Y281725D01*
X1662949D01*
Y314935D01*
X1667949Y317006D01*
X1677602Y307352D01*
Y277924D01*
X1689239D01*
Y268388D01*
X1677602D01*
Y225955D01*
X1690223D01*
Y98715D01*
X1685223Y96249D01*
X1681336Y99232D01*
X1671683Y103230D01*
X1666323Y103936D01*
Y64567D01*
X1661323D01*
Y59567D01*
X1621954D01*
X1622659Y54207D01*
X1626658Y44553D01*
X1633019Y36263D01*
X1634686Y34984D01*
X1633079Y30249D01*
X1589566D01*
X1587959Y34984D01*
X1589626Y36263D01*
X1595987Y44553D01*
X1599986Y54207D01*
X1600692Y59567D01*
X1521954D01*
X1522659Y54207D01*
X1526658Y44553D01*
X1533019Y36263D01*
X1534686Y34984D01*
X1533079Y30249D01*
X1478255D01*
X1477261Y35249D01*
X1478059Y35580D01*
X1484991Y40899D01*
X1490310Y47831D01*
X1493654Y55904D01*
X1494794Y64567D01*
X1493654Y73230D01*
X1490310Y81303D01*
X1484991Y88235D01*
X1478059Y93554D01*
X1469986Y96898D01*
X1461323Y98038D01*
X1452660Y96898D01*
X1444587Y93554D01*
X1437655Y88235D01*
X1432336Y81303D01*
X1428992Y73230D01*
X1427851Y64567D01*
X1428992Y55904D01*
X1432336Y47831D01*
X1437655Y40899D01*
X1444587Y35580D01*
X1445385Y35249D01*
X1444390Y30249D01*
X1378255D01*
X1377261Y35249D01*
X1378059Y35580D01*
X1384991Y40899D01*
X1390310Y47831D01*
X1393654Y55904D01*
X1394794Y64567D01*
X1393654Y73230D01*
X1390310Y81303D01*
X1384991Y88235D01*
X1378059Y93554D01*
X1369986Y96898D01*
X1361323Y98038D01*
X1352660Y96898D01*
X1344587Y93554D01*
X1337655Y88235D01*
X1332336Y81303D01*
X1328992Y73230D01*
X1327851Y64567D01*
X1328992Y55904D01*
X1332336Y47831D01*
X1337655Y40899D01*
X1344587Y35580D01*
X1345385Y35249D01*
X1344390Y30249D01*
X1278255D01*
X1277261Y35249D01*
X1278059Y35580D01*
X1284991Y40899D01*
X1290310Y47831D01*
X1293654Y55904D01*
X1294794Y64567D01*
X1293654Y73230D01*
X1290310Y81303D01*
X1284991Y88235D01*
X1278059Y93554D01*
X1269986Y96898D01*
X1261323Y98038D01*
X1252660Y96898D01*
X1244587Y93554D01*
X1242958Y92304D01*
X1223163Y112099D01*
Y229538D01*
X1335029Y341404D01*
X1373764D01*
X1376300Y341909D01*
X1378450Y343345D01*
X1402324Y367219D01*
X1403761Y369369D01*
X1404265Y371905D01*
Y383430D01*
X1407480Y385283D01*
X1410696Y383430D01*
D02*
G37*
G36*
X1195303Y239518D02*
Y107919D01*
X1179688Y92304D01*
X1178059Y93554D01*
X1169986Y96898D01*
X1161323Y98038D01*
X1152660Y96898D01*
X1144587Y93554D01*
X1137655Y88235D01*
X1132336Y81303D01*
X1128992Y73230D01*
X1127851Y64567D01*
X1128992Y55904D01*
X1132336Y47831D01*
X1137655Y40899D01*
X1144587Y35580D01*
X1145385Y35249D01*
X1144390Y30249D01*
X1078255D01*
X1077261Y35249D01*
X1078059Y35580D01*
X1084991Y40899D01*
X1090310Y47831D01*
X1093654Y55904D01*
X1094794Y64567D01*
X1093654Y73230D01*
X1090310Y81303D01*
X1089060Y82932D01*
X1152309Y146181D01*
X1153746Y148331D01*
X1154250Y150867D01*
Y251080D01*
X1183740D01*
X1195303Y239518D01*
D02*
G37*
G36*
X1233586Y82932D02*
X1232336Y81303D01*
X1228992Y73230D01*
X1227851Y64567D01*
X1228992Y55904D01*
X1232336Y47831D01*
X1237655Y40899D01*
X1244587Y35580D01*
X1245385Y35249D01*
X1244390Y30249D01*
X1178255D01*
X1177261Y35249D01*
X1178059Y35580D01*
X1184991Y40899D01*
X1190310Y47831D01*
X1193654Y55904D01*
X1194794Y64567D01*
X1193654Y73230D01*
X1190310Y81303D01*
X1189060Y82932D01*
X1206616Y100488D01*
X1207622Y101994D01*
X1208292Y102417D01*
X1210189Y102887D01*
X1213272Y103246D01*
X1233586Y82932D01*
D02*
G37*
%LPC*%
G36*
X1372953Y332833D02*
X1352205D01*
Y313069D01*
X1372953D01*
Y332833D01*
D02*
G37*
G36*
Y303069D02*
X1352205D01*
Y283305D01*
X1372953D01*
Y303069D01*
D02*
G37*
G36*
X1561181Y279685D02*
X1540433D01*
Y259921D01*
X1561181D01*
Y279685D01*
D02*
G37*
G36*
X1669449Y275540D02*
X1646732D01*
Y254792D01*
X1669449D01*
Y275540D01*
D02*
G37*
G36*
X1636732D02*
X1614016D01*
Y254792D01*
X1636732D01*
Y275540D01*
D02*
G37*
G36*
X1480236Y260540D02*
X1456535D01*
Y238808D01*
X1480236D01*
Y260540D01*
D02*
G37*
G36*
X1561181Y249921D02*
X1540433D01*
Y230157D01*
X1561181D01*
Y249921D01*
D02*
G37*
G36*
X1669449Y244792D02*
X1646732D01*
Y224044D01*
X1669449D01*
Y244792D01*
D02*
G37*
G36*
X1636732D02*
X1614016D01*
Y224044D01*
X1636732D01*
Y244792D01*
D02*
G37*
G36*
X1656323Y103936D02*
X1650963Y103230D01*
X1641309Y99232D01*
X1633019Y92871D01*
X1626658Y84581D01*
X1622659Y74927D01*
X1621954Y69567D01*
X1656323D01*
Y103936D01*
D02*
G37*
G36*
X1566323D02*
Y69567D01*
X1600692D01*
X1599986Y74927D01*
X1595987Y84581D01*
X1589626Y92871D01*
X1581336Y99232D01*
X1571683Y103230D01*
X1566323Y103936D01*
D02*
G37*
G36*
X1556323D02*
X1550963Y103230D01*
X1541309Y99232D01*
X1533019Y92871D01*
X1526658Y84581D01*
X1522659Y74927D01*
X1521954Y69567D01*
X1556323D01*
Y103936D01*
D02*
G37*
%LPD*%
G36*
X423749Y453592D02*
X425899Y452155D01*
X428435Y451651D01*
X436862D01*
Y437062D01*
X436862D01*
Y433391D01*
X436862D01*
Y418802D01*
X431573D01*
X410256Y440119D01*
X408106Y441556D01*
X405570Y442060D01*
X351115D01*
Y466926D01*
X350611Y469462D01*
X349174Y471612D01*
X341297Y479489D01*
X339768Y480511D01*
X339063Y483508D01*
X342469Y487861D01*
X389480D01*
X423749Y453592D01*
D02*
G37*
G36*
X424142Y407489D02*
X426292Y406052D01*
X428828Y405548D01*
X436862D01*
Y390959D01*
X436862D01*
Y387288D01*
X436862D01*
Y372699D01*
X428405D01*
X400356Y400749D01*
X398205Y402186D01*
X395669Y402690D01*
X340417D01*
X337163Y406343D01*
Y425153D01*
X340417Y428806D01*
X402825D01*
X424142Y407489D01*
D02*
G37*
D10*
X1122047Y272297D02*
D03*
X1173228D02*
D03*
X1204724Y666985D02*
D03*
X1255906D02*
D03*
X1696850Y247172D02*
D03*
X1748032D02*
D03*
X1641947Y678253D02*
D03*
X1693128D02*
D03*
X1204724Y619488D02*
D03*
X1255906D02*
D03*
X456110Y550484D02*
D03*
X507291D02*
D03*
X456110Y504381D02*
D03*
X507291D02*
D03*
X456110Y458278D02*
D03*
X507291D02*
D03*
X456110Y412175D02*
D03*
X507291D02*
D03*
X456110Y366072D02*
D03*
X507291D02*
D03*
X1204724Y712087D02*
D03*
X1255906D02*
D03*
D11*
X374016Y619488D02*
D03*
Y566339D02*
D03*
X1133858Y450570D02*
D03*
Y397420D02*
D03*
X1183071Y450570D02*
D03*
Y397420D02*
D03*
X1232284Y450570D02*
D03*
Y397420D02*
D03*
X1535433Y254921D02*
D03*
Y308071D02*
D03*
X1377953Y308069D02*
D03*
Y254920D02*
D03*
X1643701Y404528D02*
D03*
Y457677D02*
D03*
X1801181Y453737D02*
D03*
Y400588D02*
D03*
D12*
X1641732Y249792D02*
D03*
Y300973D02*
D03*
X1018720Y527949D02*
D03*
Y476767D02*
D03*
X971869Y580610D02*
D03*
Y529429D02*
D03*
D13*
X1859252Y454253D02*
D03*
D14*
X1919291Y396182D02*
D03*
Y512324D02*
D03*
D15*
X305120Y337008D02*
D03*
Y368504D02*
D03*
Y561417D02*
D03*
Y592913D02*
D03*
D16*
Y474803D02*
D03*
Y494488D02*
D03*
Y514173D02*
D03*
Y533858D02*
D03*
Y396063D02*
D03*
Y415748D02*
D03*
Y435433D02*
D03*
Y455118D02*
D03*
D17*
X1749016Y297172D02*
D03*
X1695866D02*
D03*
X1694112Y629788D02*
D03*
X1640963D02*
D03*
X1749016Y455118D02*
D03*
X1695866D02*
D03*
X1087898Y349606D02*
D03*
X1034748D02*
D03*
X871595Y348327D02*
D03*
X924744D02*
D03*
X873031Y397358D02*
D03*
X926181D02*
D03*
X912402Y590452D02*
D03*
X859252D02*
D03*
D18*
X1543307Y435552D02*
D03*
Y455237D02*
D03*
Y474922D02*
D03*
Y494607D02*
D03*
Y514292D02*
D03*
Y533977D02*
D03*
Y553663D02*
D03*
Y573347D02*
D03*
X1350394D02*
D03*
Y553663D02*
D03*
Y533977D02*
D03*
Y514292D02*
D03*
Y494607D02*
D03*
Y474922D02*
D03*
Y455237D02*
D03*
Y435552D02*
D03*
D19*
X1515748Y600907D02*
D03*
X1496063D02*
D03*
X1476378D02*
D03*
X1456693D02*
D03*
X1437008D02*
D03*
X1417323D02*
D03*
X1397638D02*
D03*
X1377953D02*
D03*
Y407993D02*
D03*
X1397638D02*
D03*
X1417323D02*
D03*
X1437008D02*
D03*
X1456693D02*
D03*
X1476378D02*
D03*
X1496063D02*
D03*
X1515748D02*
D03*
D20*
X1446850Y504450D02*
D03*
D21*
X1485236Y310816D02*
D03*
Y265540D02*
D03*
X1428150D02*
D03*
Y310816D02*
D03*
D22*
X925197Y461925D02*
D03*
X905512D02*
D03*
X885827D02*
D03*
Y520193D02*
D03*
X905512D02*
D03*
X925197D02*
D03*
D23*
X1133858Y318069D02*
Y349606D01*
X1122047Y306258D02*
X1133858Y318069D01*
X1122047Y272297D02*
Y306258D01*
X1118247Y349606D02*
X1121063Y346791D01*
X1748032Y204724D02*
Y247172D01*
X1556575Y712087D02*
X1677677D01*
X1499213Y654724D02*
X1556575Y712087D01*
X1677677D02*
X1693128Y696635D01*
Y678253D02*
Y696635D01*
X1188347Y603111D02*
X1204724Y619488D01*
X1176102Y603111D02*
X1188347D01*
X1350394Y573347D02*
Y582087D01*
X1328740Y603740D02*
X1350394Y582087D01*
X1204724Y619488D02*
Y666985D01*
X1476378Y627165D02*
X1499213Y650000D01*
Y654724D01*
X1476378Y600907D02*
Y627165D01*
X1569685Y494607D02*
X1586889Y511811D01*
X1566416Y494607D02*
X1569685D01*
X1543307D02*
X1566416D01*
X1568898Y492126D01*
Y482284D02*
Y492126D01*
X1561536Y474922D02*
X1568898Y482284D01*
X1543307Y474922D02*
X1561536D01*
X1476378Y374016D02*
X1496063Y354331D01*
X1476378Y374016D02*
Y407993D01*
X1466535Y374016D02*
X1476378D01*
X1456693Y383858D02*
X1466535Y374016D01*
X1456693Y383858D02*
Y407993D01*
X1543307Y435552D02*
X1566416Y412443D01*
D24*
X1172244Y262093D02*
X1182100D01*
X1201930Y242263D01*
X1154730Y305118D02*
X1235948D01*
X1147623Y298011D02*
X1154730Y305118D01*
X1147623Y150867D02*
Y298011D01*
X1235948Y305118D02*
X1303150Y372320D01*
X1061323Y64567D02*
X1147623Y150867D01*
X1201930Y242263D02*
X1323841Y364173D01*
X1303150Y372320D02*
Y572244D01*
X1377953Y600907D02*
Y631551D01*
X1336276Y673228D02*
X1377953Y631551D01*
X1317913Y673228D02*
X1336276D01*
X1337599Y698819D02*
X1397638Y638780D01*
X1304134Y698819D02*
X1337599D01*
X1286508Y681193D02*
X1304134Y698819D01*
X1286508Y635056D02*
Y681193D01*
X1293949Y723083D02*
X1353689D01*
X1282953Y712087D02*
X1293949Y723083D01*
X1255906Y712087D02*
X1282953D01*
X1345343Y710287D02*
X1417323Y638308D01*
X1299208Y710287D02*
X1345343D01*
X1255906Y666985D02*
X1299208Y710287D01*
X1353689Y723083D02*
X1437008Y639764D01*
X1275863Y624411D02*
X1286508Y635056D01*
X1260828Y624411D02*
X1275863D01*
X1397638Y600907D02*
Y638780D01*
X1417323Y600907D02*
Y638308D01*
X1437008Y600907D02*
Y639764D01*
X1270197Y726378D02*
X1353386Y809567D01*
X1255906Y619488D02*
X1260828Y624411D01*
X1640963Y677269D02*
X1641947Y678253D01*
X1640963Y629788D02*
Y677269D01*
Y620241D02*
Y629788D01*
X1574384Y553663D02*
X1640963Y620241D01*
X1406323Y809567D02*
X1461323Y864567D01*
X1353386Y809567D02*
X1406323D01*
X1350787Y864567D02*
X1361323D01*
X1230315Y744095D02*
X1350787Y864567D01*
X1230315Y692575D02*
Y744095D01*
Y692575D02*
X1255906Y666985D01*
Y619488D02*
X1303150Y572244D01*
X1061323Y64567D02*
X1062110D01*
X1201930Y105174D02*
Y242263D01*
X1161323Y64567D02*
X1201930Y105174D01*
X961323Y64567D02*
X1002268Y23622D01*
X1695474D01*
X1708661Y36809D01*
Y78740D01*
X1696850Y90551D02*
X1708661Y78740D01*
X1696850Y90551D02*
Y247172D01*
X718504Y218504D02*
Y471374D01*
X1216535Y232283D02*
X1332284Y348031D01*
X1216535Y109354D02*
Y232283D01*
Y109354D02*
X1261323Y64567D01*
X1688191Y297172D02*
Y306136D01*
X1695866Y248156D02*
X1696850Y247172D01*
X1695866Y248156D02*
Y297172D01*
X1601569Y392758D02*
X1688191Y306136D01*
X1530983Y392758D02*
X1601569D01*
X639394Y550484D02*
X718504Y471374D01*
X507291Y550484D02*
X639394D01*
X649606Y291339D02*
Y385547D01*
X622978Y412175D02*
X649606Y385547D01*
X507291Y412175D02*
X622978D01*
X679134Y257874D02*
Y407200D01*
X628057Y458278D02*
X679134Y407200D01*
X507291Y458278D02*
X628057D01*
X926181Y397358D02*
X958385D01*
X1018720Y457693D01*
Y476767D01*
X925197Y529429D02*
X971869D01*
X925197Y520193D02*
Y529429D01*
X971869D02*
X973350Y527949D01*
X1018720D01*
X1323841Y364173D02*
X1362953D01*
X1377953Y379173D01*
Y407993D01*
X1332284Y348031D02*
X1373764D01*
X1397638Y371905D01*
Y407993D01*
X1515748D02*
X1530983Y392758D01*
X1641732Y300973D02*
Y313779D01*
X1581496Y374016D02*
X1641732Y313779D01*
X1504450Y374016D02*
X1581496D01*
X1496063Y382403D02*
X1504450Y374016D01*
X1496063Y382403D02*
Y407993D01*
X425660Y366072D02*
X456110D01*
X395669Y396063D02*
X425660Y366072D01*
X305120Y396063D02*
X395669D01*
X270956Y415748D02*
X305120D01*
X254724Y431980D02*
X270956Y415748D01*
X254724Y431980D02*
Y513539D01*
X275043Y533858D01*
X305120D01*
X265748Y463485D02*
X274115Y455118D01*
X305120D01*
X265748Y463485D02*
Y485284D01*
X344488Y435433D02*
X405570D01*
X305120D02*
X344488D01*
Y466926D01*
X428828Y412175D02*
X456110D01*
X405570Y435433D02*
X428828Y412175D01*
X336611Y474803D02*
X344488Y466926D01*
X305120Y474803D02*
X336611D01*
X265748Y485284D02*
X274952Y494488D01*
X305120D01*
X428435Y458278D02*
X456110D01*
X392225Y494488D02*
X428435Y458278D01*
X305120Y494488D02*
X392225D01*
X420816Y504381D02*
X456110D01*
X411024Y514173D02*
X420816Y504381D01*
X305120Y514173D02*
X411024D01*
X427617Y550484D02*
X456110D01*
X410992Y533858D02*
X427617Y550484D01*
X305120Y533858D02*
X410992D01*
X1543307Y553663D02*
X1574384D01*
X1532688Y310816D02*
X1535433Y308071D01*
X1485236Y310816D02*
X1532688D01*
X1377953Y254920D02*
X1388573Y265540D01*
X1428150D01*
X1485236Y310816D02*
Y334962D01*
X1437008Y383190D02*
X1485236Y334962D01*
X1437008Y383190D02*
Y407993D01*
X1417323Y378830D02*
Y407993D01*
Y378830D02*
X1456693Y339460D01*
Y294084D02*
Y339460D01*
X1428150Y265540D02*
X1456693Y294084D01*
D25*
X1118247Y349606D02*
X1133858D01*
X1087898D02*
X1118247D01*
X1232284Y348031D02*
Y397420D01*
X1181102Y348031D02*
X1232284D01*
X1181102D02*
X1183071Y350000D01*
Y397420D01*
X1179528Y349606D02*
X1181102Y348031D01*
X1133858Y349606D02*
X1179528D01*
X1133858D02*
Y397420D01*
D26*
X859252Y862496D02*
X861323Y864567D01*
X859252Y590452D02*
Y862496D01*
X761323Y64567D02*
X861323D01*
X882327Y520193D02*
Y523693D01*
X761323Y592915D02*
X856789D01*
X761323Y64567D02*
Y592915D01*
X435435D02*
X755905D01*
X856789D02*
X859252Y590452D01*
X408858Y566339D02*
X435435Y592915D01*
X374016Y566339D02*
X408858D01*
X925779Y349361D02*
X926181Y349763D01*
X924744Y348327D02*
X925779Y349361D01*
X1034503D02*
X1034748Y349606D01*
X925779Y349361D02*
X1034503D01*
X926181Y349763D02*
Y397358D01*
X859252Y546768D02*
X882327Y523693D01*
X859252Y546768D02*
Y590452D01*
X905512Y520193D02*
Y583563D01*
X912402Y590452D01*
X236220Y525381D02*
X272256Y561417D01*
X236220Y404528D02*
Y525381D01*
Y404528D02*
X272244Y368504D01*
X287795Y337008D02*
X305120D01*
X269096Y318309D02*
X287795Y337008D01*
X269096Y294882D02*
Y318309D01*
X289579Y592913D02*
X305120D01*
X269096Y613396D02*
X289579Y592913D01*
X269096Y613396D02*
Y635039D01*
X254724D02*
X269096D01*
X206693Y587008D02*
X254724Y635039D01*
X206693Y334646D02*
Y587008D01*
Y334646D02*
X246457Y294882D01*
X269096D01*
X272244Y368504D02*
X305120D01*
X272256Y561417D02*
X305120D01*
X344488Y619488D02*
X374016D01*
X317913Y592913D02*
X344488Y619488D01*
X305120Y592913D02*
X317913D01*
X369094Y561417D02*
X374016Y566339D01*
X305120Y561417D02*
X369094D01*
D27*
X873031Y397358D02*
Y418519D01*
X885827Y431315D01*
Y461925D01*
X905512D02*
Y483081D01*
X885827Y502766D02*
X905512Y483081D01*
X885827Y502766D02*
Y520193D01*
X1544873Y455118D02*
X1584647D01*
D28*
X1749881Y454253D02*
X1856302D01*
X1584647Y455118D02*
X1695866D01*
X1749016D02*
X1749881Y454253D01*
D29*
X157480Y246371D02*
Y243039D01*
X164145Y236375D01*
X170809Y243039D01*
Y246371D01*
X164145Y236375D02*
Y226378D01*
X187471D02*
X180806D01*
X177474Y229710D01*
Y236375D01*
X180806Y239707D01*
X187471D01*
X190803Y236375D01*
Y233042D01*
X177474D01*
X207464Y226378D02*
X200800D01*
X197467Y229710D01*
Y236375D01*
X200800Y239707D01*
X207464D01*
X210796Y236375D01*
Y233042D01*
X197467D01*
X220793Y243039D02*
Y239707D01*
X217461D01*
X224125D01*
X220793D01*
Y229710D01*
X224125Y226378D01*
D30*
X1761323Y864567D02*
D03*
X1661323D02*
D03*
X1561323D02*
D03*
X1461323D02*
D03*
X1361323D02*
D03*
X1261323D02*
D03*
X1161323D02*
D03*
X1061323D02*
D03*
X961323D02*
D03*
X861323D02*
D03*
X761323D02*
D03*
X661323D02*
D03*
X1761323Y64567D02*
D03*
X1661323D02*
D03*
X1561323D02*
D03*
X1461323D02*
D03*
X1361323D02*
D03*
X1261323D02*
D03*
X1161323D02*
D03*
X1061323D02*
D03*
X961323D02*
D03*
X861323D02*
D03*
X761323D02*
D03*
X661323D02*
D03*
X561323D02*
D03*
X461323D02*
D03*
X361323D02*
D03*
D31*
X261323D02*
D03*
D32*
X111323Y114567D02*
D03*
Y814567D02*
D03*
D33*
X1911323Y839567D02*
D03*
Y89567D02*
D03*
D34*
X104529Y294882D02*
D03*
Y635039D02*
D03*
D35*
X269096Y294882D02*
D03*
Y635039D02*
D03*
D36*
X248230Y351181D02*
D03*
Y578740D02*
D03*
D37*
X1317913Y673228D02*
D03*
X1748032Y204724D02*
D03*
X649606Y291339D02*
D03*
X679134Y257874D02*
D03*
X718504Y218504D02*
D03*
X374016Y668698D02*
D03*
X622978Y360824D02*
D03*
X639764Y502172D02*
D03*
X1176102Y603111D02*
D03*
X1328740Y603740D02*
D03*
X1133858Y349606D02*
D03*
X1181102Y348031D02*
D03*
X1978347Y136220D02*
D03*
Y195276D02*
D03*
X1978347Y264173D02*
D03*
X1978347Y756299D02*
D03*
X1978347Y705512D02*
D03*
Y657495D02*
D03*
Y609354D02*
D03*
X1909449Y571777D02*
D03*
X1860236Y571773D02*
D03*
X1811024Y552695D02*
D03*
X1749016D02*
D03*
X1690943D02*
D03*
X1640963Y554269D02*
D03*
X1699034Y351181D02*
D03*
X1749016D02*
D03*
X1801181Y352756D02*
D03*
X1859252Y327953D02*
D03*
X1919291Y329527D02*
D03*
X1978347Y331102D02*
D03*
X1232284Y348031D02*
D03*
X1279528Y453918D02*
D03*
X1082677Y452162D02*
D03*
X1414173Y460262D02*
D03*
X1484252Y461837D02*
D03*
Y547334D02*
D03*
X1414173Y548909D02*
D03*
X1499213Y654724D02*
D03*
X1586889Y511811D02*
D03*
X1496063Y354331D02*
D03*
X1566416Y412443D02*
D03*
%TF.MD5,56c1d371fa6819b5baf548b7e7ed50c4*%
M02*
