%TF.GenerationSoftware,Altium Limited,Altium Designer,18.1.7 (191)*%
G04 Layer_Color=2752767*
%FSLAX26Y26*%
%MOIN*%
%TF.FileFunction,Drawing*%
%TF.Part,Single*%
G01*
G75*
%TA.AperFunction,NonConductor*%
%ADD29C,0.005000*%
%ADD80C,0.006667*%
D29*
X1741323Y844567D02*
Y884567D01*
X1781323D01*
Y844567D01*
X1741323D01*
X1641323D02*
Y884567D01*
X1681323D01*
Y844567D01*
X1641323D01*
X1541323D02*
Y884567D01*
X1581323D01*
Y844567D01*
X1541323D01*
X1441323D02*
Y884567D01*
X1481323D01*
Y844567D01*
X1441323D01*
X1341323D02*
Y884567D01*
X1381323D01*
Y844567D01*
X1341323D01*
X1241323D02*
Y884567D01*
X1281323D01*
Y844567D01*
X1241323D01*
X1141323D02*
Y884567D01*
X1181323D01*
Y844567D01*
X1141323D01*
X1041323D02*
Y884567D01*
X1081323D01*
Y844567D01*
X1041323D01*
X941323D02*
Y884567D01*
X981323D01*
Y844567D01*
X941323D01*
X841323D02*
Y884567D01*
X881323D01*
Y844567D01*
X841323D01*
X741323D02*
Y884567D01*
X781323D01*
Y844567D01*
X741323D01*
X641323D02*
Y884567D01*
X681323D01*
Y844567D01*
X641323D01*
X1741323Y44567D02*
Y84567D01*
X1781323D01*
Y44567D01*
X1741323D01*
X1641323D02*
Y84567D01*
X1681323D01*
Y44567D01*
X1641323D01*
X1541323D02*
Y84567D01*
X1581323D01*
Y44567D01*
X1541323D01*
X1441323D02*
Y84567D01*
X1481323D01*
Y44567D01*
X1441323D01*
X1341323D02*
Y84567D01*
X1381323D01*
Y44567D01*
X1341323D01*
X1241323D02*
Y84567D01*
X1281323D01*
Y44567D01*
X1241323D01*
X1141323D02*
Y84567D01*
X1181323D01*
Y44567D01*
X1141323D01*
X1041323D02*
Y84567D01*
X1081323D01*
Y44567D01*
X1041323D01*
X941323D02*
Y84567D01*
X981323D01*
Y44567D01*
X941323D01*
X841323D02*
Y84567D01*
X881323D01*
Y44567D01*
X841323D01*
X741323D02*
Y84567D01*
X781323D01*
Y44567D01*
X741323D01*
X641323D02*
Y84567D01*
X681323D01*
Y44567D01*
X641323D01*
X541323D02*
Y84567D01*
X581323D01*
Y44567D01*
X541323D01*
X441323D02*
Y84567D01*
X481323D01*
Y44567D01*
X441323D01*
X341323D02*
Y84567D01*
X381323D01*
Y44567D01*
X341323D01*
X241323D02*
Y84567D01*
X281323D01*
Y44567D01*
X241323D01*
X1911323Y819567D02*
X1891323Y859567D01*
X1931323D01*
X1911323Y819567D01*
Y69567D02*
X1891323Y109567D01*
X1931323D01*
X1911323Y69567D01*
X104529Y274882D02*
X114529Y284882D01*
X124529D01*
X114529Y294882D01*
X124529Y304882D01*
X114529D01*
X104529Y314882D01*
X94529Y304882D01*
X84529D01*
X94529Y294882D01*
X84529Y284882D01*
X94529D01*
X104529Y274882D01*
Y615039D02*
X114529Y625039D01*
X124529D01*
X114529Y635039D01*
X124529Y645039D01*
X114529D01*
X104529Y655039D01*
X94529Y645039D01*
X84529D01*
X94529Y635039D01*
X84529Y625039D01*
X94529D01*
X104529Y615039D01*
X249096Y274882D02*
X259096Y294882D01*
X249096Y314882D01*
X269096Y304882D01*
X289096Y314882D01*
X279096Y294882D01*
X289096Y274882D01*
X269096Y284882D01*
X249096Y274882D01*
Y615039D02*
X259096Y635039D01*
X249096Y655039D01*
X269096Y645039D01*
X289096Y655039D01*
X279096Y635039D01*
X289096Y615039D01*
X269096Y625039D01*
X249096Y615039D01*
X238230Y341181D02*
Y331181D01*
X258230D01*
Y341181D01*
X268230D01*
Y361181D01*
X258230D01*
Y371181D01*
X238230D01*
Y361181D01*
X228230D01*
Y341181D01*
X238230D01*
Y568740D02*
Y558740D01*
X258230D01*
Y568740D01*
X268230D01*
Y588740D01*
X258230D01*
Y598740D01*
X238230D01*
Y588740D01*
X228230D01*
Y568740D01*
X238230D01*
X1297913Y653228D02*
X1307913D01*
X1317913Y663228D01*
X1327913Y653228D01*
X1337913D01*
Y663228D01*
X1327913Y673228D01*
X1337913Y683228D01*
Y693228D01*
X1327913D01*
X1317913Y683228D01*
X1307913Y693228D01*
X1297913D01*
Y683228D01*
X1307913Y673228D01*
X1297913Y663228D01*
Y653228D01*
X1728032Y184724D02*
X1738032D01*
X1748032Y194724D01*
X1758032Y184724D01*
X1768032D01*
Y194724D01*
X1758032Y204724D01*
X1768032Y214724D01*
Y224724D01*
X1758032D01*
X1748032Y214724D01*
X1738032Y224724D01*
X1728032D01*
Y214724D01*
X1738032Y204724D01*
X1728032Y194724D01*
Y184724D01*
X629606Y271339D02*
X639606D01*
X649606Y281339D01*
X659606Y271339D01*
X669606D01*
Y281339D01*
X659606Y291339D01*
X669606Y301339D01*
Y311339D01*
X659606D01*
X649606Y301339D01*
X639606Y311339D01*
X629606D01*
Y301339D01*
X639606Y291339D01*
X629606Y281339D01*
Y271339D01*
X659134Y237874D02*
X669134D01*
X679134Y247874D01*
X689134Y237874D01*
X699134D01*
Y247874D01*
X689134Y257874D01*
X699134Y267874D01*
Y277874D01*
X689134D01*
X679134Y267874D01*
X669134Y277874D01*
X659134D01*
Y267874D01*
X669134Y257874D01*
X659134Y247874D01*
Y237874D01*
X698504Y198504D02*
X708504D01*
X718504Y208504D01*
X728504Y198504D01*
X738504D01*
Y208504D01*
X728504Y218504D01*
X738504Y228504D01*
Y238504D01*
X728504D01*
X718504Y228504D01*
X708504Y238504D01*
X698504D01*
Y228504D01*
X708504Y218504D01*
X698504Y208504D01*
Y198504D01*
X354016Y648698D02*
X364016D01*
X374016Y658698D01*
X384016Y648698D01*
X394016D01*
Y658698D01*
X384016Y668698D01*
X394016Y678698D01*
Y688698D01*
X384016D01*
X374016Y678698D01*
X364016Y688698D01*
X354016D01*
Y678698D01*
X364016Y668698D01*
X354016Y658698D01*
Y648698D01*
X602978Y340824D02*
X612978D01*
X622978Y350824D01*
X632978Y340824D01*
X642978D01*
Y350824D01*
X632978Y360824D01*
X642978Y370824D01*
Y380824D01*
X632978D01*
X622978Y370824D01*
X612978Y380824D01*
X602978D01*
Y370824D01*
X612978Y360824D01*
X602978Y350824D01*
Y340824D01*
X619764Y482172D02*
X629764D01*
X639764Y492172D01*
X649764Y482172D01*
X659764D01*
Y492172D01*
X649764Y502172D01*
X659764Y512172D01*
Y522172D01*
X649764D01*
X639764Y512172D01*
X629764Y522172D01*
X619764D01*
Y512172D01*
X629764Y502172D01*
X619764Y492172D01*
Y482172D01*
X1156102Y583111D02*
X1166102D01*
X1176102Y593111D01*
X1186102Y583111D01*
X1196102D01*
Y593111D01*
X1186102Y603111D01*
X1196102Y613111D01*
Y623111D01*
X1186102D01*
X1176102Y613111D01*
X1166102Y623111D01*
X1156102D01*
Y613111D01*
X1166102Y603111D01*
X1156102Y593111D01*
Y583111D01*
X1308740Y583740D02*
X1318740D01*
X1328740Y593740D01*
X1338740Y583740D01*
X1348740D01*
Y593740D01*
X1338740Y603740D01*
X1348740Y613740D01*
Y623740D01*
X1338740D01*
X1328740Y613740D01*
X1318740Y623740D01*
X1308740D01*
Y613740D01*
X1318740Y603740D01*
X1308740Y593740D01*
Y583740D01*
X1113858Y329606D02*
X1123858D01*
X1133858Y339606D01*
X1143858Y329606D01*
X1153858D01*
Y339606D01*
X1143858Y349606D01*
X1153858Y359606D01*
Y369606D01*
X1143858D01*
X1133858Y359606D01*
X1123858Y369606D01*
X1113858D01*
Y359606D01*
X1123858Y349606D01*
X1113858Y339606D01*
Y329606D01*
X1161102Y328031D02*
X1171102D01*
X1181102Y338031D01*
X1191102Y328031D01*
X1201102D01*
Y338031D01*
X1191102Y348031D01*
X1201102Y358031D01*
Y368031D01*
X1191102D01*
X1181102Y358031D01*
X1171102Y368031D01*
X1161102D01*
Y358031D01*
X1171102Y348031D01*
X1161102Y338031D01*
Y328031D01*
X1958347Y116221D02*
X1968347D01*
X1978347Y126221D01*
X1988347Y116221D01*
X1998347D01*
Y126221D01*
X1988347Y136220D01*
X1998347Y146220D01*
Y156220D01*
X1988347D01*
X1978347Y146220D01*
X1968347Y156220D01*
X1958347D01*
Y146220D01*
X1968347Y136220D01*
X1958347Y126221D01*
Y116221D01*
Y175276D02*
X1968347D01*
X1978347Y185276D01*
X1988347Y175276D01*
X1998347D01*
Y185276D01*
X1988347Y195276D01*
X1998347Y205276D01*
Y215276D01*
X1988347D01*
X1978347Y205276D01*
X1968347Y215276D01*
X1958347D01*
Y205276D01*
X1968347Y195276D01*
X1958347Y185276D01*
Y175276D01*
X1958347Y244173D02*
X1968347D01*
X1978347Y254173D01*
X1988347Y244173D01*
X1998347D01*
Y254173D01*
X1988347Y264173D01*
X1998347Y274173D01*
Y284173D01*
X1988347D01*
X1978347Y274173D01*
X1968347Y284173D01*
X1958347D01*
Y274173D01*
X1968347Y264173D01*
X1958347Y254173D01*
Y244173D01*
X1958347Y736299D02*
X1968347D01*
X1978347Y746299D01*
X1988347Y736299D01*
X1998347D01*
Y746299D01*
X1988347Y756299D01*
X1998347Y766299D01*
Y776299D01*
X1988347D01*
X1978347Y766299D01*
X1968347Y776299D01*
X1958347D01*
Y766299D01*
X1968347Y756299D01*
X1958347Y746299D01*
Y736299D01*
X1958347Y685512D02*
X1968347D01*
X1978347Y695512D01*
X1988347Y685512D01*
X1998347D01*
Y695512D01*
X1988347Y705512D01*
X1998347Y715512D01*
Y725512D01*
X1988347D01*
X1978347Y715512D01*
X1968347Y725512D01*
X1958347D01*
Y715512D01*
X1968347Y705512D01*
X1958347Y695512D01*
Y685512D01*
Y637495D02*
X1968347D01*
X1978347Y647495D01*
X1988347Y637495D01*
X1998347D01*
Y647495D01*
X1988347Y657495D01*
X1998347Y667495D01*
Y677495D01*
X1988347D01*
X1978347Y667495D01*
X1968347Y677495D01*
X1958347D01*
Y667495D01*
X1968347Y657495D01*
X1958347Y647495D01*
Y637495D01*
Y589354D02*
X1968347D01*
X1978347Y599354D01*
X1988347Y589354D01*
X1998347D01*
Y599354D01*
X1988347Y609354D01*
X1998347Y619354D01*
Y629354D01*
X1988347D01*
X1978347Y619354D01*
X1968347Y629354D01*
X1958347D01*
Y619354D01*
X1968347Y609354D01*
X1958347Y599354D01*
Y589354D01*
X1889449Y551777D02*
X1899449D01*
X1909449Y561777D01*
X1919449Y551777D01*
X1929449D01*
Y561777D01*
X1919449Y571777D01*
X1929449Y581777D01*
Y591777D01*
X1919449D01*
X1909449Y581777D01*
X1899449Y591777D01*
X1889449D01*
Y581777D01*
X1899449Y571777D01*
X1889449Y561777D01*
Y551777D01*
X1840236Y551773D02*
X1850236D01*
X1860236Y561773D01*
X1870236Y551773D01*
X1880236D01*
Y561773D01*
X1870236Y571773D01*
X1880236Y581773D01*
Y591773D01*
X1870236D01*
X1860236Y581773D01*
X1850236Y591773D01*
X1840236D01*
Y581773D01*
X1850236Y571773D01*
X1840236Y561773D01*
Y551773D01*
X1791024Y532695D02*
X1801024D01*
X1811024Y542695D01*
X1821024Y532695D01*
X1831024D01*
Y542695D01*
X1821024Y552695D01*
X1831024Y562695D01*
Y572695D01*
X1821024D01*
X1811024Y562695D01*
X1801024Y572695D01*
X1791024D01*
Y562695D01*
X1801024Y552695D01*
X1791024Y542695D01*
Y532695D01*
X1729016D02*
X1739016D01*
X1749016Y542695D01*
X1759016Y532695D01*
X1769016D01*
Y542695D01*
X1759016Y552695D01*
X1769016Y562695D01*
Y572695D01*
X1759016D01*
X1749016Y562695D01*
X1739016Y572695D01*
X1729016D01*
Y562695D01*
X1739016Y552695D01*
X1729016Y542695D01*
Y532695D01*
X1670943D02*
X1680943D01*
X1690943Y542695D01*
X1700943Y532695D01*
X1710943D01*
Y542695D01*
X1700943Y552695D01*
X1710943Y562695D01*
Y572695D01*
X1700943D01*
X1690943Y562695D01*
X1680943Y572695D01*
X1670943D01*
Y562695D01*
X1680943Y552695D01*
X1670943Y542695D01*
Y532695D01*
X1620963Y534269D02*
X1630963D01*
X1640963Y544269D01*
X1650963Y534269D01*
X1660963D01*
Y544269D01*
X1650963Y554269D01*
X1660963Y564269D01*
Y574269D01*
X1650963D01*
X1640963Y564269D01*
X1630963Y574269D01*
X1620963D01*
Y564269D01*
X1630963Y554269D01*
X1620963Y544269D01*
Y534269D01*
X1679034Y331181D02*
X1689034D01*
X1699034Y341181D01*
X1709034Y331181D01*
X1719034D01*
Y341181D01*
X1709034Y351181D01*
X1719034Y361181D01*
Y371181D01*
X1709034D01*
X1699034Y361181D01*
X1689034Y371181D01*
X1679034D01*
Y361181D01*
X1689034Y351181D01*
X1679034Y341181D01*
Y331181D01*
X1729016D02*
X1739016D01*
X1749016Y341181D01*
X1759016Y331181D01*
X1769016D01*
Y341181D01*
X1759016Y351181D01*
X1769016Y361181D01*
Y371181D01*
X1759016D01*
X1749016Y361181D01*
X1739016Y371181D01*
X1729016D01*
Y361181D01*
X1739016Y351181D01*
X1729016Y341181D01*
Y331181D01*
X1781181Y332756D02*
X1791181D01*
X1801181Y342756D01*
X1811181Y332756D01*
X1821181D01*
Y342756D01*
X1811181Y352756D01*
X1821181Y362756D01*
Y372756D01*
X1811181D01*
X1801181Y362756D01*
X1791181Y372756D01*
X1781181D01*
Y362756D01*
X1791181Y352756D01*
X1781181Y342756D01*
Y332756D01*
X1839252Y307953D02*
X1849252D01*
X1859252Y317953D01*
X1869252Y307953D01*
X1879252D01*
Y317953D01*
X1869252Y327953D01*
X1879252Y337953D01*
Y347953D01*
X1869252D01*
X1859252Y337953D01*
X1849252Y347953D01*
X1839252D01*
Y337953D01*
X1849252Y327953D01*
X1839252Y317953D01*
Y307953D01*
X1899291Y309527D02*
X1909291D01*
X1919291Y319527D01*
X1929291Y309527D01*
X1939291D01*
Y319527D01*
X1929291Y329527D01*
X1939291Y339527D01*
Y349527D01*
X1929291D01*
X1919291Y339527D01*
X1909291Y349527D01*
X1899291D01*
Y339527D01*
X1909291Y329527D01*
X1899291Y319527D01*
Y309527D01*
X1958347Y311102D02*
X1968347D01*
X1978347Y321102D01*
X1988347Y311102D01*
X1998347D01*
Y321102D01*
X1988347Y331102D01*
X1998347Y341102D01*
Y351102D01*
X1988347D01*
X1978347Y341102D01*
X1968347Y351102D01*
X1958347D01*
Y341102D01*
X1968347Y331102D01*
X1958347Y321102D01*
Y311102D01*
X1212284Y328031D02*
X1222284D01*
X1232284Y338031D01*
X1242284Y328031D01*
X1252284D01*
Y338031D01*
X1242284Y348031D01*
X1252284Y358031D01*
Y368031D01*
X1242284D01*
X1232284Y358031D01*
X1222284Y368031D01*
X1212284D01*
Y358031D01*
X1222284Y348031D01*
X1212284Y338031D01*
Y328031D01*
X1259528Y433918D02*
X1269528D01*
X1279528Y443918D01*
X1289528Y433918D01*
X1299528D01*
Y443918D01*
X1289528Y453918D01*
X1299528Y463918D01*
Y473918D01*
X1289528D01*
X1279528Y463918D01*
X1269528Y473918D01*
X1259528D01*
Y463918D01*
X1269528Y453918D01*
X1259528Y443918D01*
Y433918D01*
X1062677Y432162D02*
X1072677D01*
X1082677Y442162D01*
X1092677Y432162D01*
X1102677D01*
Y442162D01*
X1092677Y452162D01*
X1102677Y462162D01*
Y472162D01*
X1092677D01*
X1082677Y462162D01*
X1072677Y472162D01*
X1062677D01*
Y462162D01*
X1072677Y452162D01*
X1062677Y442162D01*
Y432162D01*
X1394173Y440262D02*
X1404173D01*
X1414173Y450262D01*
X1424173Y440262D01*
X1434173D01*
Y450262D01*
X1424173Y460262D01*
X1434173Y470262D01*
Y480262D01*
X1424173D01*
X1414173Y470262D01*
X1404173Y480262D01*
X1394173D01*
Y470262D01*
X1404173Y460262D01*
X1394173Y450262D01*
Y440262D01*
X1464252Y441837D02*
X1474252D01*
X1484252Y451837D01*
X1494252Y441837D01*
X1504252D01*
Y451837D01*
X1494252Y461837D01*
X1504252Y471837D01*
Y481837D01*
X1494252D01*
X1484252Y471837D01*
X1474252Y481837D01*
X1464252D01*
Y471837D01*
X1474252Y461837D01*
X1464252Y451837D01*
Y441837D01*
Y527334D02*
X1474252D01*
X1484252Y537334D01*
X1494252Y527334D01*
X1504252D01*
Y537334D01*
X1494252Y547334D01*
X1504252Y557334D01*
Y567334D01*
X1494252D01*
X1484252Y557334D01*
X1474252Y567334D01*
X1464252D01*
Y557334D01*
X1474252Y547334D01*
X1464252Y537334D01*
Y527334D01*
X1394173Y528909D02*
X1404173D01*
X1414173Y538909D01*
X1424173Y528909D01*
X1434173D01*
Y538909D01*
X1424173Y548909D01*
X1434173Y558909D01*
Y568909D01*
X1424173D01*
X1414173Y558909D01*
X1404173Y568909D01*
X1394173D01*
Y558909D01*
X1404173Y548909D01*
X1394173Y538909D01*
Y528909D01*
X1479213Y634724D02*
X1489213D01*
X1499213Y644724D01*
X1509213Y634724D01*
X1519213D01*
Y644724D01*
X1509213Y654724D01*
X1519213Y664724D01*
Y674724D01*
X1509213D01*
X1499213Y664724D01*
X1489213Y674724D01*
X1479213D01*
Y664724D01*
X1489213Y654724D01*
X1479213Y644724D01*
Y634724D01*
X1566889Y491811D02*
X1576889D01*
X1586889Y501811D01*
X1596889Y491811D01*
X1606889D01*
Y501811D01*
X1596889Y511811D01*
X1606889Y521811D01*
Y531811D01*
X1596889D01*
X1586889Y521811D01*
X1576889Y531811D01*
X1566889D01*
Y521811D01*
X1576889Y511811D01*
X1566889Y501811D01*
Y491811D01*
X1476063Y334331D02*
X1486063D01*
X1496063Y344331D01*
X1506063Y334331D01*
X1516063D01*
Y344331D01*
X1506063Y354331D01*
X1516063Y364331D01*
Y374331D01*
X1506063D01*
X1496063Y364331D01*
X1486063Y374331D01*
X1476063D01*
Y364331D01*
X1486063Y354331D01*
X1476063Y344331D01*
Y334331D01*
X1546416Y392443D02*
X1556416D01*
X1566416Y402443D01*
X1576416Y392443D01*
X1586416D01*
Y402443D01*
X1576416Y412443D01*
X1586416Y422443D01*
Y432443D01*
X1576416D01*
X1566416Y422443D01*
X1556416Y432443D01*
X1546416D01*
Y422443D01*
X1556416Y412443D01*
X1546416Y402443D01*
Y392443D01*
D80*
X131323Y114567D02*
G03*
X131323Y114567I-20000J0D01*
G01*
Y814567D02*
G03*
X131323Y814567I-20000J0D01*
G01*
%TF.MD5,c46f6d3c32a055d9d05daf9cea208ca0*%
M02*
