%TF.GenerationSoftware,Altium Limited,Altium Designer,18.1.7 (191)*%
G04 Layer_Physical_Order=2*
G04 Layer_Color=16711680*
%FSLAX26Y26*%
%MOIN*%
%TF.FileFunction,Copper,L2,Bot,Signal*%
%TF.Part,Single*%
G01*
G75*
%TA.AperFunction,Conductor*%
%ADD23C,0.008000*%
%ADD24C,0.006000*%
%ADD25C,0.020000*%
%TA.AperFunction,ComponentPad*%
%ADD30C,0.059370*%
%ADD31R,0.059370X0.059370*%
%ADD32C,0.140000*%
%ADD33C,0.090000*%
%ADD34O,0.062992X0.039370*%
%ADD35O,0.082677X0.039370*%
%ADD36C,0.025591*%
%TA.AperFunction,ViaPad*%
%ADD37C,0.023622*%
G36*
X2027559Y917720D02*
X2027559Y0D01*
X0D01*
Y916803D01*
X2024019Y921252D01*
X2027559Y917720D01*
D02*
G37*
%LPC*%
G36*
X1766323Y903936D02*
Y869567D01*
X1800692D01*
X1799986Y874927D01*
X1795987Y884581D01*
X1789626Y892870D01*
X1781336Y899232D01*
X1771683Y903230D01*
X1766323Y903936D01*
D02*
G37*
G36*
X1666323D02*
Y869567D01*
X1700692D01*
X1699986Y874927D01*
X1695987Y884581D01*
X1689626Y892870D01*
X1681336Y899232D01*
X1671683Y903230D01*
X1666323Y903936D01*
D02*
G37*
G36*
X1566323D02*
Y869567D01*
X1600692D01*
X1599986Y874927D01*
X1595987Y884581D01*
X1589626Y892870D01*
X1581336Y899232D01*
X1571683Y903230D01*
X1566323Y903936D01*
D02*
G37*
G36*
X1266323D02*
Y869567D01*
X1300692D01*
X1299986Y874927D01*
X1295987Y884581D01*
X1289626Y892870D01*
X1281336Y899232D01*
X1271683Y903230D01*
X1266323Y903936D01*
D02*
G37*
G36*
X1166323D02*
Y869567D01*
X1200692D01*
X1199986Y874927D01*
X1195987Y884581D01*
X1189626Y892870D01*
X1181336Y899232D01*
X1171683Y903230D01*
X1166323Y903936D01*
D02*
G37*
G36*
X1066323D02*
Y869567D01*
X1100692D01*
X1099986Y874927D01*
X1095987Y884581D01*
X1089626Y892870D01*
X1081336Y899232D01*
X1071683Y903230D01*
X1066323Y903936D01*
D02*
G37*
G36*
X966323D02*
Y869567D01*
X1000692D01*
X999986Y874927D01*
X995987Y884581D01*
X989626Y892870D01*
X981337Y899232D01*
X971683Y903230D01*
X966323Y903936D01*
D02*
G37*
G36*
X666323D02*
Y869567D01*
X700692D01*
X699986Y874927D01*
X695987Y884581D01*
X689626Y892870D01*
X681337Y899232D01*
X671683Y903230D01*
X666323Y903936D01*
D02*
G37*
G36*
X1756323D02*
X1750963Y903230D01*
X1741309Y899232D01*
X1733019Y892870D01*
X1726658Y884581D01*
X1722659Y874927D01*
X1721954Y869567D01*
X1756323D01*
Y903936D01*
D02*
G37*
G36*
X656323D02*
X650963Y903230D01*
X641309Y899232D01*
X633019Y892870D01*
X626658Y884581D01*
X622659Y874927D01*
X621954Y869567D01*
X656323D01*
Y903936D01*
D02*
G37*
G36*
X1656323D02*
X1650963Y903230D01*
X1641309Y899232D01*
X1633019Y892870D01*
X1626658Y884581D01*
X1622659Y874927D01*
X1621954Y869567D01*
X1656323D01*
Y903936D01*
D02*
G37*
G36*
X1556323D02*
X1550963Y903230D01*
X1541309Y899232D01*
X1533019Y892870D01*
X1526658Y884581D01*
X1522659Y874927D01*
X1521954Y869567D01*
X1556323D01*
Y903936D01*
D02*
G37*
G36*
X1256323D02*
X1250963Y903230D01*
X1241309Y899232D01*
X1233019Y892870D01*
X1226658Y884581D01*
X1222659Y874927D01*
X1221954Y869567D01*
X1256323D01*
Y903936D01*
D02*
G37*
G36*
X1156323D02*
X1150963Y903230D01*
X1141309Y899232D01*
X1133019Y892870D01*
X1126658Y884581D01*
X1122659Y874927D01*
X1121954Y869567D01*
X1156323D01*
Y903936D01*
D02*
G37*
G36*
X1056323D02*
X1050963Y903230D01*
X1041309Y899232D01*
X1033019Y892870D01*
X1026658Y884581D01*
X1022659Y874927D01*
X1021954Y869567D01*
X1056323D01*
Y903936D01*
D02*
G37*
G36*
X956323D02*
X950963Y903230D01*
X941309Y899232D01*
X933019Y892870D01*
X926658Y884581D01*
X922659Y874927D01*
X921954Y869567D01*
X956323D01*
Y903936D01*
D02*
G37*
G36*
X1461323Y898038D02*
X1452660Y896898D01*
X1444587Y893554D01*
X1437655Y888235D01*
X1432336Y881303D01*
X1428992Y873230D01*
X1427851Y864567D01*
X1428992Y855904D01*
X1432336Y847831D01*
X1437655Y840899D01*
X1444587Y835580D01*
X1452660Y832236D01*
X1461323Y831096D01*
X1469986Y832236D01*
X1478059Y835580D01*
X1484991Y840899D01*
X1490310Y847831D01*
X1493654Y855904D01*
X1494794Y864567D01*
X1493654Y873230D01*
X1490310Y881303D01*
X1484991Y888235D01*
X1478059Y893554D01*
X1469986Y896898D01*
X1461323Y898038D01*
D02*
G37*
G36*
X1361323D02*
X1352660Y896898D01*
X1344587Y893554D01*
X1337655Y888235D01*
X1332336Y881303D01*
X1328992Y873230D01*
X1327851Y864567D01*
X1328992Y855904D01*
X1332336Y847831D01*
X1337655Y840899D01*
X1344587Y835580D01*
X1352660Y832236D01*
X1361323Y831096D01*
X1369986Y832236D01*
X1378059Y835580D01*
X1384991Y840899D01*
X1390310Y847831D01*
X1393654Y855904D01*
X1394794Y864567D01*
X1393654Y873230D01*
X1390310Y881303D01*
X1384991Y888235D01*
X1378059Y893554D01*
X1369986Y896898D01*
X1361323Y898038D01*
D02*
G37*
G36*
X861323D02*
X852660Y896898D01*
X844587Y893554D01*
X837655Y888235D01*
X832336Y881303D01*
X828992Y873230D01*
X827851Y864567D01*
X828992Y855904D01*
X832336Y847831D01*
X837655Y840899D01*
X844587Y835580D01*
X852660Y832236D01*
X861323Y831096D01*
X869986Y832236D01*
X878058Y835580D01*
X884991Y840899D01*
X890310Y847831D01*
X893654Y855904D01*
X894794Y864567D01*
X893654Y873230D01*
X890310Y881303D01*
X884991Y888235D01*
X878058Y893554D01*
X869986Y896898D01*
X861323Y898038D01*
D02*
G37*
G36*
X1700692Y859567D02*
X1666323D01*
Y825198D01*
X1671683Y825903D01*
X1681336Y829902D01*
X1689626Y836263D01*
X1695987Y844553D01*
X1699986Y854207D01*
X1700692Y859567D01*
D02*
G37*
G36*
X1600692D02*
X1566323D01*
Y825198D01*
X1571683Y825903D01*
X1581336Y829902D01*
X1589626Y836263D01*
X1595987Y844553D01*
X1599986Y854207D01*
X1600692Y859567D01*
D02*
G37*
G36*
X1200692D02*
X1166323D01*
Y825198D01*
X1171683Y825903D01*
X1181336Y829902D01*
X1189626Y836263D01*
X1195987Y844553D01*
X1199986Y854207D01*
X1200692Y859567D01*
D02*
G37*
G36*
X1100692D02*
X1066323D01*
Y825198D01*
X1071683Y825903D01*
X1081336Y829902D01*
X1089626Y836263D01*
X1095987Y844553D01*
X1099986Y854207D01*
X1100692Y859567D01*
D02*
G37*
G36*
X1000692D02*
X966323D01*
Y825198D01*
X971683Y825903D01*
X981337Y829902D01*
X989626Y836263D01*
X995987Y844553D01*
X999986Y854207D01*
X1000692Y859567D01*
D02*
G37*
G36*
X700692D02*
X666323D01*
Y825198D01*
X671683Y825903D01*
X681337Y829902D01*
X689626Y836263D01*
X695987Y844553D01*
X699986Y854207D01*
X700692Y859567D01*
D02*
G37*
G36*
X1800692D02*
X1766323D01*
Y825198D01*
X1771683Y825903D01*
X1781336Y829902D01*
X1789626Y836263D01*
X1795987Y844553D01*
X1799986Y854207D01*
X1800692Y859567D01*
D02*
G37*
G36*
X1300692D02*
X1266323D01*
Y825198D01*
X1271683Y825903D01*
X1281336Y829902D01*
X1289626Y836263D01*
X1295987Y844553D01*
X1299986Y854207D01*
X1300692Y859567D01*
D02*
G37*
G36*
X1756323D02*
X1721954D01*
X1722659Y854207D01*
X1726658Y844553D01*
X1733019Y836263D01*
X1741309Y829902D01*
X1750963Y825903D01*
X1756323Y825198D01*
Y859567D01*
D02*
G37*
G36*
X1656323D02*
X1621954D01*
X1622659Y854207D01*
X1626658Y844553D01*
X1633019Y836263D01*
X1641309Y829902D01*
X1650963Y825903D01*
X1656323Y825198D01*
Y859567D01*
D02*
G37*
G36*
X1556323D02*
X1521954D01*
X1522659Y854207D01*
X1526658Y844553D01*
X1533019Y836263D01*
X1541309Y829902D01*
X1550963Y825903D01*
X1556323Y825198D01*
Y859567D01*
D02*
G37*
G36*
X1256323D02*
X1221954D01*
X1222659Y854207D01*
X1226658Y844553D01*
X1233019Y836263D01*
X1241309Y829902D01*
X1250963Y825903D01*
X1256323Y825198D01*
Y859567D01*
D02*
G37*
G36*
X1156323D02*
X1121954D01*
X1122659Y854207D01*
X1126658Y844553D01*
X1133019Y836263D01*
X1141309Y829902D01*
X1150963Y825903D01*
X1156323Y825198D01*
Y859567D01*
D02*
G37*
G36*
X1056323D02*
X1021954D01*
X1022659Y854207D01*
X1026658Y844553D01*
X1033019Y836263D01*
X1041309Y829902D01*
X1050963Y825903D01*
X1056323Y825198D01*
Y859567D01*
D02*
G37*
G36*
X956323D02*
X921954D01*
X922659Y854207D01*
X926658Y844553D01*
X933019Y836263D01*
X941309Y829902D01*
X950963Y825903D01*
X956323Y825198D01*
Y859567D01*
D02*
G37*
G36*
X656323D02*
X621954D01*
X622659Y854207D01*
X626658Y844553D01*
X633019Y836263D01*
X641309Y829902D01*
X650963Y825903D01*
X656323Y825198D01*
Y859567D01*
D02*
G37*
G36*
X1911323Y888485D02*
X1898662Y886818D01*
X1886864Y881932D01*
X1876732Y874158D01*
X1868958Y864026D01*
X1864071Y852228D01*
X1862404Y839567D01*
X1864071Y826906D01*
X1868958Y815108D01*
X1876732Y804976D01*
X1886864Y797202D01*
X1898662Y792315D01*
X1911323Y790648D01*
X1923984Y792315D01*
X1935782Y797202D01*
X1945913Y804976D01*
X1953688Y815108D01*
X1958574Y826906D01*
X1960241Y839567D01*
X1958574Y852228D01*
X1953688Y864026D01*
X1945913Y874158D01*
X1935782Y881932D01*
X1923984Y886818D01*
X1911323Y888485D01*
D02*
G37*
G36*
X1983347Y777543D02*
Y761299D01*
X1999590D01*
X1998892Y764809D01*
X1994071Y772024D01*
X1986857Y776845D01*
X1983347Y777543D01*
D02*
G37*
G36*
X1973347D02*
X1969836Y776845D01*
X1962622Y772024D01*
X1957801Y764809D01*
X1957103Y761299D01*
X1973347D01*
Y777543D01*
D02*
G37*
G36*
X111323Y888423D02*
X96914Y887003D01*
X83059Y882801D01*
X70291Y875976D01*
X59099Y866791D01*
X49914Y855599D01*
X43089Y842830D01*
X38886Y828975D01*
X37467Y814567D01*
X38886Y800158D01*
X43089Y786304D01*
X49914Y773535D01*
X59099Y762343D01*
X70291Y753158D01*
X83059Y746333D01*
X96914Y742130D01*
X111323Y740711D01*
X125731Y742130D01*
X139586Y746333D01*
X152355Y753158D01*
X163547Y762343D01*
X172732Y773535D01*
X179556Y786304D01*
X183759Y800158D01*
X185178Y814567D01*
X183759Y828975D01*
X179556Y842830D01*
X172732Y855599D01*
X163547Y866791D01*
X152355Y875976D01*
X139586Y882801D01*
X125731Y887003D01*
X111323Y888423D01*
D02*
G37*
G36*
X1999590Y751299D02*
X1983347D01*
Y735056D01*
X1986857Y735754D01*
X1994071Y740574D01*
X1998892Y747789D01*
X1999590Y751299D01*
D02*
G37*
G36*
X1973347D02*
X1957103D01*
X1957801Y747789D01*
X1962622Y740574D01*
X1969836Y735754D01*
X1973347Y735056D01*
Y751299D01*
D02*
G37*
G36*
X1983347Y726755D02*
Y710512D01*
X1999590D01*
X1998892Y714022D01*
X1994072Y721237D01*
X1986857Y726057D01*
X1983347Y726755D01*
D02*
G37*
G36*
X1973347D02*
X1969836Y726057D01*
X1962622Y721237D01*
X1957801Y714022D01*
X1957103Y710512D01*
X1973347D01*
Y726755D01*
D02*
G37*
G36*
X379016Y689942D02*
Y673698D01*
X395259D01*
X394561Y677208D01*
X389741Y684423D01*
X382526Y689243D01*
X379016Y689942D01*
D02*
G37*
G36*
X369016D02*
X365505Y689243D01*
X358291Y684423D01*
X353470Y677208D01*
X352772Y673698D01*
X369016D01*
Y689942D01*
D02*
G37*
G36*
X1999590Y700512D02*
X1957103D01*
X1957801Y697002D01*
X1962622Y689787D01*
X1969836Y684966D01*
X1974430Y684053D01*
Y678955D01*
X1969836Y678041D01*
X1962622Y673220D01*
X1957801Y666005D01*
X1957103Y662495D01*
X1999590D01*
X1998892Y666005D01*
X1994072Y673220D01*
X1986857Y678041D01*
X1982263Y678955D01*
Y684053D01*
X1986857Y684966D01*
X1994072Y689787D01*
X1998892Y697002D01*
X1999590Y700512D01*
D02*
G37*
G36*
X395259Y663698D02*
X379016D01*
Y647454D01*
X382526Y648152D01*
X389741Y652973D01*
X394561Y660188D01*
X395259Y663698D01*
D02*
G37*
G36*
X369016D02*
X352772D01*
X353470Y660188D01*
X358291Y652973D01*
X365505Y648152D01*
X369016Y647454D01*
Y663698D01*
D02*
G37*
G36*
X290750Y664981D02*
X274096D01*
Y640039D01*
X320033D01*
X319671Y642789D01*
X316680Y650010D01*
X311922Y656211D01*
X305721Y660969D01*
X298499Y663960D01*
X290750Y664981D01*
D02*
G37*
G36*
X116340D02*
X109529D01*
Y640039D01*
X145623D01*
X145261Y642789D01*
X142270Y650010D01*
X137512Y656211D01*
X131311Y660969D01*
X124090Y663960D01*
X116340Y664981D01*
D02*
G37*
G36*
X99529D02*
X92718D01*
X84969Y663960D01*
X77748Y660969D01*
X71547Y656211D01*
X66789Y650010D01*
X63797Y642789D01*
X63435Y640039D01*
X99529D01*
Y664981D01*
D02*
G37*
G36*
X264096D02*
X247443D01*
X239693Y663960D01*
X232472Y660969D01*
X226271Y656211D01*
X221513Y650010D01*
X218522Y642789D01*
X218160Y640039D01*
X264096D01*
Y664981D01*
D02*
G37*
G36*
X1999590Y652495D02*
X1957103D01*
X1957801Y648985D01*
X1962622Y641770D01*
X1969836Y636950D01*
X1974744Y635974D01*
Y630876D01*
X1969836Y629899D01*
X1962622Y625079D01*
X1957801Y617864D01*
X1957103Y614354D01*
X1999590D01*
X1998892Y617864D01*
X1994072Y625079D01*
X1986857Y629899D01*
X1981949Y630876D01*
Y635974D01*
X1986857Y636950D01*
X1994072Y641770D01*
X1998892Y648985D01*
X1999590Y652495D01*
D02*
G37*
G36*
X320033Y630039D02*
X274096D01*
Y605098D01*
X290750D01*
X298499Y606118D01*
X305721Y609110D01*
X311922Y613868D01*
X316680Y620069D01*
X319671Y627290D01*
X320033Y630039D01*
D02*
G37*
G36*
X264096D02*
X218160D01*
X218522Y627290D01*
X221513Y620069D01*
X226271Y613868D01*
X232472Y609110D01*
X239693Y606118D01*
X247443Y605098D01*
X264096D01*
Y630039D01*
D02*
G37*
G36*
X145623D02*
X109529D01*
Y605098D01*
X116340D01*
X124090Y606118D01*
X131311Y609110D01*
X137512Y613868D01*
X142270Y620069D01*
X145261Y627290D01*
X145623Y630039D01*
D02*
G37*
G36*
X99529D02*
X63435D01*
X63797Y627290D01*
X66789Y620069D01*
X71547Y613868D01*
X77748Y609110D01*
X84969Y606118D01*
X92718Y605098D01*
X99529D01*
Y630039D01*
D02*
G37*
G36*
X1999590Y604354D02*
X1983347D01*
Y588110D01*
X1986857Y588808D01*
X1994072Y593629D01*
X1998892Y600844D01*
X1999590Y604354D01*
D02*
G37*
G36*
X1973347D02*
X1957103D01*
X1957801Y600844D01*
X1962622Y593629D01*
X1969836Y588808D01*
X1973347Y588110D01*
Y604354D01*
D02*
G37*
G36*
X1914449Y593021D02*
Y576777D01*
X1930693D01*
X1929994Y580287D01*
X1925174Y587502D01*
X1917959Y592323D01*
X1914449Y593021D01*
D02*
G37*
G36*
X1904449D02*
X1900939Y592323D01*
X1893724Y587502D01*
X1888903Y580287D01*
X1888205Y576777D01*
X1904449D01*
Y593021D01*
D02*
G37*
G36*
X1865236Y593016D02*
Y576773D01*
X1881480D01*
X1880782Y580283D01*
X1875961Y587497D01*
X1868746Y592318D01*
X1865236Y593016D01*
D02*
G37*
G36*
X1855236D02*
X1851726Y592318D01*
X1844511Y587497D01*
X1839691Y580283D01*
X1838993Y576773D01*
X1855236D01*
Y593016D01*
D02*
G37*
G36*
X248230Y595355D02*
X241872Y594090D01*
X236482Y590488D01*
X232880Y585098D01*
X231616Y578740D01*
X232880Y572382D01*
X236482Y566992D01*
X241872Y563390D01*
X248230Y562126D01*
X254588Y563390D01*
X259978Y566992D01*
X263580Y572382D01*
X264845Y578740D01*
X263580Y585098D01*
X259978Y590488D01*
X254588Y594090D01*
X248230Y595355D01*
D02*
G37*
G36*
X1645963Y575513D02*
Y559269D01*
X1662207D01*
X1661508Y562780D01*
X1656688Y569994D01*
X1649473Y574815D01*
X1645963Y575513D01*
D02*
G37*
G36*
X1635963D02*
X1632453Y574815D01*
X1625238Y569994D01*
X1620417Y562780D01*
X1619719Y559269D01*
X1635963D01*
Y575513D01*
D02*
G37*
G36*
X1816024Y573938D02*
Y557695D01*
X1832267D01*
X1831569Y561205D01*
X1826748Y568420D01*
X1819534Y573240D01*
X1816024Y573938D01*
D02*
G37*
G36*
X1806024D02*
X1802513Y573240D01*
X1795299Y568420D01*
X1790478Y561205D01*
X1789780Y557695D01*
X1806024D01*
Y573938D01*
D02*
G37*
G36*
X1754016D02*
Y557695D01*
X1770259D01*
X1769561Y561205D01*
X1764741Y568420D01*
X1757526Y573240D01*
X1754016Y573938D01*
D02*
G37*
G36*
X1744016D02*
X1740505Y573240D01*
X1733291Y568420D01*
X1728470Y561205D01*
X1727772Y557695D01*
X1744016D01*
Y573938D01*
D02*
G37*
G36*
X1695943D02*
Y557695D01*
X1712187D01*
X1711489Y561205D01*
X1706668Y568420D01*
X1699454Y573240D01*
X1695943Y573938D01*
D02*
G37*
G36*
X1685943D02*
X1682433Y573240D01*
X1675218Y568420D01*
X1670398Y561205D01*
X1669700Y557695D01*
X1685943D01*
Y573938D01*
D02*
G37*
G36*
X1419173Y570153D02*
Y553909D01*
X1435417D01*
X1434719Y557419D01*
X1429898Y564634D01*
X1422683Y569454D01*
X1419173Y570153D01*
D02*
G37*
G36*
X1409173D02*
X1405663Y569454D01*
X1398448Y564634D01*
X1393628Y557419D01*
X1392929Y553909D01*
X1409173D01*
Y570153D01*
D02*
G37*
G36*
X1489252Y568578D02*
Y552334D01*
X1505496D01*
X1504798Y555844D01*
X1499977Y563059D01*
X1492762Y567880D01*
X1489252Y568578D01*
D02*
G37*
G36*
X1479252D02*
X1475742Y567880D01*
X1468527Y563059D01*
X1463707Y555844D01*
X1463008Y552334D01*
X1479252D01*
Y568578D01*
D02*
G37*
G36*
X1930693Y566777D02*
X1914449D01*
Y550534D01*
X1917959Y551232D01*
X1925174Y556052D01*
X1929994Y563267D01*
X1930693Y566777D01*
D02*
G37*
G36*
X1904449D02*
X1888205D01*
X1888903Y563267D01*
X1893724Y556052D01*
X1900939Y551232D01*
X1904449Y550534D01*
Y566777D01*
D02*
G37*
G36*
X1881480Y566773D02*
X1865236D01*
Y550529D01*
X1868746Y551227D01*
X1875961Y556048D01*
X1880782Y563262D01*
X1881480Y566773D01*
D02*
G37*
G36*
X1855236D02*
X1838993D01*
X1839691Y563262D01*
X1844511Y556048D01*
X1851726Y551227D01*
X1855236Y550529D01*
Y566773D01*
D02*
G37*
G36*
X1662207Y549269D02*
X1645963D01*
Y533026D01*
X1649473Y533724D01*
X1656688Y538545D01*
X1661508Y545759D01*
X1662207Y549269D01*
D02*
G37*
G36*
X1635963D02*
X1619719D01*
X1620417Y545759D01*
X1625238Y538545D01*
X1632453Y533724D01*
X1635963Y533026D01*
Y549269D01*
D02*
G37*
G36*
X1832267Y547695D02*
X1816024D01*
Y531451D01*
X1819534Y532149D01*
X1826748Y536970D01*
X1831569Y544184D01*
X1832267Y547695D01*
D02*
G37*
G36*
X1806024D02*
X1789780D01*
X1790478Y544184D01*
X1795299Y536970D01*
X1802513Y532149D01*
X1806024Y531451D01*
Y547695D01*
D02*
G37*
G36*
X1770259D02*
X1754016D01*
Y531451D01*
X1757526Y532149D01*
X1764741Y536970D01*
X1769561Y544184D01*
X1770259Y547695D01*
D02*
G37*
G36*
X1744016D02*
X1727772D01*
X1728470Y544184D01*
X1733291Y536970D01*
X1740505Y532149D01*
X1744016Y531451D01*
Y547695D01*
D02*
G37*
G36*
X1712187D02*
X1695943D01*
Y531451D01*
X1699454Y532149D01*
X1706668Y536970D01*
X1711489Y544184D01*
X1712187Y547695D01*
D02*
G37*
G36*
X1685943D02*
X1669700D01*
X1670398Y544184D01*
X1675218Y536970D01*
X1682433Y532149D01*
X1685943Y531451D01*
Y547695D01*
D02*
G37*
G36*
X1435417Y543909D02*
X1419173D01*
Y527665D01*
X1422683Y528363D01*
X1429898Y533184D01*
X1434719Y540399D01*
X1435417Y543909D01*
D02*
G37*
G36*
X1409173D02*
X1392929D01*
X1393628Y540399D01*
X1398448Y533184D01*
X1405663Y528363D01*
X1409173Y527665D01*
Y543909D01*
D02*
G37*
G36*
X1505496Y542334D02*
X1489252D01*
Y526090D01*
X1492762Y526789D01*
X1499977Y531609D01*
X1504798Y538824D01*
X1505496Y542334D01*
D02*
G37*
G36*
X1479252D02*
X1463008D01*
X1463707Y538824D01*
X1468527Y531609D01*
X1475742Y526789D01*
X1479252Y526090D01*
Y542334D01*
D02*
G37*
G36*
X644764Y523416D02*
Y507172D01*
X661008D01*
X660309Y510682D01*
X655489Y517897D01*
X648274Y522718D01*
X644764Y523416D01*
D02*
G37*
G36*
X634764D02*
X631254Y522718D01*
X624039Y517897D01*
X619218Y510682D01*
X618520Y507172D01*
X634764D01*
Y523416D01*
D02*
G37*
G36*
X761323Y898038D02*
X752660Y896898D01*
X744587Y893554D01*
X737655Y888235D01*
X732336Y881303D01*
X728992Y873230D01*
X727851Y864567D01*
X728992Y855904D01*
X732336Y847831D01*
X737655Y840899D01*
X744587Y835580D01*
X752660Y832236D01*
X761323Y831096D01*
X769986Y832236D01*
X778058Y835580D01*
X779688Y836830D01*
X813227Y803290D01*
X815377Y801854D01*
X817913Y801349D01*
X1311286D01*
Y722292D01*
X1112205D01*
X1109526Y721183D01*
X1108416Y718504D01*
Y586332D01*
X1108972Y584991D01*
X1109514Y583666D01*
X1109522Y583662D01*
X1109526Y583654D01*
X1110858Y583102D01*
X1112188Y582544D01*
X1155179Y582352D01*
X1155713Y582571D01*
X1156287Y582513D01*
X1157005Y583099D01*
X1157863Y583450D01*
X1158086Y583982D01*
X1158533Y584347D01*
X1161214Y589336D01*
X1162024Y589911D01*
X1163504Y590687D01*
X1166452Y591144D01*
X1170128Y588688D01*
X1176102Y587500D01*
X1182076Y588688D01*
X1185629Y591061D01*
X1189483Y590091D01*
X1190275Y589651D01*
X1190875Y589188D01*
X1193540Y584176D01*
X1193979Y583814D01*
X1194194Y583288D01*
X1195056Y582926D01*
X1195777Y582332D01*
X1196343Y582386D01*
X1196868Y582166D01*
X1211048Y582103D01*
X1308695Y581668D01*
X1309229Y581886D01*
X1309804Y581828D01*
X1310521Y582414D01*
X1311379Y582765D01*
X1311602Y583297D01*
X1312049Y583663D01*
X1314730Y588651D01*
X1314746Y588811D01*
X1316121Y589890D01*
X1316882Y590270D01*
X1319739Y591179D01*
X1319944Y591203D01*
X1322766Y589317D01*
X1328740Y588129D01*
X1334714Y589317D01*
X1337455Y591149D01*
X1337648Y591123D01*
X1340783Y590056D01*
X1341165Y589849D01*
X1342627Y588649D01*
X1342640Y588511D01*
X1345304Y583499D01*
X1345743Y583137D01*
X1345959Y582611D01*
X1346821Y582249D01*
X1347542Y581655D01*
X1348108Y581709D01*
X1348632Y581489D01*
X1516553Y580740D01*
D01*
X1517307Y580737D01*
Y427165D01*
X1283750D01*
X1282040Y431457D01*
X1281998Y431885D01*
X1286508Y433068D01*
X1288038Y433372D01*
X1288365Y433591D01*
X1295253Y438193D01*
X1300073Y445408D01*
X1300771Y448918D01*
X1258284D01*
X1258982Y445408D01*
X1263803Y438193D01*
X1270690Y433591D01*
X1271017Y433372D01*
X1272547Y433068D01*
X1277057Y431885D01*
X1277015Y431457D01*
X1275305Y427165D01*
X1112205D01*
X1109526Y426056D01*
X1108416Y423377D01*
Y365458D01*
X1108772Y364598D01*
X1108863Y363672D01*
X1109307Y363308D01*
X1109526Y362779D01*
X1110385Y362423D01*
X1111105Y361833D01*
X1116105Y360316D01*
X1116620Y360367D01*
X1117526Y359533D01*
X1119297Y356407D01*
X1119464Y355623D01*
X1119436Y355580D01*
X1118247Y349606D01*
X1119436Y343632D01*
X1119464Y343590D01*
X1119297Y342805D01*
X1117526Y339680D01*
X1116620Y338846D01*
X1116105Y338897D01*
X1111105Y337380D01*
X1110385Y336790D01*
X1109526Y336433D01*
X1109307Y335904D01*
X1108863Y335541D01*
X1108772Y334614D01*
X1108416Y333755D01*
Y320844D01*
X1109526Y318166D01*
X1112205Y317056D01*
X1218519D01*
Y249037D01*
X1219567Y243770D01*
X1222551Y239304D01*
X1347558Y114297D01*
Y94785D01*
X1344587Y93554D01*
X1337655Y88235D01*
X1332336Y81303D01*
X1328992Y73230D01*
X1327851Y64567D01*
X1328992Y55904D01*
X1332336Y47831D01*
X1337655Y40899D01*
X1344587Y35580D01*
X1352660Y32236D01*
X1361323Y31096D01*
X1369986Y32236D01*
X1378059Y35580D01*
X1384991Y40899D01*
X1390310Y47831D01*
X1391541Y50802D01*
X1431105D01*
X1432336Y47831D01*
X1437655Y40899D01*
X1444587Y35580D01*
X1452660Y32236D01*
X1461323Y31096D01*
X1469986Y32236D01*
X1478059Y35580D01*
X1484991Y40899D01*
X1490310Y47831D01*
X1493654Y55904D01*
X1494794Y64567D01*
X1493654Y73230D01*
X1490310Y81303D01*
X1484991Y88235D01*
X1478059Y93554D01*
X1469986Y96898D01*
X1461323Y98038D01*
X1452660Y96898D01*
X1444587Y93554D01*
X1437655Y88235D01*
X1432336Y81303D01*
X1431105Y78331D01*
X1391541D01*
X1390310Y81303D01*
X1384991Y88235D01*
X1378059Y93554D01*
X1375087Y94785D01*
Y119998D01*
X1374040Y125266D01*
X1371056Y129731D01*
X1246048Y254739D01*
Y317056D01*
X1582667Y317056D01*
X1583152Y317257D01*
X1583672Y317192D01*
X1584443Y317792D01*
X1585346Y318166D01*
X1585547Y318650D01*
X1585961Y318973D01*
X1587277Y321289D01*
X1590551Y322963D01*
X1618978D01*
X1733216Y208725D01*
X1732420Y204724D01*
X1733609Y198750D01*
X1736993Y193686D01*
X1742057Y190302D01*
X1748032Y189113D01*
X1754006Y190302D01*
X1759070Y193686D01*
X1762454Y198750D01*
X1763642Y204724D01*
X1762454Y210698D01*
X1759070Y215763D01*
X1754006Y219147D01*
X1748032Y220335D01*
X1744031Y219540D01*
X1627553Y336017D01*
X1625072Y337675D01*
X1622146Y338257D01*
X1608119D01*
Y412443D01*
X1607009Y415122D01*
X1604331Y416232D01*
X1592278D01*
X1591238Y415801D01*
X1590137Y415568D01*
X1586920Y413364D01*
X1583133Y414186D01*
X1581509Y415049D01*
X1580839Y418417D01*
X1577455Y423482D01*
X1572390Y426866D01*
X1566416Y428054D01*
X1565718Y428627D01*
Y453162D01*
X1565136Y456088D01*
X1563478Y458569D01*
X1563019Y461160D01*
X1564382Y463025D01*
X1564660Y464171D01*
X1565111Y465260D01*
Y483929D01*
X1574689D01*
X1575548Y484285D01*
X1576475Y484377D01*
X1576838Y484820D01*
X1577368Y485039D01*
X1577724Y485898D01*
X1578314Y486618D01*
X1579831Y491618D01*
X1579739Y492544D01*
X1579810Y492898D01*
X1579955Y493489D01*
X1583523Y496870D01*
X1586889Y496200D01*
X1592863Y497388D01*
X1597928Y500772D01*
X1601312Y505837D01*
X1602500Y511811D01*
X1601312Y517785D01*
X1599089Y521111D01*
X1599741Y524369D01*
X1600681Y525905D01*
X1601117Y526389D01*
X1606117Y529061D01*
X1606480Y529504D01*
X1607009Y529723D01*
X1607366Y530583D01*
X1607956Y531303D01*
X1607900Y531873D01*
X1608119Y532402D01*
Y718504D01*
X1607009Y721183D01*
X1604331Y722292D01*
X1324541Y722292D01*
Y807976D01*
X1324036Y810513D01*
X1322600Y812663D01*
X1320450Y814099D01*
X1317913Y814604D01*
X820659D01*
X789060Y846202D01*
X790310Y847831D01*
X793654Y855904D01*
X794794Y864567D01*
X793654Y873230D01*
X790310Y881303D01*
X784991Y888235D01*
X778058Y893554D01*
X769986Y896898D01*
X761323Y898038D01*
D02*
G37*
G36*
X661008Y497172D02*
X644764D01*
Y480928D01*
X648274Y481627D01*
X655489Y486447D01*
X660309Y493662D01*
X661008Y497172D01*
D02*
G37*
G36*
X634764D02*
X618520D01*
X619218Y493662D01*
X624039Y486447D01*
X631254Y481627D01*
X634764Y480928D01*
Y497172D01*
D02*
G37*
G36*
X1489252Y483081D02*
Y466837D01*
X1505496D01*
X1504798Y470347D01*
X1499977Y477562D01*
X1492762Y482382D01*
X1489252Y483081D01*
D02*
G37*
G36*
X1479252D02*
X1475742Y482382D01*
X1468527Y477562D01*
X1463707Y470347D01*
X1463008Y466837D01*
X1479252D01*
Y483081D01*
D02*
G37*
G36*
X1419173Y481506D02*
Y465262D01*
X1435417D01*
X1434719Y468772D01*
X1429898Y475987D01*
X1422683Y480808D01*
X1419173Y481506D01*
D02*
G37*
G36*
X1409173D02*
X1405663Y480808D01*
X1398448Y475987D01*
X1393628Y468772D01*
X1392929Y465262D01*
X1409173D01*
Y481506D01*
D02*
G37*
G36*
X1284528Y475162D02*
Y458918D01*
X1300771D01*
X1300073Y462428D01*
X1295253Y469643D01*
X1288038Y474463D01*
X1284528Y475162D01*
D02*
G37*
G36*
X1274528D02*
X1271017Y474463D01*
X1263803Y469643D01*
X1258982Y462428D01*
X1258284Y458918D01*
X1274528D01*
Y475162D01*
D02*
G37*
G36*
X1087677Y473406D02*
Y457162D01*
X1103921D01*
X1103223Y460673D01*
X1098402Y467887D01*
X1091187Y472708D01*
X1087677Y473406D01*
D02*
G37*
G36*
X1077677D02*
X1074167Y472708D01*
X1066952Y467887D01*
X1062132Y460673D01*
X1061434Y457162D01*
X1077677D01*
Y473406D01*
D02*
G37*
G36*
X1505496Y456837D02*
X1489252D01*
Y440593D01*
X1492762Y441291D01*
X1499977Y446112D01*
X1504798Y453327D01*
X1505496Y456837D01*
D02*
G37*
G36*
X1479252D02*
X1463008D01*
X1463707Y453327D01*
X1468527Y446112D01*
X1475742Y441291D01*
X1479252Y440593D01*
Y456837D01*
D02*
G37*
G36*
X1435417Y455262D02*
X1419173D01*
Y439018D01*
X1422683Y439717D01*
X1429898Y444537D01*
X1434719Y451752D01*
X1435417Y455262D01*
D02*
G37*
G36*
X1409173D02*
X1392929D01*
X1393628Y451752D01*
X1398448Y444537D01*
X1405663Y439717D01*
X1409173Y439018D01*
Y455262D01*
D02*
G37*
G36*
X1103921Y447162D02*
X1087677D01*
Y430919D01*
X1091187Y431617D01*
X1098402Y436438D01*
X1103223Y443652D01*
X1103921Y447162D01*
D02*
G37*
G36*
X1077677D02*
X1061434D01*
X1062132Y443652D01*
X1066952Y436438D01*
X1074167Y431617D01*
X1077677Y430919D01*
Y447162D01*
D02*
G37*
G36*
X627978Y382068D02*
Y365824D01*
X644222D01*
X643524Y369334D01*
X638703Y376549D01*
X631489Y381369D01*
X627978Y382068D01*
D02*
G37*
G36*
X617978D02*
X614468Y381369D01*
X607253Y376549D01*
X602433Y369334D01*
X601735Y365824D01*
X617978D01*
Y382068D01*
D02*
G37*
G36*
X1806181Y374000D02*
Y357756D01*
X1822425D01*
X1821727Y361266D01*
X1816906Y368481D01*
X1809691Y373301D01*
X1806181Y374000D01*
D02*
G37*
G36*
X1796181D02*
X1792671Y373301D01*
X1785456Y368481D01*
X1780636Y361266D01*
X1779937Y357756D01*
X1796181D01*
Y374000D01*
D02*
G37*
G36*
X1754016Y372425D02*
Y356181D01*
X1770259D01*
X1769561Y359691D01*
X1764741Y366906D01*
X1757526Y371727D01*
X1754016Y372425D01*
D02*
G37*
G36*
X1744016D02*
X1740505Y371727D01*
X1733291Y366906D01*
X1728470Y359691D01*
X1727772Y356181D01*
X1744016D01*
Y372425D01*
D02*
G37*
G36*
X1704034D02*
Y356181D01*
X1720277D01*
X1719579Y359691D01*
X1714759Y366906D01*
X1707544Y371727D01*
X1704034Y372425D01*
D02*
G37*
G36*
X1694034D02*
X1690524Y371727D01*
X1683309Y366906D01*
X1678488Y359691D01*
X1677790Y356181D01*
X1694034D01*
Y372425D01*
D02*
G37*
G36*
X644222Y355824D02*
X627978D01*
Y339580D01*
X631489Y340278D01*
X638703Y345099D01*
X643524Y352314D01*
X644222Y355824D01*
D02*
G37*
G36*
X617978D02*
X601735D01*
X602433Y352314D01*
X607253Y345099D01*
X614468Y340278D01*
X617978Y339580D01*
Y355824D01*
D02*
G37*
G36*
X1983347Y352346D02*
Y336102D01*
X1999590D01*
X1998892Y339613D01*
X1994072Y346827D01*
X1986857Y351648D01*
X1983347Y352346D01*
D02*
G37*
G36*
X1973347D02*
X1969836Y351648D01*
X1962622Y346827D01*
X1957801Y339613D01*
X1957103Y336102D01*
X1973347D01*
Y352346D01*
D02*
G37*
G36*
X248230Y367796D02*
X241872Y366531D01*
X236482Y362929D01*
X232880Y357539D01*
X231616Y351181D01*
X232880Y344823D01*
X236482Y339433D01*
X241872Y335831D01*
X248230Y334567D01*
X254588Y335831D01*
X259978Y339433D01*
X263580Y344823D01*
X264845Y351181D01*
X263580Y357539D01*
X259978Y362929D01*
X254588Y366531D01*
X248230Y367796D01*
D02*
G37*
G36*
X1924291Y350771D02*
Y334527D01*
X1940535D01*
X1939837Y338038D01*
X1935016Y345252D01*
X1927802Y350073D01*
X1924291Y350771D01*
D02*
G37*
G36*
X1914291D02*
X1910781Y350073D01*
X1903566Y345252D01*
X1898746Y338038D01*
X1898048Y334527D01*
X1914291D01*
Y350771D01*
D02*
G37*
G36*
X1864252Y349196D02*
Y332953D01*
X1880496D01*
X1879797Y336463D01*
X1874977Y343678D01*
X1867762Y348498D01*
X1864252Y349196D01*
D02*
G37*
G36*
X1854252D02*
X1850742Y348498D01*
X1843527Y343678D01*
X1838706Y336463D01*
X1838008Y332953D01*
X1854252D01*
Y349196D01*
D02*
G37*
G36*
X1822425Y347756D02*
X1806181D01*
Y331512D01*
X1809691Y332210D01*
X1816906Y337031D01*
X1821727Y344246D01*
X1822425Y347756D01*
D02*
G37*
G36*
X1796181D02*
X1779937D01*
X1780636Y344246D01*
X1785456Y337031D01*
X1792671Y332210D01*
X1796181Y331512D01*
Y347756D01*
D02*
G37*
G36*
X1770259Y346181D02*
X1754016D01*
Y329937D01*
X1757526Y330636D01*
X1764741Y335456D01*
X1769561Y342671D01*
X1770259Y346181D01*
D02*
G37*
G36*
X1744016D02*
X1727772D01*
X1728470Y342671D01*
X1733291Y335456D01*
X1740505Y330636D01*
X1744016Y329937D01*
Y346181D01*
D02*
G37*
G36*
X1720277D02*
X1704034D01*
Y329937D01*
X1707544Y330636D01*
X1714759Y335456D01*
X1719579Y342671D01*
X1720277Y346181D01*
D02*
G37*
G36*
X1694034D02*
X1677790D01*
X1678488Y342671D01*
X1683309Y335456D01*
X1690524Y330636D01*
X1694034Y329937D01*
Y346181D01*
D02*
G37*
G36*
X1999590Y326102D02*
X1983347D01*
Y309859D01*
X1986857Y310557D01*
X1994072Y315377D01*
X1998892Y322592D01*
X1999590Y326102D01*
D02*
G37*
G36*
X1973347D02*
X1957103D01*
X1957801Y322592D01*
X1962622Y315377D01*
X1969836Y310557D01*
X1973347Y309859D01*
Y326102D01*
D02*
G37*
G36*
X1940535Y324527D02*
X1924291D01*
Y308284D01*
X1927802Y308982D01*
X1935016Y313803D01*
X1939837Y321017D01*
X1940535Y324527D01*
D02*
G37*
G36*
X1914291D02*
X1898048D01*
X1898746Y321017D01*
X1903566Y313803D01*
X1910781Y308982D01*
X1914291Y308284D01*
Y324527D01*
D02*
G37*
G36*
X1880496Y322953D02*
X1864252D01*
Y306709D01*
X1867762Y307407D01*
X1874977Y312228D01*
X1879797Y319442D01*
X1880496Y322953D01*
D02*
G37*
G36*
X1854252D02*
X1838008D01*
X1838706Y319442D01*
X1843527Y312228D01*
X1850742Y307407D01*
X1854252Y306709D01*
Y322953D01*
D02*
G37*
G36*
X116340Y324823D02*
X109529D01*
Y299882D01*
X145623D01*
X145261Y302631D01*
X142270Y309853D01*
X137512Y316053D01*
X131311Y320812D01*
X124090Y323803D01*
X116340Y324823D01*
D02*
G37*
G36*
X290750D02*
X274096D01*
Y299882D01*
X320033D01*
X319671Y302631D01*
X316680Y309853D01*
X311922Y316053D01*
X305721Y320812D01*
X298499Y323803D01*
X290750Y324823D01*
D02*
G37*
G36*
X99529D02*
X92718D01*
X84969Y323803D01*
X77748Y320812D01*
X71547Y316053D01*
X66789Y309853D01*
X63797Y302631D01*
X63435Y299882D01*
X99529D01*
Y324823D01*
D02*
G37*
G36*
X264096D02*
X247443D01*
X239693Y323803D01*
X232472Y320812D01*
X226271Y316053D01*
X221513Y309853D01*
X218522Y302631D01*
X218160Y299882D01*
X264096D01*
Y324823D01*
D02*
G37*
G36*
X1983347Y285417D02*
Y269173D01*
X1999590D01*
X1998892Y272683D01*
X1994072Y279898D01*
X1986857Y284719D01*
X1983347Y285417D01*
D02*
G37*
G36*
X1973347D02*
X1969836Y284719D01*
X1962622Y279898D01*
X1957801Y272683D01*
X1957103Y269173D01*
X1973347D01*
Y285417D01*
D02*
G37*
G36*
X320033Y289882D02*
X274096D01*
Y264941D01*
X290750D01*
X298499Y265961D01*
X305721Y268952D01*
X311922Y273710D01*
X316680Y279911D01*
X319671Y287132D01*
X320033Y289882D01*
D02*
G37*
G36*
X264096D02*
X218160D01*
X218522Y287132D01*
X221513Y279911D01*
X226271Y273710D01*
X232472Y268952D01*
X239693Y265961D01*
X247443Y264941D01*
X264096D01*
Y289882D01*
D02*
G37*
G36*
X145623D02*
X109529D01*
Y264941D01*
X116340D01*
X124090Y265961D01*
X131311Y268952D01*
X137512Y273710D01*
X142270Y279911D01*
X145261Y287132D01*
X145623Y289882D01*
D02*
G37*
G36*
X99529D02*
X63435D01*
X63797Y287132D01*
X66789Y279911D01*
X71547Y273710D01*
X77748Y268952D01*
X84969Y265961D01*
X92718Y264941D01*
X99529D01*
Y289882D01*
D02*
G37*
G36*
X1999590Y259173D02*
X1983347D01*
Y242929D01*
X1986857Y243628D01*
X1994072Y248448D01*
X1998892Y255663D01*
X1999590Y259173D01*
D02*
G37*
G36*
X1973347D02*
X1957103D01*
X1957801Y255663D01*
X1962622Y248448D01*
X1969836Y243628D01*
X1973347Y242929D01*
Y259173D01*
D02*
G37*
G36*
X649606Y306950D02*
X643632Y305761D01*
X638568Y302377D01*
X635184Y297313D01*
X633995Y291339D01*
X635184Y285365D01*
X638568Y280300D01*
X643632Y276916D01*
X649606Y275728D01*
X655580Y276916D01*
X660645Y280300D01*
X663592Y284711D01*
X686231D01*
X718947Y251996D01*
X721097Y250559D01*
X723633Y250055D01*
X984816D01*
X986486Y247848D01*
X983999Y242848D01*
X728759D01*
X728625Y242938D01*
X726088Y243442D01*
X702938D01*
X693710Y252670D01*
X694745Y257874D01*
X693557Y263848D01*
X690173Y268913D01*
X685108Y272297D01*
X679134Y273485D01*
X673160Y272297D01*
X668095Y268913D01*
X664711Y263848D01*
X663523Y257874D01*
X664711Y251900D01*
X668095Y246835D01*
X673160Y243451D01*
X679134Y242263D01*
X684337Y243298D01*
X695507Y232129D01*
X697657Y230692D01*
X700193Y230188D01*
X701883D01*
X704555Y225188D01*
X704081Y224478D01*
X702893Y218504D01*
X704081Y212530D01*
X707465Y207465D01*
X712530Y204081D01*
X718504Y202893D01*
X724478Y204081D01*
X729543Y207465D01*
X732490Y211877D01*
X889519D01*
X954696Y146700D01*
Y97166D01*
X952660Y96898D01*
X944587Y93554D01*
X937655Y88235D01*
X932336Y81303D01*
X928992Y73230D01*
X927851Y64567D01*
X928992Y55904D01*
X932336Y47831D01*
X937655Y40899D01*
X944587Y35580D01*
X952660Y32236D01*
X961323Y31096D01*
X969986Y32236D01*
X978058Y35580D01*
X984991Y40899D01*
X990310Y47831D01*
X993654Y55904D01*
X994794Y64567D01*
X993654Y73230D01*
X990310Y81303D01*
X984991Y88235D01*
X978058Y93554D01*
X969986Y96898D01*
X967950Y97166D01*
Y149445D01*
X967446Y151981D01*
X966009Y154131D01*
X896950Y223190D01*
X894800Y224627D01*
X895461Y229593D01*
X986924D01*
X1133586Y82932D01*
X1132336Y81303D01*
X1128992Y73230D01*
X1127851Y64567D01*
X1128992Y55904D01*
X1132336Y47831D01*
X1137655Y40899D01*
X1144587Y35580D01*
X1152660Y32236D01*
X1161323Y31096D01*
X1169986Y32236D01*
X1178059Y35580D01*
X1184991Y40899D01*
X1190310Y47831D01*
X1193654Y55904D01*
X1194794Y64567D01*
X1193654Y73230D01*
X1190310Y81303D01*
X1184991Y88235D01*
X1178059Y93554D01*
X1169986Y96898D01*
X1161323Y98038D01*
X1152660Y96898D01*
X1144587Y93554D01*
X1142958Y92304D01*
X1136653Y98609D01*
X1138724Y103609D01*
X1212908D01*
X1233586Y82932D01*
X1232336Y81303D01*
X1228992Y73230D01*
X1227851Y64567D01*
X1228992Y55904D01*
X1232336Y47831D01*
X1237655Y40899D01*
X1244587Y35580D01*
X1252660Y32236D01*
X1261323Y31096D01*
X1269986Y32236D01*
X1278059Y35580D01*
X1284991Y40899D01*
X1290310Y47831D01*
X1293654Y55904D01*
X1294794Y64567D01*
X1293654Y73230D01*
X1290310Y81303D01*
X1284991Y88235D01*
X1278059Y93554D01*
X1269986Y96898D01*
X1261323Y98038D01*
X1252660Y96898D01*
X1244587Y93554D01*
X1242958Y92304D01*
X1220340Y114922D01*
X1218190Y116359D01*
X1215653Y116864D01*
X1138871D01*
X994366Y261368D01*
X992216Y262805D01*
X989680Y263309D01*
X726378D01*
X693663Y296025D01*
X691513Y297461D01*
X688976Y297966D01*
X663592D01*
X660645Y302377D01*
X655580Y305761D01*
X649606Y306950D01*
D02*
G37*
G36*
X1983347Y216519D02*
Y200276D01*
X1999590D01*
X1998892Y203786D01*
X1994071Y211000D01*
X1986857Y215821D01*
X1983347Y216519D01*
D02*
G37*
G36*
X1973347D02*
X1969836Y215821D01*
X1962622Y211000D01*
X1957801Y203786D01*
X1957103Y200276D01*
X1973347D01*
Y216519D01*
D02*
G37*
G36*
X1999590Y190276D02*
X1983347D01*
Y174032D01*
X1986857Y174730D01*
X1994071Y179551D01*
X1998892Y186765D01*
X1999590Y190276D01*
D02*
G37*
G36*
X1973347D02*
X1957103D01*
X1957801Y186765D01*
X1962622Y179551D01*
X1969836Y174730D01*
X1973347Y174032D01*
Y190276D01*
D02*
G37*
G36*
X1983347Y157464D02*
Y141220D01*
X1999590D01*
X1998892Y144731D01*
X1994071Y151945D01*
X1986857Y156766D01*
X1983347Y157464D01*
D02*
G37*
G36*
X1973347D02*
X1969836Y156766D01*
X1962622Y151945D01*
X1957801Y144731D01*
X1957103Y141220D01*
X1973347D01*
Y157464D01*
D02*
G37*
G36*
X1999590Y131220D02*
X1983347D01*
Y114977D01*
X1986857Y115675D01*
X1994071Y120496D01*
X1998892Y127710D01*
X1999590Y131220D01*
D02*
G37*
G36*
X1973347D02*
X1957103D01*
X1957801Y127710D01*
X1962622Y120496D01*
X1969836Y115675D01*
X1973347Y114977D01*
Y131220D01*
D02*
G37*
G36*
X1766323Y103936D02*
Y69567D01*
X1800692D01*
X1799986Y74927D01*
X1795987Y84581D01*
X1789626Y92871D01*
X1781336Y99232D01*
X1771683Y103230D01*
X1766323Y103936D01*
D02*
G37*
G36*
X1756323D02*
X1750963Y103230D01*
X1741309Y99232D01*
X1733019Y92871D01*
X1726658Y84581D01*
X1722659Y74927D01*
X1721954Y69567D01*
X1756323D01*
Y103936D01*
D02*
G37*
G36*
X1666323D02*
Y69567D01*
X1700692D01*
X1699986Y74927D01*
X1695987Y84581D01*
X1689626Y92871D01*
X1681336Y99232D01*
X1671683Y103230D01*
X1666323Y103936D01*
D02*
G37*
G36*
X1656323D02*
X1650963Y103230D01*
X1641309Y99232D01*
X1633019Y92871D01*
X1626658Y84581D01*
X1622659Y74927D01*
X1621954Y69567D01*
X1656323D01*
Y103936D01*
D02*
G37*
G36*
X1566323D02*
Y69567D01*
X1600692D01*
X1599986Y74927D01*
X1595987Y84581D01*
X1589626Y92871D01*
X1581336Y99232D01*
X1571683Y103230D01*
X1566323Y103936D01*
D02*
G37*
G36*
X1556323D02*
X1550963Y103230D01*
X1541309Y99232D01*
X1533019Y92871D01*
X1526658Y84581D01*
X1522659Y74927D01*
X1521954Y69567D01*
X1556323D01*
Y103936D01*
D02*
G37*
G36*
X666323D02*
Y69567D01*
X700692D01*
X699986Y74927D01*
X695987Y84581D01*
X689626Y92871D01*
X681337Y99232D01*
X671683Y103230D01*
X666323Y103936D01*
D02*
G37*
G36*
X656323D02*
X650963Y103230D01*
X641309Y99232D01*
X633019Y92871D01*
X626658Y84581D01*
X622659Y74927D01*
X621954Y69567D01*
X656323D01*
Y103936D01*
D02*
G37*
G36*
X566323D02*
Y69567D01*
X600692D01*
X599986Y74927D01*
X595987Y84581D01*
X589626Y92871D01*
X581337Y99232D01*
X571683Y103230D01*
X566323Y103936D01*
D02*
G37*
G36*
X556323D02*
X550963Y103230D01*
X541309Y99232D01*
X533019Y92871D01*
X526658Y84581D01*
X522659Y74927D01*
X521954Y69567D01*
X556323D01*
Y103936D01*
D02*
G37*
G36*
X466323D02*
Y69567D01*
X500692D01*
X499986Y74927D01*
X495988Y84581D01*
X489626Y92871D01*
X481337Y99232D01*
X471683Y103230D01*
X466323Y103936D01*
D02*
G37*
G36*
X456323D02*
X450963Y103230D01*
X441309Y99232D01*
X433019Y92871D01*
X426658Y84581D01*
X422659Y74927D01*
X421954Y69567D01*
X456323D01*
Y103936D01*
D02*
G37*
G36*
X366323D02*
Y69567D01*
X400692D01*
X399986Y74927D01*
X395988Y84581D01*
X389626Y92871D01*
X381337Y99232D01*
X371683Y103230D01*
X366323Y103936D01*
D02*
G37*
G36*
X356323D02*
X350963Y103230D01*
X341309Y99232D01*
X333019Y92871D01*
X326658Y84581D01*
X322659Y74927D01*
X321954Y69567D01*
X356323D01*
Y103936D01*
D02*
G37*
G36*
X301008Y104252D02*
X266323D01*
Y69567D01*
X301008D01*
Y104252D01*
D02*
G37*
G36*
X256323D02*
X221638D01*
Y69567D01*
X256323D01*
Y104252D01*
D02*
G37*
G36*
X111323Y188423D02*
X96914Y187003D01*
X83059Y182801D01*
X70291Y175976D01*
X59099Y166791D01*
X49914Y155599D01*
X43089Y142830D01*
X38886Y128975D01*
X37467Y114567D01*
X38886Y100158D01*
X43089Y86304D01*
X49914Y73535D01*
X59099Y62343D01*
X70291Y53158D01*
X83059Y46333D01*
X96914Y42130D01*
X111323Y40711D01*
X125731Y42130D01*
X139586Y46333D01*
X152355Y53158D01*
X163547Y62343D01*
X172732Y73535D01*
X179556Y86304D01*
X183759Y100158D01*
X185178Y114567D01*
X183759Y128975D01*
X179556Y142830D01*
X172732Y155599D01*
X163547Y166791D01*
X152355Y175976D01*
X139586Y182801D01*
X125731Y187003D01*
X111323Y188423D01*
D02*
G37*
G36*
X1911323Y138485D02*
X1898662Y136819D01*
X1886864Y131932D01*
X1876732Y124157D01*
X1868958Y114026D01*
X1864071Y102228D01*
X1862404Y89567D01*
X1864071Y76906D01*
X1868958Y65108D01*
X1876732Y54976D01*
X1886864Y47202D01*
X1898662Y42315D01*
X1911323Y40648D01*
X1923984Y42315D01*
X1935782Y47202D01*
X1945913Y54976D01*
X1953688Y65108D01*
X1958574Y76906D01*
X1960241Y89567D01*
X1958574Y102228D01*
X1953688Y114026D01*
X1945913Y124157D01*
X1935782Y131932D01*
X1923984Y136819D01*
X1911323Y138485D01*
D02*
G37*
G36*
X1061323Y98038D02*
X1052660Y96898D01*
X1044587Y93554D01*
X1037655Y88235D01*
X1032336Y81303D01*
X1028992Y73230D01*
X1027851Y64567D01*
X1028992Y55904D01*
X1032336Y47831D01*
X1037655Y40899D01*
X1044587Y35580D01*
X1052660Y32236D01*
X1061323Y31096D01*
X1069986Y32236D01*
X1078059Y35580D01*
X1084991Y40899D01*
X1090310Y47831D01*
X1093654Y55904D01*
X1094794Y64567D01*
X1093654Y73230D01*
X1090310Y81303D01*
X1084991Y88235D01*
X1078059Y93554D01*
X1069986Y96898D01*
X1061323Y98038D01*
D02*
G37*
G36*
X861323D02*
X852660Y96898D01*
X844587Y93554D01*
X837655Y88235D01*
X832336Y81303D01*
X828992Y73230D01*
X827851Y64567D01*
X828992Y55904D01*
X832336Y47831D01*
X837655Y40899D01*
X844587Y35580D01*
X852660Y32236D01*
X861323Y31096D01*
X869986Y32236D01*
X878058Y35580D01*
X884991Y40899D01*
X890310Y47831D01*
X893654Y55904D01*
X894794Y64567D01*
X893654Y73230D01*
X890310Y81303D01*
X884991Y88235D01*
X878058Y93554D01*
X869986Y96898D01*
X861323Y98038D01*
D02*
G37*
G36*
X761323D02*
X752660Y96898D01*
X744587Y93554D01*
X737655Y88235D01*
X732336Y81303D01*
X728992Y73230D01*
X727851Y64567D01*
X728992Y55904D01*
X732336Y47831D01*
X737655Y40899D01*
X744587Y35580D01*
X752660Y32236D01*
X761323Y31096D01*
X769986Y32236D01*
X778058Y35580D01*
X784991Y40899D01*
X790310Y47831D01*
X793654Y55904D01*
X794794Y64567D01*
X793654Y73230D01*
X790310Y81303D01*
X784991Y88235D01*
X778058Y93554D01*
X769986Y96898D01*
X761323Y98038D01*
D02*
G37*
G36*
X1800692Y59567D02*
X1766323D01*
Y25198D01*
X1771683Y25903D01*
X1781336Y29902D01*
X1789626Y36263D01*
X1795987Y44553D01*
X1799986Y54207D01*
X1800692Y59567D01*
D02*
G37*
G36*
X1756323D02*
X1721954D01*
X1722659Y54207D01*
X1726658Y44553D01*
X1733019Y36263D01*
X1741309Y29902D01*
X1750963Y25903D01*
X1756323Y25198D01*
Y59567D01*
D02*
G37*
G36*
X1700692D02*
X1666323D01*
Y25198D01*
X1671683Y25903D01*
X1681336Y29902D01*
X1689626Y36263D01*
X1695987Y44553D01*
X1699986Y54207D01*
X1700692Y59567D01*
D02*
G37*
G36*
X1656323D02*
X1621954D01*
X1622659Y54207D01*
X1626658Y44553D01*
X1633019Y36263D01*
X1641309Y29902D01*
X1650963Y25903D01*
X1656323Y25198D01*
Y59567D01*
D02*
G37*
G36*
X1600692D02*
X1566323D01*
Y25198D01*
X1571683Y25903D01*
X1581336Y29902D01*
X1589626Y36263D01*
X1595987Y44553D01*
X1599986Y54207D01*
X1600692Y59567D01*
D02*
G37*
G36*
X1556323D02*
X1521954D01*
X1522659Y54207D01*
X1526658Y44553D01*
X1533019Y36263D01*
X1541309Y29902D01*
X1550963Y25903D01*
X1556323Y25198D01*
Y59567D01*
D02*
G37*
G36*
X700692D02*
X666323D01*
Y25198D01*
X671683Y25903D01*
X681337Y29902D01*
X689626Y36263D01*
X695987Y44553D01*
X699986Y54207D01*
X700692Y59567D01*
D02*
G37*
G36*
X656323D02*
X621954D01*
X622659Y54207D01*
X626658Y44553D01*
X633019Y36263D01*
X641309Y29902D01*
X650963Y25903D01*
X656323Y25198D01*
Y59567D01*
D02*
G37*
G36*
X600692D02*
X566323D01*
Y25198D01*
X571683Y25903D01*
X581337Y29902D01*
X589626Y36263D01*
X595987Y44553D01*
X599986Y54207D01*
X600692Y59567D01*
D02*
G37*
G36*
X556323D02*
X521954D01*
X522659Y54207D01*
X526658Y44553D01*
X533019Y36263D01*
X541309Y29902D01*
X550963Y25903D01*
X556323Y25198D01*
Y59567D01*
D02*
G37*
G36*
X500692D02*
X466323D01*
Y25198D01*
X471683Y25903D01*
X481337Y29902D01*
X489626Y36263D01*
X495988Y44553D01*
X499986Y54207D01*
X500692Y59567D01*
D02*
G37*
G36*
X456323D02*
X421954D01*
X422659Y54207D01*
X426658Y44553D01*
X433019Y36263D01*
X441309Y29902D01*
X450963Y25903D01*
X456323Y25198D01*
Y59567D01*
D02*
G37*
G36*
X400692D02*
X366323D01*
Y25198D01*
X371683Y25903D01*
X381337Y29902D01*
X389626Y36263D01*
X395988Y44553D01*
X399986Y54207D01*
X400692Y59567D01*
D02*
G37*
G36*
X356323D02*
X321954D01*
X322659Y54207D01*
X326658Y44553D01*
X333019Y36263D01*
X341309Y29902D01*
X350963Y25903D01*
X356323Y25198D01*
Y59567D01*
D02*
G37*
G36*
X301008D02*
X266323D01*
Y24882D01*
X301008D01*
Y59567D01*
D02*
G37*
G36*
X256323D02*
X221638D01*
Y24882D01*
X256323D01*
Y59567D01*
D02*
G37*
%LPD*%
G36*
X1604331Y532402D02*
X1599331Y529730D01*
X1595399Y532356D01*
X1591889Y533055D01*
Y511811D01*
X1586889D01*
Y506811D01*
X1565645D01*
X1566343Y503301D01*
X1571164Y496086D01*
X1576205Y492718D01*
X1574689Y487718D01*
X1561323D01*
Y465260D01*
X1558071Y460809D01*
X1555145Y460227D01*
X1552664Y458569D01*
X1551006Y456088D01*
X1550424Y453162D01*
Y427768D01*
X1545871Y420953D01*
X1545172Y417443D01*
X1566416D01*
Y412443D01*
X1571416D01*
Y391200D01*
X1574926Y391898D01*
X1582141Y396718D01*
X1586962Y403933D01*
X1588082Y409568D01*
X1592278Y412443D01*
X1604331D01*
Y338257D01*
X1590551D01*
X1587625Y337675D01*
X1585144Y336017D01*
X1583486Y333536D01*
X1582904Y330610D01*
X1583486Y327684D01*
X1584715Y325844D01*
X1583984Y323161D01*
X1582667Y320844D01*
X1246048Y320844D01*
Y330997D01*
X1248008Y332307D01*
X1252829Y339521D01*
X1253527Y343031D01*
X1211040D01*
X1211738Y339521D01*
X1216559Y332307D01*
X1218519Y330997D01*
Y320844D01*
X1112205D01*
Y333755D01*
X1117205Y335271D01*
X1118133Y333881D01*
X1125348Y329061D01*
X1128858Y328363D01*
Y349606D01*
Y370850D01*
X1125348Y370152D01*
X1118133Y365331D01*
X1117205Y363941D01*
X1112205Y365458D01*
Y423377D01*
X1275305D01*
X1276024Y423675D01*
X1276802Y423685D01*
X1277495Y423815D01*
X1281560D01*
X1282253Y423685D01*
X1283031Y423675D01*
X1283750Y423377D01*
X1517307D01*
X1519986Y424487D01*
X1521095Y427165D01*
Y580737D01*
X1520547Y582059D01*
X1519997Y583404D01*
X1519989Y583407D01*
X1519986Y583416D01*
X1518658Y583966D01*
X1517324Y584525D01*
X1348649Y585278D01*
X1345985Y590290D01*
X1349286Y595230D01*
X1349984Y598740D01*
X1307496D01*
X1308195Y595230D01*
X1311392Y590444D01*
X1308712Y585456D01*
X1196885Y585955D01*
X1194220Y590967D01*
X1196648Y594601D01*
X1197346Y598111D01*
X1154859D01*
X1155557Y594601D01*
X1157877Y591129D01*
X1155196Y586141D01*
X1112205Y586332D01*
Y718504D01*
X1311286D01*
Y687215D01*
X1306875Y684267D01*
X1303491Y679202D01*
X1302302Y673228D01*
X1303491Y667254D01*
X1306875Y662190D01*
X1311939Y658806D01*
X1317913Y657617D01*
X1323888Y658806D01*
X1328952Y662190D01*
X1332336Y667254D01*
X1333524Y673228D01*
X1332336Y679202D01*
X1328952Y684267D01*
X1324541Y687215D01*
Y718504D01*
X1604331Y718504D01*
Y532402D01*
D02*
G37*
%LPC*%
G36*
X1504213Y675968D02*
Y659724D01*
X1520456D01*
X1519758Y663235D01*
X1514938Y670449D01*
X1507723Y675270D01*
X1504213Y675968D01*
D02*
G37*
G36*
X1494213D02*
X1490702Y675270D01*
X1483488Y670449D01*
X1478667Y663235D01*
X1477969Y659724D01*
X1494213D01*
Y675968D01*
D02*
G37*
G36*
X1520456Y649724D02*
X1504213D01*
Y633481D01*
X1507723Y634179D01*
X1514938Y639000D01*
X1519758Y646214D01*
X1520456Y649724D01*
D02*
G37*
G36*
X1494213D02*
X1477969D01*
X1478667Y646214D01*
X1483488Y639000D01*
X1490702Y634179D01*
X1494213Y633481D01*
Y649724D01*
D02*
G37*
G36*
X1456693Y663643D02*
X1450719Y662454D01*
X1445654Y659070D01*
X1442270Y654006D01*
X1441082Y648032D01*
X1442270Y642057D01*
X1445654Y636993D01*
X1450719Y633609D01*
X1456693Y632420D01*
X1462667Y633609D01*
X1467732Y636993D01*
X1471116Y642057D01*
X1472304Y648032D01*
X1471116Y654006D01*
X1467732Y659070D01*
X1462667Y662454D01*
X1456693Y663643D01*
D02*
G37*
G36*
X1333740Y624984D02*
Y608740D01*
X1349984D01*
X1349286Y612250D01*
X1344465Y619465D01*
X1337250Y624286D01*
X1333740Y624984D01*
D02*
G37*
G36*
X1323740D02*
X1320230Y624286D01*
X1313015Y619465D01*
X1308195Y612250D01*
X1307496Y608740D01*
X1323740D01*
Y624984D01*
D02*
G37*
G36*
X1181102Y624354D02*
Y608111D01*
X1197346D01*
X1196648Y611621D01*
X1191827Y618836D01*
X1184613Y623656D01*
X1181102Y624354D01*
D02*
G37*
G36*
X1171102D02*
X1167592Y623656D01*
X1160378Y618836D01*
X1155557Y611621D01*
X1154859Y608111D01*
X1171102D01*
Y624354D01*
D02*
G37*
G36*
X1581889Y533055D02*
X1578379Y532356D01*
X1571164Y527536D01*
X1566343Y520321D01*
X1565645Y516811D01*
X1581889D01*
Y533055D01*
D02*
G37*
G36*
X1561416Y407443D02*
X1545172D01*
X1545871Y403933D01*
X1550691Y396718D01*
X1557906Y391898D01*
X1561416Y391200D01*
Y407443D01*
D02*
G37*
G36*
X1501063Y375574D02*
Y359331D01*
X1517307D01*
X1516609Y362841D01*
X1511788Y370056D01*
X1504573Y374876D01*
X1501063Y375574D01*
D02*
G37*
G36*
X1491063D02*
X1487553Y374876D01*
X1480338Y370056D01*
X1475517Y362841D01*
X1474819Y359331D01*
X1491063D01*
Y375574D01*
D02*
G37*
G36*
X1237284Y369275D02*
Y353031D01*
X1253527D01*
X1252829Y356542D01*
X1248008Y363756D01*
X1240794Y368577D01*
X1237284Y369275D01*
D02*
G37*
G36*
X1227284D02*
X1223773Y368577D01*
X1216559Y363756D01*
X1211738Y356542D01*
X1211040Y353031D01*
X1227284D01*
Y369275D01*
D02*
G37*
G36*
X1186102D02*
Y353031D01*
X1202346D01*
X1201648Y356542D01*
X1196827Y363756D01*
X1189613Y368577D01*
X1186102Y369275D01*
D02*
G37*
G36*
X1517307Y349331D02*
X1501063D01*
Y333087D01*
X1504573Y333785D01*
X1511788Y338606D01*
X1516609Y345820D01*
X1517307Y349331D01*
D02*
G37*
G36*
X1491063D02*
X1474819D01*
X1475517Y345820D01*
X1480338Y338606D01*
X1487553Y333785D01*
X1491063Y333087D01*
Y349331D01*
D02*
G37*
G36*
X1202346Y343031D02*
X1186102D01*
Y326788D01*
X1189613Y327486D01*
X1196827Y332307D01*
X1201648Y339521D01*
X1202346Y343031D01*
D02*
G37*
G36*
X1138858Y370850D02*
Y349606D01*
Y328363D01*
X1142369Y329061D01*
X1149583Y333881D01*
X1154404Y341096D01*
X1154775Y342961D01*
X1159873D01*
X1160557Y339521D01*
X1165378Y332307D01*
X1172592Y327486D01*
X1176102Y326788D01*
Y348031D01*
Y369275D01*
X1172592Y368577D01*
X1165378Y363756D01*
X1160557Y356542D01*
X1160186Y354677D01*
X1155088D01*
X1154404Y358116D01*
X1149583Y365331D01*
X1142369Y370152D01*
X1138858Y370850D01*
D02*
G37*
%LPD*%
D23*
X1558071Y420788D02*
Y453162D01*
Y420788D02*
X1566416Y412443D01*
X1622146Y330610D02*
X1748032Y204724D01*
X1590551Y330610D02*
X1622146D01*
D24*
X761323Y864567D02*
X817913Y807976D01*
X1317913D01*
Y673228D02*
Y807976D01*
X1215653Y110236D02*
X1261323Y64567D01*
X1136126Y110236D02*
X1215653D01*
X989680Y256682D02*
X1136126Y110236D01*
X723633Y256682D02*
X989680D01*
X688976Y291339D02*
X723633Y256682D01*
X649606Y291339D02*
X688976D01*
X989669Y236220D02*
X1161323Y64567D01*
X726683Y236220D02*
X989669D01*
X726088Y236815D02*
X726683Y236220D01*
X700193Y236815D02*
X726088D01*
X679134Y257874D02*
X700193Y236815D01*
X961323Y64567D02*
Y149445D01*
X892264Y218504D02*
X961323Y149445D01*
X718504Y218504D02*
X892264D01*
D25*
X1361323Y64567D02*
X1461323D01*
X1361323D02*
Y119998D01*
X1232284Y249037D02*
X1361323Y119998D01*
X1232284Y249037D02*
Y348031D01*
D30*
X1761323Y864567D02*
D03*
X1661323D02*
D03*
X1561323D02*
D03*
X1461323D02*
D03*
X1361323D02*
D03*
X1261323D02*
D03*
X1161323D02*
D03*
X1061323D02*
D03*
X961323D02*
D03*
X861323D02*
D03*
X761323D02*
D03*
X661323D02*
D03*
X1761323Y64567D02*
D03*
X1661323D02*
D03*
X1561323D02*
D03*
X1461323D02*
D03*
X1361323D02*
D03*
X1261323D02*
D03*
X1161323D02*
D03*
X1061323D02*
D03*
X961323D02*
D03*
X861323D02*
D03*
X761323D02*
D03*
X661323D02*
D03*
X561323D02*
D03*
X461323D02*
D03*
X361323D02*
D03*
D31*
X261323D02*
D03*
D32*
X111323Y114567D02*
D03*
Y814567D02*
D03*
D33*
X1911323Y839567D02*
D03*
Y89567D02*
D03*
D34*
X104529Y294882D02*
D03*
Y635039D02*
D03*
D35*
X269096Y294882D02*
D03*
Y635039D02*
D03*
D36*
X248230Y351181D02*
D03*
Y578740D02*
D03*
D37*
X1317913Y673228D02*
D03*
X1748032Y204724D02*
D03*
X649606Y291339D02*
D03*
X679134Y257874D02*
D03*
X718504Y218504D02*
D03*
X374016Y668698D02*
D03*
X622978Y360824D02*
D03*
X639764Y502172D02*
D03*
X1176102Y603111D02*
D03*
X1328740Y603740D02*
D03*
X1133858Y349606D02*
D03*
X1181102Y348031D02*
D03*
X1978347Y136220D02*
D03*
Y195276D02*
D03*
X1978347Y264173D02*
D03*
X1978347Y756299D02*
D03*
X1978347Y705512D02*
D03*
Y657495D02*
D03*
Y609354D02*
D03*
X1909449Y571777D02*
D03*
X1860236Y571773D02*
D03*
X1811024Y552695D02*
D03*
X1749016D02*
D03*
X1690943D02*
D03*
X1640963Y554269D02*
D03*
X1699034Y351181D02*
D03*
X1749016D02*
D03*
X1801181Y352756D02*
D03*
X1859252Y327953D02*
D03*
X1919291Y329527D02*
D03*
X1978347Y331102D02*
D03*
X1232284Y348031D02*
D03*
X1279528Y453918D02*
D03*
X1082677Y452162D02*
D03*
X1414173Y460262D02*
D03*
X1484252Y461837D02*
D03*
Y547334D02*
D03*
X1414173Y548909D02*
D03*
X1499213Y654724D02*
D03*
X1586889Y511811D02*
D03*
X1496063Y354331D02*
D03*
X1566416Y412443D02*
D03*
X1456693Y648032D02*
D03*
%TF.MD5,a4368939fcbbc49eca69fb6dd93896de*%
M02*
