%TF.GenerationSoftware,Altium Limited,Altium Designer,18.1.7 (191)*%
G04 Layer_Color=128*
%FSLAX26Y26*%
%MOIN*%
%TF.FileFunction,Drillmap*%
%TF.Part,Single*%
G01*
G75*
%TA.AperFunction,NonConductor*%
%ADD29C,0.005000*%
D29*
X1741638Y864567D02*
X1781008D01*
X1761323Y844882D02*
Y884252D01*
X1641638Y864567D02*
X1681008D01*
X1661323Y844882D02*
Y884252D01*
X1541638Y864567D02*
X1581008D01*
X1561323Y844882D02*
Y884252D01*
X1441638Y864567D02*
X1481008D01*
X1461323Y844882D02*
Y884252D01*
X1341638Y864567D02*
X1381008D01*
X1361323Y844882D02*
Y884252D01*
X1241638Y864567D02*
X1281008D01*
X1261323Y844882D02*
Y884252D01*
X1141638Y864567D02*
X1181008D01*
X1161323Y844882D02*
Y884252D01*
X1041638Y864567D02*
X1081008D01*
X1061323Y844882D02*
Y884252D01*
X941638Y864567D02*
X981008D01*
X961323Y844882D02*
Y884252D01*
X841638Y864567D02*
X881008D01*
X861323Y844882D02*
Y884252D01*
X741638Y864567D02*
X781008D01*
X761323Y844882D02*
Y884252D01*
X641638Y864567D02*
X681008D01*
X661323Y844882D02*
Y884252D01*
X1741638Y64567D02*
X1781008D01*
X1761323Y44882D02*
Y84252D01*
X1641638Y64567D02*
X1681008D01*
X1661323Y44882D02*
Y84252D01*
X1541638Y64567D02*
X1581008D01*
X1561323Y44882D02*
Y84252D01*
X1441638Y64567D02*
X1481008D01*
X1461323Y44882D02*
Y84252D01*
X1341638Y64567D02*
X1381008D01*
X1361323Y44882D02*
Y84252D01*
X1241638Y64567D02*
X1281008D01*
X1261323Y44882D02*
Y84252D01*
X1141638Y64567D02*
X1181008D01*
X1161323Y44882D02*
Y84252D01*
X1041638Y64567D02*
X1081008D01*
X1061323Y44882D02*
Y84252D01*
X941638Y64567D02*
X981008D01*
X961323Y44882D02*
Y84252D01*
X841638Y64567D02*
X881008D01*
X861323Y44882D02*
Y84252D01*
X741638Y64567D02*
X781008D01*
X761323Y44882D02*
Y84252D01*
X641638Y64567D02*
X681008D01*
X661323Y44882D02*
Y84252D01*
X541638Y64567D02*
X581008D01*
X561323Y44882D02*
Y84252D01*
X441638Y64567D02*
X481008D01*
X461323Y44882D02*
Y84252D01*
X341638Y64567D02*
X381008D01*
X361323Y44882D02*
Y84252D01*
X241638Y64567D02*
X281008D01*
X261323Y44882D02*
Y84252D01*
X61323Y114567D02*
X161323D01*
X111323Y64567D02*
Y164567D01*
X61323Y814567D02*
X161323D01*
X111323Y764567D02*
Y864567D01*
X1866323Y839567D02*
X1956323D01*
X1911323Y794567D02*
Y884567D01*
X1866323Y89567D02*
X1956323D01*
X1911323Y44567D02*
Y134567D01*
X80907Y294882D02*
X128151D01*
X104529Y271260D02*
Y318504D01*
X80907Y635039D02*
X128151D01*
X104529Y611417D02*
Y658661D01*
X235632Y294882D02*
X302561D01*
X269096Y261417D02*
Y328346D01*
X235632Y635039D02*
X302561D01*
X269096Y601575D02*
Y668504D01*
X235435Y351181D02*
X261026D01*
X248230Y338386D02*
Y363976D01*
X235435Y578740D02*
X261026D01*
X248230Y565945D02*
Y591535D01*
X1311024Y673228D02*
X1324803D01*
X1317913Y666339D02*
Y680118D01*
X1741142Y204724D02*
X1754921D01*
X1748032Y197835D02*
Y211614D01*
X642717Y291339D02*
X656496D01*
X649606Y284449D02*
Y298228D01*
X672244Y257874D02*
X686024D01*
X679134Y250984D02*
Y264764D01*
X711614Y218504D02*
X725394D01*
X718504Y211614D02*
Y225394D01*
X367126Y668698D02*
X380905D01*
X374016Y661808D02*
Y675587D01*
X616089Y360824D02*
X629868D01*
X622978Y353934D02*
Y367714D01*
X632874Y502172D02*
X646654D01*
X639764Y495283D02*
Y509062D01*
X1169213Y603111D02*
X1182992D01*
X1176102Y596221D02*
Y610000D01*
X1321851Y603740D02*
X1335630D01*
X1328740Y596851D02*
Y610630D01*
X1126969Y349606D02*
X1140748D01*
X1133858Y342717D02*
Y356496D01*
X1174213Y348031D02*
X1187992D01*
X1181102Y341142D02*
Y354921D01*
X1971457Y136220D02*
X1985236D01*
X1978347Y129331D02*
Y143110D01*
X1971457Y195276D02*
X1985236D01*
X1978347Y188386D02*
Y202165D01*
X1971457Y264173D02*
X1985236D01*
X1978347Y257284D02*
Y271063D01*
X1971457Y756299D02*
X1985236D01*
X1978347Y749409D02*
Y763189D01*
X1971457Y705512D02*
X1985236D01*
X1978347Y698622D02*
Y712402D01*
X1971457Y657495D02*
X1985236D01*
X1978347Y650606D02*
Y664385D01*
X1971457Y609354D02*
X1985236D01*
X1978347Y602464D02*
Y616244D01*
X1902559Y571777D02*
X1916339D01*
X1909449Y564888D02*
Y578667D01*
X1853347Y571773D02*
X1867126D01*
X1860236Y564883D02*
Y578662D01*
X1804134Y552695D02*
X1817913D01*
X1811024Y545805D02*
Y559584D01*
X1742126Y552695D02*
X1755905D01*
X1749016Y545805D02*
Y559584D01*
X1684054Y552695D02*
X1697833D01*
X1690943Y545805D02*
Y559584D01*
X1634073Y554269D02*
X1647852D01*
X1640963Y547380D02*
Y561159D01*
X1692144Y351181D02*
X1705923D01*
X1699034Y344291D02*
Y358071D01*
X1742126Y351181D02*
X1755905D01*
X1749016Y344291D02*
Y358071D01*
X1794291Y352756D02*
X1808071D01*
X1801181Y345866D02*
Y359646D01*
X1852362Y327953D02*
X1866142D01*
X1859252Y321063D02*
Y334842D01*
X1912402Y329527D02*
X1926181D01*
X1919291Y322638D02*
Y336417D01*
X1971457Y331102D02*
X1985236D01*
X1978347Y324213D02*
Y337992D01*
X1225394Y348031D02*
X1239173D01*
X1232284Y341142D02*
Y354921D01*
X1272638Y453918D02*
X1286417D01*
X1279528Y447028D02*
Y460808D01*
X1075787Y452162D02*
X1089567D01*
X1082677Y445273D02*
Y459052D01*
X1407284Y460262D02*
X1421063D01*
X1414173Y453372D02*
Y467152D01*
X1477362Y461837D02*
X1491142D01*
X1484252Y454947D02*
Y468727D01*
X1477362Y547334D02*
X1491142D01*
X1484252Y540444D02*
Y554224D01*
X1407284Y548909D02*
X1421063D01*
X1414173Y542019D02*
Y555799D01*
X1492323Y654724D02*
X1506102D01*
X1499213Y647835D02*
Y661614D01*
X1579999Y511811D02*
X1593779D01*
X1586889Y504921D02*
Y518701D01*
X1489173Y354331D02*
X1502953D01*
X1496063Y347441D02*
Y361220D01*
X1559526Y412443D02*
X1573306D01*
X1566416Y405553D02*
Y419333D01*
%TF.MD5,97d717f002bdf4649536c6d3e47ecf22*%
M02*
