%TF.GenerationSoftware,Altium Limited,Altium Designer,20.0.10 (225)*%
G04 Layer_Color=0*
%FSLAX26Y26*%
%MOIN*%
%TF.FileFunction,Plated,1,2,PTH,Drill*%
%TF.Part,Single*%
G01*
G75*
%TA.AperFunction,ComponentDrill*%
%ADD72C,0.039370*%
%ADD73C,0.039370*%
%ADD74C,0.100000*%
%ADD75O,0.047244X0.023622*%
%ADD76O,0.066929X0.023622*%
%ADD77C,0.025591*%
%TA.AperFunction,ViaDrill,NotFilled*%
%ADD78C,0.013780*%
D72*
X1761323Y864567D02*
D03*
X1661323D02*
D03*
X1561323D02*
D03*
X1461323D02*
D03*
X1361323D02*
D03*
X1261323D02*
D03*
X1161323D02*
D03*
X1061323D02*
D03*
X961323D02*
D03*
X861323D02*
D03*
X761323D02*
D03*
X661323D02*
D03*
D73*
X1761323Y64567D02*
D03*
X1661323D02*
D03*
X1561323D02*
D03*
X1461323D02*
D03*
X1361323D02*
D03*
X1261323D02*
D03*
X1161323D02*
D03*
X1061323D02*
D03*
X961323D02*
D03*
X861323D02*
D03*
X761323D02*
D03*
X661323D02*
D03*
X561323D02*
D03*
X461323D02*
D03*
X361323D02*
D03*
X261323D02*
D03*
D74*
X111323Y114567D02*
D03*
Y814567D02*
D03*
D75*
X104529Y294882D02*
D03*
Y635039D02*
D03*
D76*
X269096Y294882D02*
D03*
Y635039D02*
D03*
D77*
X248230Y351181D02*
D03*
Y578740D02*
D03*
D78*
X917402Y656032D02*
D03*
X1266323Y553909D02*
D03*
X1084991Y558682D02*
D03*
X1316882Y265540D02*
D03*
X873031Y296025D02*
D03*
X622978Y245308D02*
D03*
X1483488Y200276D02*
D03*
X38886Y383154D02*
D03*
X43089Y575021D02*
D03*
X807070Y548909D02*
D03*
Y631551D02*
D03*
X711877Y634179D02*
D03*
X712530Y550604D02*
D03*
X1317913Y673228D02*
D03*
X1748032Y204724D02*
D03*
X649606Y291339D02*
D03*
X679134Y257874D02*
D03*
X718504Y218504D02*
D03*
X374016Y668698D02*
D03*
X622978Y360824D02*
D03*
X639764Y502172D02*
D03*
X1176102Y603111D02*
D03*
X1328740Y603740D02*
D03*
X1133858Y349606D02*
D03*
X1181102Y348031D02*
D03*
X1978347Y136220D02*
D03*
Y195276D02*
D03*
X1978347Y264173D02*
D03*
X1978347Y756299D02*
D03*
X1978347Y705512D02*
D03*
Y657495D02*
D03*
Y609354D02*
D03*
X1909449Y571777D02*
D03*
X1860236Y571773D02*
D03*
X1811024Y552695D02*
D03*
X1749016D02*
D03*
X1690943D02*
D03*
X1640963Y554269D02*
D03*
X1699034Y351181D02*
D03*
X1749016D02*
D03*
X1801181Y352756D02*
D03*
X1859252Y327953D02*
D03*
X1919291Y329527D02*
D03*
X1978347Y331102D02*
D03*
X1232284Y348031D02*
D03*
X1279528Y453918D02*
D03*
X1082677Y452162D02*
D03*
X1414173Y460262D02*
D03*
X1484252Y461837D02*
D03*
Y547334D02*
D03*
X1414173Y548909D02*
D03*
X1499213Y654724D02*
D03*
X1586889Y511811D02*
D03*
X1496063Y354331D02*
D03*
X1566416Y412443D02*
D03*
%TF.MD5,9822bfe7402b3af1fedc8458210795ec*%
M02*
