%TF.GenerationSoftware,Altium Limited,Altium Designer,18.1.7 (191)*%
G04 Layer_Color=255*
%FSLAX26Y26*%
%MOIN*%
%TF.FileFunction,Pads,Bot*%
%TF.Part,Single*%
G01*
G75*
%TA.AperFunction,ComponentPad*%
%ADD30C,0.059370*%
%ADD31R,0.059370X0.059370*%
%ADD32C,0.140000*%
%ADD33C,0.090000*%
%ADD34O,0.062992X0.039370*%
%ADD35O,0.082677X0.039370*%
%ADD36C,0.025591*%
D30*
X1761323Y864567D02*
D03*
X1661323D02*
D03*
X1561323D02*
D03*
X1461323D02*
D03*
X1361323D02*
D03*
X1261323D02*
D03*
X1161323D02*
D03*
X1061323D02*
D03*
X961323D02*
D03*
X861323D02*
D03*
X761323D02*
D03*
X661323D02*
D03*
X1761323Y64567D02*
D03*
X1661323D02*
D03*
X1561323D02*
D03*
X1461323D02*
D03*
X1361323D02*
D03*
X1261323D02*
D03*
X1161323D02*
D03*
X1061323D02*
D03*
X961323D02*
D03*
X861323D02*
D03*
X761323D02*
D03*
X661323D02*
D03*
X561323D02*
D03*
X461323D02*
D03*
X361323D02*
D03*
D31*
X261323D02*
D03*
D32*
X111323Y114567D02*
D03*
Y814567D02*
D03*
D33*
X1911323Y839567D02*
D03*
Y89567D02*
D03*
D34*
X104529Y294882D02*
D03*
Y635039D02*
D03*
D35*
X269096Y294882D02*
D03*
Y635039D02*
D03*
D36*
X248230Y351181D02*
D03*
Y578740D02*
D03*
%TF.MD5,8898c5af8d0e0cfaffe0c8486b91768b*%
M02*
