%TF.GenerationSoftware,Altium Limited,Altium Designer,18.1.7 (191)*%
G04 Layer_Color=16711935*
%FSLAX26Y26*%
%MOIN*%
%TF.FileFunction,Soldermask,Bot*%
%TF.Part,Single*%
G01*
G75*
%TA.AperFunction,ComponentPad*%
%ADD39C,0.067370*%
%ADD40R,0.067370X0.067370*%
%ADD41C,0.148000*%
%ADD42C,0.098000*%
%ADD43O,0.070992X0.047370*%
%ADD44O,0.090677X0.047370*%
%ADD45C,0.033591*%
%TA.AperFunction,ViaPad*%
%ADD46C,0.031622*%
D39*
X1761323Y864567D02*
D03*
X1661323D02*
D03*
X1561323D02*
D03*
X1461323D02*
D03*
X1361323D02*
D03*
X1261323D02*
D03*
X1161323D02*
D03*
X1061323D02*
D03*
X961323D02*
D03*
X861323D02*
D03*
X761323D02*
D03*
X661323D02*
D03*
X1761323Y64567D02*
D03*
X1661323D02*
D03*
X1561323D02*
D03*
X1461323D02*
D03*
X1361323D02*
D03*
X1261323D02*
D03*
X1161323D02*
D03*
X1061323D02*
D03*
X961323D02*
D03*
X861323D02*
D03*
X761323D02*
D03*
X661323D02*
D03*
X561323D02*
D03*
X461323D02*
D03*
X361323D02*
D03*
D40*
X261323D02*
D03*
D41*
X111323Y114567D02*
D03*
Y814567D02*
D03*
D42*
X1911323Y839567D02*
D03*
Y89567D02*
D03*
D43*
X104529Y294882D02*
D03*
Y635039D02*
D03*
D44*
X269096Y294882D02*
D03*
Y635039D02*
D03*
D45*
X248230Y351181D02*
D03*
Y578740D02*
D03*
D46*
X1317913Y673228D02*
D03*
X1748032Y204724D02*
D03*
X649606Y291339D02*
D03*
X679134Y257874D02*
D03*
X718504Y218504D02*
D03*
X374016Y668698D02*
D03*
X622978Y360824D02*
D03*
X639764Y502172D02*
D03*
X1176102Y603111D02*
D03*
X1328740Y603740D02*
D03*
X1133858Y349606D02*
D03*
X1181102Y348031D02*
D03*
X1978347Y136220D02*
D03*
Y195276D02*
D03*
X1978347Y264173D02*
D03*
X1978347Y756299D02*
D03*
X1978347Y705512D02*
D03*
Y657495D02*
D03*
Y609354D02*
D03*
X1909449Y571777D02*
D03*
X1860236Y571773D02*
D03*
X1811024Y552695D02*
D03*
X1749016D02*
D03*
X1690943D02*
D03*
X1640963Y554269D02*
D03*
X1699034Y351181D02*
D03*
X1749016D02*
D03*
X1801181Y352756D02*
D03*
X1859252Y327953D02*
D03*
X1919291Y329527D02*
D03*
X1978347Y331102D02*
D03*
X1232284Y348031D02*
D03*
X1279528Y453918D02*
D03*
X1082677Y452162D02*
D03*
X1414173Y460262D02*
D03*
X1484252Y461837D02*
D03*
Y547334D02*
D03*
X1414173Y548909D02*
D03*
X1499213Y654724D02*
D03*
X1586889Y511811D02*
D03*
X1496063Y354331D02*
D03*
X1566416Y412443D02*
D03*
%TF.MD5,8027bd1548efc7602ab3554715c7aca2*%
M02*
