%TF.GenerationSoftware,Altium Limited,Altium Designer,18.1.7 (191)*%
G04 Layer_Color=32768*
%FSLAX26Y26*%
%MOIN*%
%TF.FileFunction,Other,Mechanical_7*%
%TF.Part,Single*%
G01*
G75*
%TA.AperFunction,NonConductor*%
%ADD67C,0.001181*%
%ADD68C,0.003937*%
%ADD69C,0.003000*%
D67*
X1907357Y454181D02*
G03*
X1919281Y442257I11924J-0D01*
G01*
X1919281Y442257D02*
G03*
X1931205Y454181I-2J11926D01*
G01*
X1931205Y454181D02*
G03*
X1919281Y466106I-11926J-2D01*
G01*
Y466105D02*
G03*
X1907357Y454181I-0J-11924D01*
G01*
X1927219Y463068D02*
G03*
X1919281Y466108I-7928J-8815D01*
G01*
X1919281Y466109D02*
G03*
X1907357Y454181I2J-11927D01*
G01*
D02*
G03*
X1919281Y442257I11924J-0D01*
G01*
X1919281D02*
G03*
X1927219Y445285I18J11873D01*
G01*
Y463068D02*
G03*
X1919281Y466108I-7928J-8815D01*
G01*
X1919281Y466109D02*
G03*
X1907357Y454181I2J-11927D01*
G01*
D02*
G03*
X1919281Y442257I11924J-0D01*
G01*
X1919281D02*
G03*
X1927219Y445285I18J11873D01*
G01*
X1970454Y459152D02*
G03*
X1965486Y454184I1J-4968D01*
G01*
X1965486Y454184D02*
G03*
X1970454Y449214I4969J-1D01*
G01*
Y459152D02*
G03*
X1965486Y454184I1J-4968D01*
G01*
X1965486Y454184D02*
G03*
X1970454Y449214I4969J-1D01*
G01*
X1872111Y459148D02*
G03*
X1874066Y461103I-5J1960D01*
G01*
Y447256D02*
G03*
X1872111Y449211I-1960J-5D01*
G01*
Y459148D02*
G03*
X1874066Y461103I-5J1960D01*
G01*
Y447256D02*
G03*
X1872111Y449211I-1960J-5D01*
G01*
X1884004Y454181D02*
G03*
X1919278Y418904I35276J-2D01*
G01*
D02*
G03*
X1954556Y454181I-1J35278D01*
G01*
X1954556D02*
G03*
X1919278Y489459I-35280J-3D01*
G01*
D02*
G03*
X1884004Y454181I3J-35278D01*
G01*
Y454181D02*
G03*
X1919278Y418904I35276J-2D01*
G01*
D02*
G03*
X1954556Y454181I-1J35278D01*
G01*
X1954556D02*
G03*
X1919278Y489459I-35280J-3D01*
G01*
D02*
G03*
X1884004Y454181I3J-35278D01*
G01*
X1881188D02*
G03*
X1919278Y416091I38092J2D01*
G01*
Y416091D02*
G03*
X1957368Y454181I2J38088D01*
G01*
Y454181D02*
G03*
X1919278Y492271I-38088J2D01*
G01*
Y492271D02*
G03*
X1881188Y454181I2J-38092D01*
G01*
X1877875D02*
G03*
X1919278Y412778I41401J-2D01*
G01*
D02*
G03*
X1960685Y454181I2J41404D01*
G01*
D02*
G03*
X1919278Y495584I-41404J-1D01*
G01*
Y495584D02*
G03*
X1877875Y454181I-2J-41401D01*
G01*
X1944529Y498723D02*
G03*
X1944952Y499894I-1260J1117D01*
G01*
X1944240Y498471D02*
G03*
X1944529Y498724I-958J1391D01*
G01*
X1943900Y498284D02*
G03*
X1944239Y498471I-777J1811D01*
G01*
X1941968Y498238D02*
G03*
X1943900Y498284I904J2585D01*
G01*
X1938023Y500064D02*
G03*
X1938324Y499895I2180J3531D01*
G01*
X1937769Y500239D02*
G03*
X1938023Y500064I1887J2471D01*
G01*
X1937559Y500419D02*
G03*
X1937769Y500239I1671J1731D01*
G01*
X1937153Y501000D02*
G03*
X1937559Y500419I1605J687D01*
G01*
X1937081Y501209D02*
G03*
X1937153Y501001I1667J462D01*
G01*
X1937034Y501425D02*
G03*
X1937081Y501209I1966J315D01*
G01*
X1937001Y501881D02*
G03*
X1937034Y501425I2857J-22D01*
G01*
X1944529Y498723D02*
G03*
X1944952Y499894I-1260J1117D01*
G01*
X1944240Y498471D02*
G03*
X1944529Y498724I-958J1391D01*
G01*
X1943900Y498284D02*
G03*
X1944239Y498471I-777J1811D01*
G01*
X1941968Y498238D02*
G03*
X1943900Y498284I904J2585D01*
G01*
X1938023Y500064D02*
G03*
X1938324Y499895I2180J3531D01*
G01*
X1937769Y500239D02*
G03*
X1938023Y500064I1887J2471D01*
G01*
X1937559Y500419D02*
G03*
X1937769Y500239I1671J1731D01*
G01*
X1937153Y501000D02*
G03*
X1937559Y500419I1605J687D01*
G01*
X1937081Y501209D02*
G03*
X1937153Y501001I1667J462D01*
G01*
X1937034Y501425D02*
G03*
X1937081Y501209I1966J315D01*
G01*
X1937001Y501881D02*
G03*
X1937034Y501425I2857J-22D01*
G01*
X1893611Y499894D02*
G03*
X1894033Y498723I1683J-55D01*
G01*
X1894033Y498724D02*
G03*
X1894323Y498471I1247J1139D01*
G01*
D02*
G03*
X1894662Y498284I1117J1623D01*
G01*
Y498284D02*
G03*
X1896591Y498238I1026J2531D01*
G01*
X1900235Y499894D02*
G03*
X1900536Y500064I-1878J3700D01*
G01*
Y500064D02*
G03*
X1900791Y500238I-1633J2646D01*
G01*
Y500239D02*
G03*
X1901001Y500419I-1460J1912D01*
G01*
X1901001D02*
G03*
X1901406Y501001I-1199J1268D01*
G01*
D02*
G03*
X1901478Y501209I-1594J670D01*
G01*
X1901478D02*
G03*
X1901525Y501425I-1919J531D01*
G01*
X1901525D02*
G03*
X1901558Y501881I-2824J434D01*
G01*
X1893611Y499894D02*
G03*
X1894033Y498723I1683J-55D01*
G01*
X1894033Y498724D02*
G03*
X1894323Y498471I1247J1139D01*
G01*
D02*
G03*
X1894662Y498284I1117J1623D01*
G01*
Y498284D02*
G03*
X1896591Y498238I1026J2531D01*
G01*
X1900235Y499894D02*
G03*
X1900536Y500064I-1878J3700D01*
G01*
Y500064D02*
G03*
X1900791Y500238I-1633J2646D01*
G01*
Y500239D02*
G03*
X1901001Y500419I-1460J1912D01*
G01*
X1901001D02*
G03*
X1901406Y501001I-1199J1268D01*
G01*
D02*
G03*
X1901478Y501209I-1594J670D01*
G01*
X1901478D02*
G03*
X1901525Y501425I-1919J531D01*
G01*
X1901525D02*
G03*
X1901558Y501881I-2824J434D01*
G01*
X1944951Y408471D02*
G03*
X1944529Y409641I-1681J55D01*
G01*
X1944529Y409641D02*
G03*
X1944240Y409893I-1245J-1139D01*
G01*
D02*
G03*
X1943900Y410080I-1116J-1625D01*
G01*
X1943900D02*
G03*
X1941968Y410128I-1030J-2550D01*
G01*
X1938324Y408471D02*
G03*
X1938023Y408302I1878J-3700D01*
G01*
D02*
G03*
X1937769Y408127I1633J-2646D01*
G01*
D02*
G03*
X1937559Y407946I1460J-1912D01*
G01*
D02*
G03*
X1937153Y407365I1199J-1268D01*
G01*
D02*
G03*
X1937081Y407157I1594J-670D01*
G01*
D02*
G03*
X1937034Y406941I1919J-531D01*
G01*
D02*
G03*
X1937001Y406484I2824J-434D01*
G01*
X1944951Y408471D02*
G03*
X1944529Y409641I-1681J55D01*
G01*
X1944529Y409641D02*
G03*
X1944240Y409893I-1245J-1139D01*
G01*
D02*
G03*
X1943900Y410080I-1116J-1625D01*
G01*
X1943900D02*
G03*
X1941968Y410128I-1030J-2550D01*
G01*
X1938324Y408471D02*
G03*
X1938023Y408302I1878J-3700D01*
G01*
D02*
G03*
X1937769Y408127I1633J-2646D01*
G01*
D02*
G03*
X1937559Y407946I1460J-1912D01*
G01*
D02*
G03*
X1937153Y407365I1199J-1268D01*
G01*
D02*
G03*
X1937081Y407157I1594J-670D01*
G01*
D02*
G03*
X1937034Y406941I1919J-531D01*
G01*
D02*
G03*
X1937001Y406484I2824J-434D01*
G01*
X1894033Y409641D02*
G03*
X1893611Y408471I1259J-1116D01*
G01*
X1894323Y409893D02*
G03*
X1894033Y409641I956J-1391D01*
G01*
X1894662Y410080D02*
G03*
X1894323Y409893I776J-1811D01*
G01*
X1896591Y410128D02*
G03*
X1894662Y410080I-901J-2590D01*
G01*
X1900536Y408302D02*
G03*
X1900235Y408471I-2180J-3531D01*
G01*
X1900791Y408127D02*
G03*
X1900536Y408302I-1887J-2471D01*
G01*
X1901001Y407946D02*
G03*
X1900791Y408127I-1670J-1731D01*
G01*
X1901406Y407365D02*
G03*
X1901001Y407946I-1604J-687D01*
G01*
X1901478Y407157D02*
G03*
X1901406Y407365I-1667J-462D01*
G01*
X1901525Y406941D02*
G03*
X1901478Y407157I-1966J-315D01*
G01*
X1901558Y406484D02*
G03*
X1901525Y406941I-2857J22D01*
G01*
X1894033Y409641D02*
G03*
X1893611Y408471I1259J-1116D01*
G01*
X1894323Y409893D02*
G03*
X1894033Y409641I956J-1391D01*
G01*
X1894662Y410080D02*
G03*
X1894323Y409893I776J-1811D01*
G01*
X1896591Y410128D02*
G03*
X1894662Y410080I-901J-2590D01*
G01*
X1900536Y408302D02*
G03*
X1900235Y408471I-2180J-3531D01*
G01*
X1900791Y408127D02*
G03*
X1900536Y408302I-1887J-2471D01*
G01*
X1901001Y407946D02*
G03*
X1900791Y408127I-1670J-1731D01*
G01*
X1901406Y407365D02*
G03*
X1901001Y407946I-1604J-687D01*
G01*
X1901478Y407157D02*
G03*
X1901406Y407365I-1667J-462D01*
G01*
X1901525Y406941D02*
G03*
X1901478Y407157I-1966J-315D01*
G01*
X1901558Y406484D02*
G03*
X1901525Y406941I-2857J22D01*
G01*
X1870089Y433316D02*
G03*
X1874066Y437229I1J3976D01*
G01*
Y471139D02*
G03*
X1870089Y475049I-3975J-65D01*
G01*
X1968467Y483993D02*
G03*
X1964490Y480080I1J-3978D01*
G01*
Y428286D02*
G03*
X1968467Y424372I3978J65D01*
G01*
X1870089Y433316D02*
G03*
X1874066Y437229I1J3976D01*
G01*
Y471139D02*
G03*
X1870089Y475049I-3975J-65D01*
G01*
X1968467Y483993D02*
G03*
X1964490Y480080I1J-3978D01*
G01*
Y428286D02*
G03*
X1968467Y424372I3978J65D01*
G01*
X1927219Y463068D02*
X1927219Y445285D01*
X1927219Y463068D02*
X1927219Y445285D01*
X1964490Y445240D02*
X1970454D01*
X1964490D02*
Y463125D01*
X1970454D01*
Y459151D02*
Y463125D01*
Y449214D02*
X1970454Y445240D01*
X1970454Y449214D02*
X1970454Y445240D01*
X1964490D02*
Y463125D01*
X1970454D01*
Y459151D02*
Y463125D01*
Y449214D02*
X1970454Y445240D01*
X1868106Y459148D02*
X1872111D01*
X1874066Y447256D02*
Y461103D01*
X1868106Y449211D02*
X1872111D01*
X1868106D02*
Y459148D01*
X1872111D01*
X1874066Y447256D02*
Y461103D01*
X1868106Y449211D02*
X1872111D01*
X1868106D02*
Y459148D01*
X1937001Y503868D02*
X1944951Y503868D01*
X1944952Y499894D01*
X1938324D02*
X1941968Y498238D01*
X1938324Y499894D02*
X1941968Y498238D01*
X1937001Y501881D02*
Y503868D01*
Y501881D02*
Y503868D01*
X1944951Y503868D02*
X1944952Y499894D01*
X1938324D02*
X1941968Y498238D01*
X1937001Y501881D02*
Y503868D01*
X1893611D02*
X1901558Y503868D01*
X1893611Y499894D02*
Y503868D01*
X1896591Y498238D02*
X1900235Y499894D01*
X1896591Y498238D02*
X1900235Y499894D01*
X1901558Y503868D02*
X1901558Y501881D01*
X1901558Y503868D02*
X1901558Y501881D01*
X1893611Y499894D02*
Y503868D01*
X1896591Y498238D02*
X1900235Y499894D01*
X1901558Y503868D02*
X1901558Y501881D01*
X1937001Y404497D02*
X1944951Y404497D01*
X1944952Y408471D01*
X1938324D02*
X1941968Y410128D01*
X1938324Y408471D02*
X1941968Y410128D01*
X1937001Y404497D02*
Y406484D01*
Y404497D02*
Y406484D01*
X1944951Y404497D02*
X1944952Y408471D01*
X1938324D02*
X1941968Y410128D01*
X1937001Y404497D02*
Y406484D01*
X1893611Y404497D02*
X1901558Y404497D01*
X1893611Y404497D02*
Y408471D01*
X1896591Y410128D02*
X1900235Y408471D01*
X1896591Y410128D02*
X1900235Y408471D01*
X1901558Y404497D02*
Y406484D01*
Y404497D02*
Y406484D01*
X1893611Y404497D02*
Y408471D01*
X1896591Y410128D02*
X1900235Y408471D01*
X1901558Y404497D02*
Y406484D01*
X1870089Y404497D02*
X1968467D01*
X1870089D02*
Y433316D01*
X1874066Y437229D02*
Y471139D01*
Y437229D02*
Y471139D01*
X1870089Y475049D02*
Y503868D01*
X1968467D01*
Y483993D02*
Y503868D01*
X1964490Y428286D02*
Y480080D01*
Y428286D02*
Y480080D01*
X1968467Y404497D02*
Y424372D01*
Y404497D02*
Y424372D01*
X1870089Y404497D02*
Y433316D01*
X1874066Y437229D02*
Y471139D01*
X1870089Y475049D02*
Y503868D01*
X1968467D01*
Y483993D02*
Y503868D01*
X1964490Y428286D02*
Y480080D01*
X1968467Y404497D02*
Y424372D01*
D68*
X1426378Y314556D02*
G03*
X1422441Y310619I0J-3937D01*
G01*
X1490945D02*
G03*
X1487008Y314556I-3937J0D01*
G01*
X1422441Y265737D02*
G03*
X1426378Y261800I3937J0D01*
G01*
X1487008D02*
G03*
X1490945Y265737I0J3937D01*
G01*
X1417323Y315737D02*
G03*
X1421260Y319674I0J3937D01*
G01*
Y256682D02*
G03*
X1417323Y260619I-3937J0D01*
G01*
X1496063D02*
G03*
X1492126Y256682I0J-3937D01*
G01*
Y319674D02*
G03*
X1496063Y315737I3937J0D01*
G01*
X356299Y626378D02*
X391732D01*
X356299Y559449D02*
X391732D01*
Y626378D01*
X356299Y559449D02*
Y626378D01*
X1116142Y457460D02*
X1151575D01*
X1116142Y390531D02*
X1151575D01*
Y457460D01*
X1116142Y390531D02*
Y457460D01*
X1165354D02*
X1200787D01*
X1165354Y390531D02*
X1200787D01*
Y457460D01*
X1165354Y390531D02*
Y457460D01*
X1214567D02*
X1250000D01*
X1214567Y390531D02*
X1250000D01*
Y457460D01*
X1214567Y390531D02*
Y457460D01*
X1755906Y279455D02*
Y314888D01*
X1688976Y279455D02*
Y314888D01*
Y279455D02*
X1755906D01*
X1688976Y314888D02*
X1755906D01*
X1701002Y612072D02*
Y647505D01*
X1634073Y612072D02*
Y647505D01*
Y612072D02*
X1701002D01*
X1634073Y647505D02*
X1701002D01*
X1517717Y248031D02*
X1553150D01*
X1517717Y314961D02*
X1553150D01*
X1517717Y248031D02*
Y314961D01*
X1553150Y248031D02*
Y314961D01*
X1360236Y314959D02*
X1395669D01*
X1360236Y248030D02*
X1395669D01*
Y314959D01*
X1360236Y248030D02*
Y314959D01*
X1490945Y265737D02*
Y310619D01*
X1422441Y265737D02*
Y310619D01*
X1426378Y314556D02*
X1487008D01*
X1426378Y261800D02*
X1487008Y261800D01*
X1421260Y319674D02*
X1492126D01*
X1496063Y260619D02*
Y315737D01*
X1421260Y256682D02*
X1492126Y256682D01*
X1417323Y260619D02*
Y315737D01*
X1625984Y397638D02*
X1661417D01*
X1625984Y464567D02*
X1661417D01*
X1625984Y397638D02*
Y464567D01*
X1661417Y397638D02*
Y464567D01*
X1688976Y437401D02*
X1755906D01*
X1688976Y472835D02*
X1755906D01*
Y437401D02*
Y472835D01*
X1688976Y437401D02*
Y472835D01*
X1818898Y393698D02*
Y460627D01*
X1783465Y393698D02*
Y460627D01*
X1818898D01*
X1783465Y393698D02*
X1818898D01*
X1094787Y331890D02*
Y367323D01*
X1027858Y331890D02*
Y367323D01*
Y331890D02*
X1094787D01*
X1027858Y367323D02*
X1094787D01*
X864705Y330610D02*
Y366043D01*
X931634Y330610D02*
Y366043D01*
X864705D02*
X931634D01*
X864705Y330610D02*
X931634D01*
X866142Y379642D02*
Y415075D01*
X933071Y379642D02*
Y415075D01*
X866142D02*
X933071D01*
X866142Y379642D02*
X933071D01*
X919291Y572736D02*
Y608169D01*
X852362Y572736D02*
Y608169D01*
Y572736D02*
X919291D01*
X852362Y608169D02*
X919291D01*
D69*
X1914370Y469017D02*
X1924367D01*
X1929365Y464018D01*
X1924367Y459020D01*
X1914370D01*
X1921868D01*
Y469017D01*
X1914370Y444025D02*
Y454022D01*
X1924367Y444025D01*
X1926866D01*
X1929365Y446524D01*
Y451522D01*
X1926866Y454022D01*
X1429134Y295299D02*
X1439131Y280304D01*
Y295299D02*
X1429134Y280304D01*
X1444129D02*
X1449127D01*
X1446628D01*
Y295299D01*
X1444129Y292800D01*
X1636580Y403543D02*
X1651575D01*
Y413540D01*
Y418538D02*
Y423537D01*
Y421038D01*
X1636580D01*
X1639079Y418538D01*
X1705471Y462038D02*
X1702972Y464537D01*
X1697974D01*
X1695474Y462038D01*
Y452041D01*
X1697974Y449542D01*
X1702972D01*
X1705471Y452041D01*
X1710470Y464537D02*
X1720466D01*
Y462038D01*
X1710470Y452041D01*
Y449542D01*
X1794261Y410193D02*
X1791762Y407693D01*
Y402695D01*
X1794261Y400196D01*
X1804258D01*
X1806757Y402695D01*
Y407693D01*
X1804258Y410193D01*
Y415191D02*
X1806757Y417690D01*
Y422689D01*
X1804258Y425188D01*
X1794261D01*
X1791762Y422689D01*
Y417690D01*
X1794261Y415191D01*
X1796760D01*
X1799260Y417690D01*
Y425188D01*
X1078885Y342485D02*
X1088882D01*
Y349983D01*
X1083883D01*
X1088882D01*
Y357480D01*
X1073887Y342485D02*
Y357480D01*
X1066389D01*
X1063890Y354981D01*
Y352482D01*
X1066389Y349983D01*
X1073887D01*
X1066389D01*
X1063890Y347483D01*
Y344984D01*
X1066389Y342485D01*
X1073887D01*
X1058891Y357480D02*
X1053893D01*
X1056392D01*
Y342485D01*
X1058891Y344984D01*
X872047Y404479D02*
Y389484D01*
X882044D01*
X887042Y401980D02*
X889542Y404479D01*
X894540D01*
X897039Y401980D01*
Y399481D01*
X894540Y396982D01*
X892041D01*
X894540D01*
X897039Y394483D01*
Y391983D01*
X894540Y389484D01*
X889542D01*
X887042Y391983D01*
%TF.MD5,42ad8bf9de4ec5f351cd86223c83b3d2*%
M02*
