%TF.GenerationSoftware,Altium Limited,Altium Designer,20.0.10 (225)*%
G04 Layer_Color=32768*
%FSLAX26Y26*%
%MOIN*%
%TF.FileFunction,Other,Mechanical_15*%
%TF.Part,Single*%
G01*
G75*
%TA.AperFunction,NonConductor*%
%ADD68C,0.003937*%
D68*
X374016Y575197D02*
Y610630D01*
X356299Y592913D02*
X391732D01*
X354331Y546654D02*
Y639173D01*
X393701Y546654D02*
Y639173D01*
X354331Y546654D02*
X393701D01*
X354331Y639173D02*
X393701D01*
X1133858Y406279D02*
Y441712D01*
X1116142Y423995D02*
X1151575D01*
X1114173Y377735D02*
Y470255D01*
X1153543Y377735D02*
Y470255D01*
X1114173Y377735D02*
X1153543D01*
X1114173Y470255D02*
X1153543D01*
X1183071Y406279D02*
Y441712D01*
X1165354Y423995D02*
X1200787D01*
X1163386Y377735D02*
Y470255D01*
X1202756Y377735D02*
Y470255D01*
X1163386Y377735D02*
X1202756D01*
X1163386Y470255D02*
X1202756D01*
X1232284Y406279D02*
Y441712D01*
X1214567Y423995D02*
X1250000D01*
X1212598Y377735D02*
Y470255D01*
X1251968Y377735D02*
Y470255D01*
X1212598Y377735D02*
X1251968D01*
X1212598Y470255D02*
X1251968D01*
X1704724Y297172D02*
X1740157D01*
X1722441Y279455D02*
Y314888D01*
X1676181Y316857D02*
X1768701D01*
X1676181Y277487D02*
X1768701D01*
X1676181D02*
Y316857D01*
X1768701Y277487D02*
Y316857D01*
X1649821Y629788D02*
X1685254D01*
X1667538Y612072D02*
Y647505D01*
X1621278Y649473D02*
X1713797D01*
X1621278Y610103D02*
X1713797D01*
X1621278D02*
Y649473D01*
X1713797Y610103D02*
Y649473D01*
X1535433Y263780D02*
Y299213D01*
X1517717Y281496D02*
X1553150D01*
X1555118Y235236D02*
Y327756D01*
X1515748Y235236D02*
Y327756D01*
X1555118D01*
X1515748Y235236D02*
X1555118D01*
X1377953Y263778D02*
Y299211D01*
X1360236Y281494D02*
X1395669D01*
X1358268Y235235D02*
Y327754D01*
X1397638Y235235D02*
Y327754D01*
X1358268Y235235D02*
X1397638D01*
X1358268Y327754D02*
X1397638D01*
X1663386Y384843D02*
Y477362D01*
X1624016Y384843D02*
Y477362D01*
X1663386D01*
X1624016Y384843D02*
X1663386D01*
X1643701Y413386D02*
Y448819D01*
X1625984Y431102D02*
X1661417D01*
X1676181Y435433D02*
Y474803D01*
X1768701Y435433D02*
Y474803D01*
X1676181D02*
X1768701D01*
X1676181Y435433D02*
X1768701D01*
X1722441Y437401D02*
Y472835D01*
X1704724Y455118D02*
X1740157D01*
X1781496Y380903D02*
X1820866D01*
X1781496Y473422D02*
X1820866D01*
X1781496Y380903D02*
Y473422D01*
X1820866Y380903D02*
Y473422D01*
X1783465Y427162D02*
X1818898D01*
X1801181Y409446D02*
Y444879D01*
X1015063Y369291D02*
X1107583D01*
X1015063Y329921D02*
X1107583D01*
X1015063D02*
Y369291D01*
X1107583Y329921D02*
Y369291D01*
X1043606Y349606D02*
X1079039D01*
X1061323Y331890D02*
Y367323D01*
X880453Y348327D02*
X915886D01*
X898170Y330610D02*
Y366043D01*
X851910Y328642D02*
X944429D01*
X851910Y368012D02*
X944429D01*
Y328642D02*
Y368012D01*
X851910Y328642D02*
Y368012D01*
X853346Y377673D02*
X945866D01*
X853346Y417043D02*
X945866D01*
Y377673D02*
Y417043D01*
X853346Y377673D02*
Y417043D01*
X881890Y397358D02*
X917323D01*
X899606Y379642D02*
Y415075D01*
X868110Y590452D02*
X903543D01*
X885827Y572736D02*
Y608169D01*
X839567Y610138D02*
X932087D01*
X839567Y570768D02*
X932087D01*
X839567D02*
Y610138D01*
X932087Y570768D02*
Y610138D01*
%TF.MD5,8d7d4f46af66e20ce8734c05e5c2dbf3*%
M02*
