%TF.GenerationSoftware,Altium Limited,Altium Designer,18.1.7 (191)*%
G04 Layer_Color=32896*
%FSLAX26Y26*%
%MOIN*%
%TF.FileFunction,Legend,Bot*%
%TF.Part,Single*%
G01*
G75*
%TA.AperFunction,NonConductor*%
%ADD38C,0.030000*%
G36*
X1278352Y641732D02*
X1271456D01*
Y741732D01*
X1278352D01*
Y641732D01*
D02*
G37*
G36*
X1264559D02*
X1250766D01*
Y741732D01*
X1264559D01*
Y641732D01*
D02*
G37*
G36*
X1243869D02*
X1230076D01*
Y741732D01*
X1243869D01*
Y641732D01*
D02*
G37*
G36*
X1223179D02*
X1216283D01*
Y741732D01*
X1223179D01*
Y641732D01*
D02*
G37*
G36*
X1202489D02*
X1195593D01*
Y741732D01*
X1202489D01*
Y641732D01*
D02*
G37*
G36*
X1188696D02*
X1181800D01*
Y741732D01*
X1188696D01*
Y641732D01*
D02*
G37*
G36*
X1168006D02*
X1154213D01*
Y741732D01*
X1168006D01*
Y641732D01*
D02*
G37*
G36*
X1147317D02*
X1133524D01*
Y741732D01*
X1147317D01*
Y641732D01*
D02*
G37*
G36*
X1126627D02*
X1119730D01*
Y741732D01*
X1126627D01*
Y641732D01*
D02*
G37*
G36*
X1112834D02*
X1105937D01*
Y741732D01*
X1112834D01*
Y641732D01*
D02*
G37*
G36*
X1099041D02*
X1092144D01*
Y741732D01*
X1099041D01*
Y641732D01*
D02*
G37*
G36*
X1078351D02*
X1064557D01*
Y741732D01*
X1078351D01*
Y641732D01*
D02*
G37*
G36*
X1057661D02*
X1050764D01*
Y741732D01*
X1057661D01*
Y641732D01*
D02*
G37*
G36*
X1043868D02*
X1036971D01*
Y741732D01*
X1043868D01*
Y641732D01*
D02*
G37*
G36*
X1030074D02*
X1016281D01*
Y741732D01*
X1030074D01*
Y641732D01*
D02*
G37*
G36*
X1009385D02*
X995591D01*
Y741732D01*
X1009385D01*
Y641732D01*
D02*
G37*
G36*
X988695D02*
X981798D01*
Y741732D01*
X988695D01*
Y641732D01*
D02*
G37*
G36*
X968005D02*
X961109D01*
Y741732D01*
X968005D01*
Y641732D01*
D02*
G37*
G36*
X954212D02*
X947315D01*
Y741732D01*
X954212D01*
Y641732D01*
D02*
G37*
G36*
X940419D02*
X926625D01*
Y741732D01*
X940419D01*
Y641732D01*
D02*
G37*
G36*
X919729D02*
X912832D01*
Y741732D01*
X919729D01*
Y641732D01*
D02*
G37*
G36*
X905936D02*
X892143D01*
Y741732D01*
X905936D01*
Y641732D01*
D02*
G37*
G36*
X885246D02*
X878349D01*
Y741732D01*
X885246D01*
Y641732D01*
D02*
G37*
G36*
X871453D02*
X857659D01*
Y741732D01*
X871453D01*
Y641732D01*
D02*
G37*
G36*
X843866D02*
X836970D01*
Y741732D01*
X843866D01*
Y641732D01*
D02*
G37*
G36*
X830073D02*
X823177D01*
Y741732D01*
X830073D01*
Y641732D01*
D02*
G37*
G36*
X816280D02*
X802487D01*
Y741732D01*
X816280D01*
Y641732D01*
D02*
G37*
G36*
X788693D02*
X781797D01*
Y741732D01*
X788693D01*
Y641732D01*
D02*
G37*
G36*
X774900D02*
X768004D01*
Y741732D01*
X774900D01*
Y641732D01*
D02*
G37*
G36*
X761107D02*
X747314D01*
Y741732D01*
X761107D01*
Y641732D01*
D02*
G37*
G36*
X740417D02*
X733521D01*
Y741732D01*
X740417D01*
Y641732D01*
D02*
G37*
G36*
X726624D02*
X712831D01*
Y741732D01*
X726624D01*
Y641732D01*
D02*
G37*
G36*
X699038D02*
X692141D01*
Y741732D01*
X699038D01*
Y641732D01*
D02*
G37*
G36*
X685245D02*
X678348D01*
Y741732D01*
X685245D01*
Y641732D01*
D02*
G37*
G36*
X671451D02*
X657658D01*
Y741732D01*
X671451D01*
Y641732D01*
D02*
G37*
G36*
X650761D02*
X643865D01*
Y741732D01*
X650761D01*
Y641732D01*
D02*
G37*
G36*
X630072D02*
X616279D01*
Y741732D01*
X630072D01*
Y641732D01*
D02*
G37*
G36*
X609382D02*
X602485D01*
Y741732D01*
X609382D01*
Y641732D01*
D02*
G37*
G36*
X595589D02*
X581795D01*
Y741732D01*
X595589D01*
Y641732D01*
D02*
G37*
G36*
X574899D02*
X568002D01*
Y741732D01*
X574899D01*
Y641732D01*
D02*
G37*
G36*
X561106D02*
X554209D01*
Y741732D01*
X561106D01*
Y641732D01*
D02*
G37*
G36*
X547312D02*
X533519D01*
Y741732D01*
X547312D01*
Y641732D01*
D02*
G37*
G36*
X526623D02*
X512830D01*
Y741732D01*
X526623D01*
Y641732D01*
D02*
G37*
G36*
X505933D02*
X499036D01*
Y741732D01*
X505933D01*
Y641732D01*
D02*
G37*
G36*
X485243D02*
X478346D01*
Y741732D01*
X485243D01*
Y641732D01*
D02*
G37*
D38*
X1959646Y415568D02*
Y505539D01*
X1929655Y475549D01*
X1899665Y505539D01*
Y415568D01*
X1869675Y505539D02*
X1839685D01*
X1854680D01*
Y415568D01*
X1869675D01*
X1839685D01*
X1734718Y490544D02*
X1749714Y505539D01*
X1779704D01*
X1794699Y490544D01*
Y430563D01*
X1779704Y415568D01*
X1749714D01*
X1734718Y430563D01*
X1704728Y415568D02*
Y505539D01*
X1659743D01*
X1644747Y490544D01*
Y460554D01*
X1659743Y445558D01*
X1704728D01*
X1674738D02*
X1644747Y415568D01*
X1569772Y505539D02*
X1599762D01*
X1614757Y490544D01*
Y430563D01*
X1599762Y415568D01*
X1569772D01*
X1554777Y430563D01*
Y490544D01*
X1569772Y505539D01*
X1344844D02*
Y415568D01*
X1284864D01*
X1194893Y505539D02*
X1254874D01*
Y415568D01*
X1194893D01*
X1254874Y460554D02*
X1224883D01*
X1164903Y505539D02*
Y415568D01*
X1119917D01*
X1104922Y430563D01*
Y490544D01*
X1119917Y505539D01*
X1164903D01*
X924980Y490544D02*
X939975Y505539D01*
X969966D01*
X984961Y490544D01*
Y430563D01*
X969966Y415568D01*
X939975D01*
X924980Y430563D01*
X850005Y505539D02*
X879995D01*
X894990Y490544D01*
Y430563D01*
X879995Y415568D01*
X850005D01*
X835009Y430563D01*
Y490544D01*
X850005Y505539D01*
X805019Y415568D02*
Y505539D01*
X745038Y415568D01*
Y505539D01*
X715048D02*
X655068D01*
X685058D01*
Y415568D01*
X625077D02*
Y505539D01*
X580092D01*
X565097Y490544D01*
Y460554D01*
X580092Y445558D01*
X625077D01*
X595087D02*
X565097Y415568D01*
X490121Y505539D02*
X520111D01*
X535106Y490544D01*
Y430563D01*
X520111Y415568D01*
X490121D01*
X475126Y430563D01*
Y490544D01*
X490121Y505539D01*
X445135D02*
Y415568D01*
X385155D01*
X355165Y505539D02*
Y415568D01*
X295184D01*
X205213Y505539D02*
X265194D01*
Y415568D01*
X205213D01*
X265194Y460554D02*
X235203D01*
X175223Y415568D02*
Y505539D01*
X130237D01*
X115242Y490544D01*
Y460554D01*
X130237Y445558D01*
X175223D01*
X145232D02*
X115242Y415568D01*
%TF.MD5,d9622c62d287511532afde57681097ab*%
M02*
